<svg width="428" height="926" viewBox="0 0 428 926" fill="none" xmlns="http://www.w3.org/2000/svg">
<rect width="428" height="926" fill="white"/>
<rect width="428" height="158" fill="#699482" style="mix-blend-mode:darken"/>
<path d="M168.08 226.1V236.12C168.08 237.36 167.7 238.34 166.94 239.06C166.193 239.78 165.207 240.14 163.98 240.14C162.753 240.14 161.76 239.78 161 239.06C160.253 238.34 159.88 237.36 159.88 236.12H162.18C162.193 236.733 162.347 237.22 162.64 237.58C162.947 237.94 163.393 238.12 163.98 238.12C164.567 238.12 165.013 237.94 165.32 237.58C165.627 237.207 165.78 236.72 165.78 236.12V226.1H168.08ZM181.769 228.98V240H179.489V238.7C179.129 239.153 178.656 239.513 178.069 239.78C177.496 240.033 176.882 240.16 176.229 240.16C175.362 240.16 174.582 239.98 173.889 239.62C173.209 239.26 172.669 238.727 172.269 238.02C171.882 237.313 171.689 236.46 171.689 235.46V228.98H173.949V235.12C173.949 236.107 174.196 236.867 174.689 237.4C175.182 237.92 175.856 238.18 176.709 238.18C177.562 238.18 178.236 237.92 178.729 237.4C179.236 236.867 179.489 236.107 179.489 235.12V228.98H181.769ZM187.057 225.2V240H184.777V225.2H187.057ZM191.211 227.52C190.797 227.52 190.451 227.38 190.171 227.1C189.891 226.82 189.751 226.473 189.751 226.06C189.751 225.647 189.891 225.3 190.171 225.02C190.451 224.74 190.797 224.6 191.211 224.6C191.611 224.6 191.951 224.74 192.231 225.02C192.511 225.3 192.651 225.647 192.651 226.06C192.651 226.473 192.511 226.82 192.231 227.1C191.951 227.38 191.611 227.52 191.211 227.52ZM192.331 228.98V240H190.051V228.98H192.331ZM194.564 234.44C194.564 233.333 194.791 232.353 195.244 231.5C195.711 230.647 196.338 229.987 197.124 229.52C197.924 229.04 198.804 228.8 199.764 228.8C200.631 228.8 201.384 228.973 202.024 229.32C202.678 229.653 203.198 230.073 203.584 230.58V228.98H205.884V240H203.584V238.36C203.198 238.88 202.671 239.313 202.004 239.66C201.338 240.007 200.578 240.18 199.724 240.18C198.778 240.18 197.911 239.94 197.124 239.46C196.338 238.967 195.711 238.287 195.244 237.42C194.791 236.54 194.564 235.547 194.564 234.44ZM203.584 234.48C203.584 233.72 203.424 233.06 203.104 232.5C202.798 231.94 202.391 231.513 201.884 231.22C201.378 230.927 200.831 230.78 200.244 230.78C199.658 230.78 199.111 230.927 198.604 231.22C198.098 231.5 197.684 231.92 197.364 232.48C197.058 233.027 196.904 233.68 196.904 234.44C196.904 235.2 197.058 235.867 197.364 236.44C197.684 237.013 198.098 237.453 198.604 237.76C199.124 238.053 199.671 238.2 200.244 238.2C200.831 238.2 201.378 238.053 201.884 237.76C202.391 237.467 202.798 237.04 203.104 236.48C203.424 235.907 203.584 235.24 203.584 234.48ZM214.439 228.8C215.306 228.8 216.079 228.98 216.759 229.34C217.452 229.7 217.992 230.233 218.379 230.94C218.766 231.647 218.959 232.5 218.959 233.5V240H216.699V233.84C216.699 232.853 216.452 232.1 215.959 231.58C215.466 231.047 214.792 230.78 213.939 230.78C213.086 230.78 212.406 231.047 211.899 231.58C211.406 232.1 211.159 232.853 211.159 233.84V240H208.879V228.98H211.159V230.24C211.532 229.787 212.006 229.433 212.579 229.18C213.166 228.927 213.786 228.8 214.439 228.8ZM221.107 234.44C221.107 233.333 221.334 232.353 221.787 231.5C222.254 230.647 222.881 229.987 223.667 229.52C224.467 229.04 225.347 228.8 226.307 228.8C227.174 228.8 227.927 228.973 228.567 229.32C229.221 229.653 229.741 230.073 230.127 230.58V228.98H232.427V240H230.127V238.36C229.741 238.88 229.214 239.313 228.547 239.66C227.881 240.007 227.121 240.18 226.267 240.18C225.321 240.18 224.454 239.94 223.667 239.46C222.881 238.967 222.254 238.287 221.787 237.42C221.334 236.54 221.107 235.547 221.107 234.44ZM230.127 234.48C230.127 233.72 229.967 233.06 229.647 232.5C229.341 231.94 228.934 231.513 228.427 231.22C227.921 230.927 227.374 230.78 226.787 230.78C226.201 230.78 225.654 230.927 225.147 231.22C224.641 231.5 224.227 231.92 223.907 232.48C223.601 233.027 223.447 233.68 223.447 234.44C223.447 235.2 223.601 235.867 223.907 236.44C224.227 237.013 224.641 237.453 225.147 237.76C225.667 238.053 226.214 238.2 226.787 238.2C227.374 238.2 227.921 238.053 228.427 237.76C228.934 237.467 229.341 237.04 229.647 236.48C229.967 235.907 230.127 235.24 230.127 234.48ZM248.197 226.1V236.12C248.197 237.36 247.817 238.34 247.057 239.06C246.311 239.78 245.324 240.14 244.097 240.14C242.871 240.14 241.877 239.78 241.117 239.06C240.371 238.34 239.997 237.36 239.997 236.12H242.297C242.311 236.733 242.464 237.22 242.757 237.58C243.064 237.94 243.511 238.12 244.097 238.12C244.684 238.12 245.131 237.94 245.437 237.58C245.744 237.207 245.897 236.72 245.897 236.12V226.1H248.197ZM256.686 240.18C255.646 240.18 254.706 239.947 253.866 239.48C253.026 239 252.366 238.333 251.886 237.48C251.406 236.613 251.166 235.613 251.166 234.48C251.166 233.36 251.413 232.367 251.906 231.5C252.4 230.633 253.073 229.967 253.926 229.5C254.78 229.033 255.733 228.8 256.786 228.8C257.84 228.8 258.793 229.033 259.646 229.5C260.5 229.967 261.173 230.633 261.666 231.5C262.16 232.367 262.406 233.36 262.406 234.48C262.406 235.6 262.153 236.593 261.646 237.46C261.14 238.327 260.446 239 259.566 239.48C258.7 239.947 257.74 240.18 256.686 240.18ZM256.686 238.2C257.273 238.2 257.82 238.06 258.326 237.78C258.846 237.5 259.266 237.08 259.586 236.52C259.906 235.96 260.066 235.28 260.066 234.48C260.066 233.68 259.913 233.007 259.606 232.46C259.3 231.9 258.893 231.48 258.386 231.2C257.88 230.92 257.333 230.78 256.746 230.78C256.16 230.78 255.613 230.92 255.106 231.2C254.613 231.48 254.22 231.9 253.926 232.46C253.633 233.007 253.486 233.68 253.486 234.48C253.486 235.667 253.786 236.587 254.386 237.24C255 237.88 255.766 238.2 256.686 238.2ZM270.22 228.8C271.087 228.8 271.86 228.98 272.54 229.34C273.233 229.7 273.773 230.233 274.16 230.94C274.547 231.647 274.74 232.5 274.74 233.5V240H272.48V233.84C272.48 232.853 272.233 232.1 271.74 231.58C271.247 231.047 270.573 230.78 269.72 230.78C268.867 230.78 268.187 231.047 267.68 231.58C267.187 232.1 266.94 232.853 266.94 233.84V240H264.66V228.98H266.94V230.24C267.313 229.787 267.787 229.433 268.36 229.18C268.947 228.927 269.567 228.8 270.22 228.8ZM287.748 234.22C287.748 234.633 287.722 235.007 287.668 235.34H279.248C279.315 236.22 279.642 236.927 280.228 237.46C280.815 237.993 281.535 238.26 282.388 238.26C283.615 238.26 284.482 237.747 284.988 236.72H287.448C287.115 237.733 286.508 238.567 285.628 239.22C284.762 239.86 283.682 240.18 282.388 240.18C281.335 240.18 280.388 239.947 279.548 239.48C278.722 239 278.068 238.333 277.588 237.48C277.122 236.613 276.888 235.613 276.888 234.48C276.888 233.347 277.115 232.353 277.568 231.5C278.035 230.633 278.682 229.967 279.508 229.5C280.348 229.033 281.308 228.8 282.388 228.8C283.428 228.8 284.355 229.027 285.168 229.48C285.982 229.933 286.615 230.573 287.068 231.4C287.522 232.213 287.748 233.153 287.748 234.22ZM285.368 233.5C285.355 232.66 285.055 231.987 284.468 231.48C283.882 230.973 283.155 230.72 282.288 230.72C281.502 230.72 280.828 230.973 280.268 231.48C279.708 231.973 279.375 232.647 279.268 233.5H285.368ZM293.992 240.18C293.126 240.18 292.346 240.027 291.652 239.72C290.972 239.4 290.432 238.973 290.032 238.44C289.632 237.893 289.419 237.287 289.392 236.62H291.752C291.792 237.087 292.012 237.48 292.412 237.8C292.826 238.107 293.339 238.26 293.952 238.26C294.592 238.26 295.086 238.14 295.432 237.9C295.792 237.647 295.972 237.327 295.972 236.94C295.972 236.527 295.772 236.22 295.372 236.02C294.986 235.82 294.366 235.6 293.512 235.36C292.686 235.133 292.012 234.913 291.492 234.7C290.972 234.487 290.519 234.16 290.132 233.72C289.759 233.28 289.572 232.7 289.572 231.98C289.572 231.393 289.746 230.86 290.092 230.38C290.439 229.887 290.932 229.5 291.572 229.22C292.226 228.94 292.972 228.8 293.812 228.8C295.066 228.8 296.072 229.12 296.832 229.76C297.606 230.387 298.019 231.247 298.072 232.34H295.792C295.752 231.847 295.552 231.453 295.192 231.16C294.832 230.867 294.346 230.72 293.732 230.72C293.132 230.72 292.672 230.833 292.352 231.06C292.032 231.287 291.872 231.587 291.872 231.96C291.872 232.253 291.979 232.5 292.192 232.7C292.406 232.9 292.666 233.06 292.972 233.18C293.279 233.287 293.732 233.427 294.332 233.6C295.132 233.813 295.786 234.033 296.292 234.26C296.812 234.473 297.259 234.793 297.632 235.22C298.006 235.647 298.199 236.213 298.212 236.92C298.212 237.547 298.039 238.107 297.692 238.6C297.346 239.093 296.852 239.48 296.212 239.76C295.586 240.04 294.846 240.18 293.992 240.18Z" fill="#050505"/>
<path d="M39.08 346.14C38.1467 346.14 37.3067 345.98 36.56 345.66C35.8133 345.327 35.2267 344.86 34.8 344.26C34.3733 343.66 34.16 342.96 34.16 342.16H36.6C36.6533 342.76 36.8867 343.253 37.3 343.64C37.7267 344.027 38.32 344.22 39.08 344.22C39.8667 344.22 40.48 344.033 40.92 343.66C41.36 343.273 41.58 342.78 41.58 342.18C41.58 341.713 41.44 341.333 41.16 341.04C40.8933 340.747 40.5533 340.52 40.14 340.36C39.74 340.2 39.18 340.027 38.46 339.84C37.5533 339.6 36.8133 339.36 36.24 339.12C35.68 338.867 35.2 338.48 34.8 337.96C34.4 337.44 34.2 336.747 34.2 335.88C34.2 335.08 34.4 334.38 34.8 333.78C35.2 333.18 35.76 332.72 36.48 332.4C37.2 332.08 38.0333 331.92 38.98 331.92C40.3267 331.92 41.4267 332.26 42.28 332.94C43.1467 333.607 43.6267 334.527 43.72 335.7H41.2C41.16 335.193 40.92 334.76 40.48 334.4C40.04 334.04 39.46 333.86 38.74 333.86C38.0867 333.86 37.5533 334.027 37.14 334.36C36.7267 334.693 36.52 335.173 36.52 335.8C36.52 336.227 36.6467 336.58 36.9 336.86C37.1667 337.127 37.5 337.34 37.9 337.5C38.3 337.66 38.8467 337.833 39.54 338.02C40.46 338.273 41.2067 338.527 41.78 338.78C42.3667 339.033 42.86 339.427 43.26 339.96C43.6733 340.48 43.88 341.18 43.88 342.06C43.88 342.767 43.6867 343.433 43.3 344.06C42.9267 344.687 42.3733 345.193 41.64 345.58C40.92 345.953 40.0667 346.14 39.08 346.14ZM56.6703 340.22C56.6703 340.633 56.6436 341.007 56.5903 341.34H48.1703C48.237 342.22 48.5636 342.927 49.1503 343.46C49.737 343.993 50.457 344.26 51.3103 344.26C52.537 344.26 53.4036 343.747 53.9103 342.72H56.3703C56.037 343.733 55.4303 344.567 54.5503 345.22C53.6836 345.86 52.6036 346.18 51.3103 346.18C50.257 346.18 49.3103 345.947 48.4703 345.48C47.6436 345 46.9903 344.333 46.5103 343.48C46.0436 342.613 45.8103 341.613 45.8103 340.48C45.8103 339.347 46.037 338.353 46.4903 337.5C46.957 336.633 47.6036 335.967 48.4303 335.5C49.2703 335.033 50.2303 334.8 51.3103 334.8C52.3503 334.8 53.277 335.027 54.0903 335.48C54.9036 335.933 55.537 336.573 55.9903 337.4C56.4436 338.213 56.6703 339.153 56.6703 340.22ZM54.2903 339.5C54.277 338.66 53.977 337.987 53.3903 337.48C52.8036 336.973 52.077 336.72 51.2103 336.72C50.4236 336.72 49.7503 336.973 49.1903 337.48C48.6303 337.973 48.297 338.647 48.1903 339.5H54.2903ZM61.5741 336.84V342.94C61.5741 343.353 61.6674 343.653 61.8541 343.84C62.0541 344.013 62.3874 344.1 62.8541 344.1H64.2541V346H62.4541C61.4274 346 60.6407 345.76 60.0941 345.28C59.5474 344.8 59.2741 344.02 59.2741 342.94V336.84H57.9741V334.98H59.2741V332.24H61.5741V334.98H64.2541V336.84H61.5741ZM69.0155 336.84V342.94C69.0155 343.353 69.1088 343.653 69.2955 343.84C69.4955 344.013 69.8288 344.1 70.2955 344.1H71.6955V346H69.8955C68.8688 346 68.0821 345.76 67.5355 345.28C66.9888 344.8 66.7155 344.02 66.7155 342.94V336.84H65.4155V334.98H66.7155V332.24H69.0155V334.98H71.6955V336.84H69.0155ZM74.9569 333.52C74.5435 333.52 74.1969 333.38 73.9169 333.1C73.6369 332.82 73.4969 332.473 73.4969 332.06C73.4969 331.647 73.6369 331.3 73.9169 331.02C74.1969 330.74 74.5435 330.6 74.9569 330.6C75.3569 330.6 75.6969 330.74 75.9769 331.02C76.2569 331.3 76.3969 331.647 76.3969 332.06C76.3969 332.473 76.2569 332.82 75.9769 333.1C75.6969 333.38 75.3569 333.52 74.9569 333.52ZM76.0769 334.98V346H73.7969V334.98H76.0769ZM84.6303 334.8C85.497 334.8 86.2703 334.98 86.9503 335.34C87.6436 335.7 88.1836 336.233 88.5703 336.94C88.957 337.647 89.1503 338.5 89.1503 339.5V346H86.8903V339.84C86.8903 338.853 86.6436 338.1 86.1503 337.58C85.657 337.047 84.9836 336.78 84.1303 336.78C83.277 336.78 82.597 337.047 82.0903 337.58C81.597 338.1 81.3503 338.853 81.3503 339.84V346H79.0703V334.98H81.3503V336.24C81.7236 335.787 82.197 335.433 82.7703 335.18C83.357 334.927 83.977 334.8 84.6303 334.8ZM96.4986 334.8C97.3519 334.8 98.1053 334.973 98.7586 335.32C99.4253 335.653 99.9453 336.073 100.319 336.58V334.98H102.619V346.18C102.619 347.193 102.405 348.093 101.979 348.88C101.552 349.68 100.932 350.307 100.119 350.76C99.3186 351.213 98.3586 351.44 97.2386 351.44C95.7453 351.44 94.5053 351.087 93.5186 350.38C92.5319 349.687 91.9719 348.74 91.8386 347.54H94.0986C94.2719 348.113 94.6386 348.573 95.1986 348.92C95.7719 349.28 96.4519 349.46 97.2386 349.46C98.1586 349.46 98.8986 349.18 99.4586 348.62C100.032 348.06 100.319 347.247 100.319 346.18V344.34C99.9319 344.86 99.4053 345.3 98.7386 345.66C98.0853 346.007 97.3386 346.18 96.4986 346.18C95.5386 346.18 94.6586 345.94 93.8586 345.46C93.0719 344.967 92.4453 344.287 91.9786 343.42C91.5253 342.54 91.2986 341.547 91.2986 340.44C91.2986 339.333 91.5253 338.353 91.9786 337.5C92.4453 336.647 93.0719 335.987 93.8586 335.52C94.6586 335.04 95.5386 334.8 96.4986 334.8ZM100.319 340.48C100.319 339.72 100.159 339.06 99.8386 338.5C99.5319 337.94 99.1253 337.513 98.6186 337.22C98.1119 336.927 97.5653 336.78 96.9786 336.78C96.3919 336.78 95.8453 336.927 95.3386 337.22C94.8319 337.5 94.4186 337.92 94.0986 338.48C93.7919 339.027 93.6386 339.68 93.6386 340.44C93.6386 341.2 93.7919 341.867 94.0986 342.44C94.4186 343.013 94.8319 343.453 95.3386 343.76C95.8586 344.053 96.4053 344.2 96.9786 344.2C97.5653 344.2 98.1119 344.053 98.6186 343.76C99.1253 343.467 99.5319 343.04 99.8386 342.48C100.159 341.907 100.319 341.24 100.319 340.48ZM109.613 346.18C108.747 346.18 107.967 346.027 107.273 345.72C106.593 345.4 106.053 344.973 105.653 344.44C105.253 343.893 105.04 343.287 105.013 342.62H107.373C107.413 343.087 107.633 343.48 108.033 343.8C108.447 344.107 108.96 344.26 109.573 344.26C110.213 344.26 110.707 344.14 111.053 343.9C111.413 343.647 111.593 343.327 111.593 342.94C111.593 342.527 111.393 342.22 110.993 342.02C110.607 341.82 109.987 341.6 109.133 341.36C108.307 341.133 107.633 340.913 107.113 340.7C106.593 340.487 106.14 340.16 105.753 339.72C105.38 339.28 105.193 338.7 105.193 337.98C105.193 337.393 105.367 336.86 105.713 336.38C106.06 335.887 106.553 335.5 107.193 335.22C107.847 334.94 108.593 334.8 109.433 334.8C110.687 334.8 111.693 335.12 112.453 335.76C113.227 336.387 113.64 337.247 113.693 338.34H111.413C111.373 337.847 111.173 337.453 110.813 337.16C110.453 336.867 109.967 336.72 109.353 336.72C108.753 336.72 108.293 336.833 107.973 337.06C107.653 337.287 107.493 337.587 107.493 337.96C107.493 338.253 107.6 338.5 107.813 338.7C108.027 338.9 108.287 339.06 108.593 339.18C108.9 339.287 109.353 339.427 109.953 339.6C110.753 339.813 111.407 340.033 111.913 340.26C112.433 340.473 112.88 340.793 113.253 341.22C113.627 341.647 113.82 342.213 113.833 342.92C113.833 343.547 113.66 344.107 113.313 344.6C112.967 345.093 112.473 345.48 111.833 345.76C111.207 346.04 110.467 346.18 109.613 346.18Z" fill="black"/>
<path d="M39.704 408.848C40.92 408.848 41.9707 409.077 42.856 409.536C43.752 409.984 44.4347 410.629 44.904 411.472C45.384 412.315 45.624 413.307 45.624 414.448C45.624 415.589 45.384 416.581 44.904 417.424C44.4347 418.256 43.752 418.896 42.856 419.344C41.9707 419.781 40.92 420 39.704 420H36.232V408.848H39.704ZM39.704 418.8C41.144 418.8 42.2427 418.421 43 417.664C43.7573 416.896 44.136 415.824 44.136 414.448C44.136 413.061 43.752 411.979 42.984 411.2C42.2267 410.421 41.1333 410.032 39.704 410.032H37.688V418.8H39.704ZM47.0005 415.584C47.0005 414.688 47.1818 413.904 47.5445 413.232C47.9072 412.549 48.4032 412.021 49.0325 411.648C49.6725 411.275 50.3818 411.088 51.1605 411.088C51.9285 411.088 52.5952 411.253 53.1605 411.584C53.7258 411.915 54.1472 412.331 54.4245 412.832V411.232H55.8965V420H54.4245V418.368C54.1365 418.88 53.7045 419.307 53.1285 419.648C52.5632 419.979 51.9018 420.144 51.1445 420.144C50.3658 420.144 49.6618 419.952 49.0325 419.568C48.4032 419.184 47.9072 418.645 47.5445 417.952C47.1818 417.259 47.0005 416.469 47.0005 415.584ZM54.4245 415.6C54.4245 414.939 54.2912 414.363 54.0245 413.872C53.7578 413.381 53.3952 413.008 52.9365 412.752C52.4885 412.485 51.9925 412.352 51.4485 412.352C50.9045 412.352 50.4085 412.48 49.9605 412.736C49.5125 412.992 49.1552 413.365 48.8885 413.856C48.6218 414.347 48.4885 414.923 48.4885 415.584C48.4885 416.256 48.6218 416.843 48.8885 417.344C49.1552 417.835 49.5125 418.213 49.9605 418.48C50.4085 418.736 50.9045 418.864 51.4485 418.864C51.9925 418.864 52.4885 418.736 52.9365 418.48C53.3952 418.213 53.7578 417.835 54.0245 417.344C54.2912 416.843 54.4245 416.261 54.4245 415.6ZM59.813 412.656C60.069 412.155 60.4317 411.765 60.901 411.488C61.381 411.211 61.9623 411.072 62.645 411.072V412.576H62.261C60.629 412.576 59.813 413.461 59.813 415.232V420H58.357V411.232H59.813V412.656ZM69.2218 420L65.7818 416.128V420H64.3258V408.16H65.7818V415.12L69.1578 411.232H71.1898L67.0618 415.6L71.2058 420H69.2218ZM87.3698 411.072C88.0524 411.072 88.6604 411.216 89.1938 411.504C89.7271 411.781 90.1484 412.203 90.4578 412.768C90.7671 413.333 90.9218 414.021 90.9218 414.832V420H89.4818V415.04C89.4818 414.165 89.2631 413.499 88.8258 413.04C88.3991 412.571 87.8178 412.336 87.0818 412.336C86.3244 412.336 85.7218 412.581 85.2738 413.072C84.8258 413.552 84.6018 414.251 84.6018 415.168V420H83.1618V415.04C83.1618 414.165 82.9431 413.499 82.5058 413.04C82.0791 412.571 81.4978 412.336 80.7618 412.336C80.0044 412.336 79.4018 412.581 78.9538 413.072C78.5058 413.552 78.2818 414.251 78.2818 415.168V420H76.8258V411.232H78.2818V412.496C78.5698 412.037 78.9538 411.685 79.4338 411.44C79.9244 411.195 80.4631 411.072 81.0498 411.072C81.7858 411.072 82.4364 411.237 83.0018 411.568C83.5671 411.899 83.9884 412.384 84.2658 413.024C84.5111 412.405 84.9164 411.925 85.4818 411.584C86.0471 411.243 86.6764 411.072 87.3698 411.072ZM97.1341 420.144C96.3128 420.144 95.5661 419.957 94.8941 419.584C94.2328 419.211 93.7101 418.683 93.3261 418C92.9528 417.307 92.7661 416.507 92.7661 415.6C92.7661 414.704 92.9581 413.915 93.3421 413.232C93.7368 412.539 94.2701 412.011 94.9421 411.648C95.6141 411.275 96.3661 411.088 97.1981 411.088C98.0301 411.088 98.7821 411.275 99.4541 411.648C100.126 412.011 100.654 412.533 101.038 413.216C101.433 413.899 101.63 414.693 101.63 415.6C101.63 416.507 101.427 417.307 101.022 418C100.627 418.683 100.089 419.211 99.4061 419.584C98.7235 419.957 97.9661 420.144 97.1341 420.144ZM97.1341 418.864C97.6568 418.864 98.1475 418.741 98.6061 418.496C99.0648 418.251 99.4328 417.883 99.7101 417.392C99.9981 416.901 100.142 416.304 100.142 415.6C100.142 414.896 100.003 414.299 99.7261 413.808C99.4488 413.317 99.0861 412.955 98.6381 412.72C98.1901 412.475 97.7048 412.352 97.1821 412.352C96.6488 412.352 96.1581 412.475 95.7101 412.72C95.2728 412.955 94.9208 413.317 94.6541 413.808C94.3875 414.299 94.2541 414.896 94.2541 415.6C94.2541 416.315 94.3821 416.917 94.6381 417.408C94.9048 417.899 95.2568 418.267 95.6941 418.512C96.1315 418.747 96.6115 418.864 97.1341 418.864ZM103.001 415.584C103.001 414.688 103.182 413.904 103.545 413.232C103.907 412.549 104.403 412.021 105.033 411.648C105.673 411.275 106.387 411.088 107.177 411.088C107.859 411.088 108.494 411.248 109.081 411.568C109.667 411.877 110.115 412.288 110.425 412.8V408.16H111.897V420H110.425V418.352C110.137 418.875 109.71 419.307 109.145 419.648C108.579 419.979 107.918 420.144 107.161 420.144C106.382 420.144 105.673 419.952 105.033 419.568C104.403 419.184 103.907 418.645 103.545 417.952C103.182 417.259 103.001 416.469 103.001 415.584ZM110.425 415.6C110.425 414.939 110.291 414.363 110.025 413.872C109.758 413.381 109.395 413.008 108.937 412.752C108.489 412.485 107.993 412.352 107.449 412.352C106.905 412.352 106.409 412.48 105.961 412.736C105.513 412.992 105.155 413.365 104.889 413.856C104.622 414.347 104.489 414.923 104.489 415.584C104.489 416.256 104.622 416.843 104.889 417.344C105.155 417.835 105.513 418.213 105.961 418.48C106.409 418.736 106.905 418.864 107.449 418.864C107.993 418.864 108.489 418.736 108.937 418.48C109.395 418.213 109.758 417.835 110.025 417.344C110.291 416.843 110.425 416.261 110.425 415.6ZM122.357 415.28C122.357 415.557 122.341 415.851 122.309 416.16H115.301C115.354 417.024 115.648 417.701 116.181 418.192C116.725 418.672 117.381 418.912 118.149 418.912C118.778 418.912 119.301 418.768 119.717 418.48C120.144 418.181 120.442 417.787 120.613 417.296H122.181C121.946 418.139 121.477 418.827 120.773 419.36C120.069 419.883 119.194 420.144 118.149 420.144C117.317 420.144 116.57 419.957 115.909 419.584C115.258 419.211 114.746 418.683 114.373 418C114 417.307 113.813 416.507 113.813 415.6C113.813 414.693 113.994 413.899 114.357 413.216C114.72 412.533 115.226 412.011 115.877 411.648C116.538 411.275 117.296 411.088 118.149 411.088C118.981 411.088 119.717 411.269 120.357 411.632C120.997 411.995 121.488 412.496 121.829 413.136C122.181 413.765 122.357 414.48 122.357 415.28ZM120.853 414.976C120.853 414.421 120.73 413.947 120.485 413.552C120.24 413.147 119.904 412.843 119.477 412.64C119.061 412.427 118.597 412.32 118.085 412.32C117.349 412.32 116.72 412.555 116.197 413.024C115.685 413.493 115.392 414.144 115.317 414.976H120.853Z" fill="black"/>
<path d="M168.77 292.05C168.77 292.223 168.76 292.407 168.74 292.6H164.36C164.393 293.14 164.577 293.563 164.91 293.87C165.25 294.17 165.66 294.32 166.14 294.32C166.533 294.32 166.86 294.23 167.12 294.05C167.387 293.863 167.573 293.617 167.68 293.31H168.66C168.513 293.837 168.22 294.267 167.78 294.6C167.34 294.927 166.793 295.09 166.14 295.09C165.62 295.09 165.153 294.973 164.74 294.74C164.333 294.507 164.013 294.177 163.78 293.75C163.547 293.317 163.43 292.817 163.43 292.25C163.43 291.683 163.543 291.187 163.77 290.76C163.997 290.333 164.313 290.007 164.72 289.78C165.133 289.547 165.607 289.43 166.14 289.43C166.66 289.43 167.12 289.543 167.52 289.77C167.92 289.997 168.227 290.31 168.44 290.71C168.66 291.103 168.77 291.55 168.77 292.05ZM167.83 291.86C167.83 291.513 167.753 291.217 167.6 290.97C167.447 290.717 167.237 290.527 166.97 290.4C166.71 290.267 166.42 290.2 166.1 290.2C165.64 290.2 165.247 290.347 164.92 290.64C164.6 290.933 164.417 291.34 164.37 291.86H167.83ZM169.631 292.24C169.631 291.68 169.745 291.19 169.971 290.77C170.198 290.343 170.508 290.013 170.901 289.78C171.301 289.547 171.748 289.43 172.241 289.43C172.668 289.43 173.065 289.53 173.431 289.73C173.798 289.923 174.078 290.18 174.271 290.5V287.6H175.191V295H174.271V293.97C174.091 294.297 173.825 294.567 173.471 294.78C173.118 294.987 172.705 295.09 172.231 295.09C171.745 295.09 171.301 294.97 170.901 294.73C170.508 294.49 170.198 294.153 169.971 293.72C169.745 293.287 169.631 292.793 169.631 292.24ZM174.271 292.25C174.271 291.837 174.188 291.477 174.021 291.17C173.855 290.863 173.628 290.63 173.341 290.47C173.061 290.303 172.751 290.22 172.411 290.22C172.071 290.22 171.761 290.3 171.481 290.46C171.201 290.62 170.978 290.853 170.811 291.16C170.645 291.467 170.561 291.827 170.561 292.24C170.561 292.66 170.645 293.027 170.811 293.34C170.978 293.647 171.201 293.883 171.481 294.05C171.761 294.21 172.071 294.29 172.411 294.29C172.751 294.29 173.061 294.21 173.341 294.05C173.628 293.883 173.855 293.647 174.021 293.34C174.188 293.027 174.271 292.663 174.271 292.25ZM177.199 288.63C177.026 288.63 176.879 288.57 176.759 288.45C176.639 288.33 176.579 288.183 176.579 288.01C176.579 287.837 176.639 287.69 176.759 287.57C176.879 287.45 177.026 287.39 177.199 287.39C177.366 287.39 177.506 287.45 177.619 287.57C177.739 287.69 177.799 287.837 177.799 288.01C177.799 288.183 177.739 288.33 177.619 288.45C177.506 288.57 177.366 288.63 177.199 288.63ZM177.639 289.52V295H176.729V289.52H177.639ZM180.3 290.27V293.5C180.3 293.767 180.357 293.957 180.47 294.07C180.583 294.177 180.78 294.23 181.06 294.23H181.73V295H180.91C180.403 295 180.023 294.883 179.77 294.65C179.517 294.417 179.39 294.033 179.39 293.5V290.27H178.68V289.52H179.39V288.14H180.3V289.52H181.73V290.27H180.3Z" fill="#245D47"/>
<path d="M163 296H182.06V296.5H163V296Z" fill="#245D47"/>
<path d="M42.104 499L39.448 494.44H37.688V499H36.232V487.848H39.832C40.6747 487.848 41.384 487.992 41.96 488.28C42.5467 488.568 42.984 488.957 43.272 489.448C43.56 489.939 43.704 490.499 43.704 491.128C43.704 491.896 43.48 492.573 43.032 493.16C42.5947 493.747 41.9333 494.136 41.048 494.328L43.848 499H42.104ZM37.688 493.272H39.832C40.6213 493.272 41.2133 493.08 41.608 492.696C42.0027 492.301 42.2 491.779 42.2 491.128C42.2 490.467 42.0027 489.955 41.608 489.592C41.224 489.229 40.632 489.048 39.832 489.048H37.688V493.272ZM53.9664 494.28C53.9664 494.557 53.9504 494.851 53.9184 495.16H46.9104C46.9637 496.024 47.257 496.701 47.7904 497.192C48.3344 497.672 48.9904 497.912 49.7584 497.912C50.3877 497.912 50.9104 497.768 51.3264 497.48C51.753 497.181 52.0517 496.787 52.2224 496.296H53.7904C53.5557 497.139 53.0864 497.827 52.3824 498.36C51.6784 498.883 50.8037 499.144 49.7584 499.144C48.9264 499.144 48.1797 498.957 47.5184 498.584C46.8677 498.211 46.3557 497.683 45.9824 497C45.609 496.307 45.4224 495.507 45.4224 494.6C45.4224 493.693 45.6037 492.899 45.9664 492.216C46.329 491.533 46.8357 491.011 47.4864 490.648C48.1477 490.275 48.905 490.088 49.7584 490.088C50.5904 490.088 51.3264 490.269 51.9664 490.632C52.6064 490.995 53.097 491.496 53.4384 492.136C53.7904 492.765 53.9664 493.48 53.9664 494.28ZM52.4624 493.976C52.4624 493.421 52.3397 492.947 52.0944 492.552C51.849 492.147 51.513 491.843 51.0864 491.64C50.6704 491.427 50.2064 491.32 49.6944 491.32C48.9584 491.32 48.329 491.555 47.8064 492.024C47.2944 492.493 47.001 493.144 46.9264 493.976H52.4624ZM66.4323 490.072C67.1149 490.072 67.7229 490.216 68.2563 490.504C68.7896 490.781 69.2109 491.203 69.5203 491.768C69.8296 492.333 69.9843 493.021 69.9843 493.832V499H68.5443V494.04C68.5443 493.165 68.3256 492.499 67.8883 492.04C67.4616 491.571 66.8803 491.336 66.1443 491.336C65.3869 491.336 64.7843 491.581 64.3363 492.072C63.8883 492.552 63.6643 493.251 63.6643 494.168V499H62.2243V494.04C62.2243 493.165 62.0056 492.499 61.5683 492.04C61.1416 491.571 60.5603 491.336 59.8243 491.336C59.0669 491.336 58.4643 491.581 58.0163 492.072C57.5683 492.552 57.3443 493.251 57.3443 494.168V499H55.8883V490.232H57.3443V491.496C57.6323 491.037 58.0163 490.685 58.4963 490.44C58.9869 490.195 59.5256 490.072 60.1123 490.072C60.8483 490.072 61.4989 490.237 62.0643 490.568C62.6296 490.899 63.0509 491.384 63.3283 492.024C63.5736 491.405 63.9789 490.925 64.5443 490.584C65.1096 490.243 65.7389 490.072 66.4323 490.072ZM73.1246 488.808C72.8473 488.808 72.6126 488.712 72.4206 488.52C72.2286 488.328 72.1326 488.093 72.1326 487.816C72.1326 487.539 72.2286 487.304 72.4206 487.112C72.6126 486.92 72.8473 486.824 73.1246 486.824C73.3913 486.824 73.6153 486.92 73.7966 487.112C73.9886 487.304 74.0846 487.539 74.0846 487.816C74.0846 488.093 73.9886 488.328 73.7966 488.52C73.6153 488.712 73.3913 488.808 73.1246 488.808ZM73.8286 490.232V499H72.3726V490.232H73.8286ZM80.5821 490.072C81.6488 490.072 82.5128 490.397 83.1741 491.048C83.8355 491.688 84.1661 492.616 84.1661 493.832V499H82.7261V494.04C82.7261 493.165 82.5075 492.499 82.0701 492.04C81.6328 491.571 81.0355 491.336 80.2781 491.336C79.5101 491.336 78.8968 491.576 78.4381 492.056C77.9901 492.536 77.7661 493.235 77.7661 494.152V499H76.3101V490.232H77.7661V491.48C78.0541 491.032 78.4435 490.685 78.9341 490.44C79.4355 490.195 79.9848 490.072 80.5821 490.072ZM86.0005 494.584C86.0005 493.688 86.1818 492.904 86.5445 492.232C86.9072 491.549 87.4032 491.021 88.0325 490.648C88.6725 490.275 89.3872 490.088 90.1765 490.088C90.8592 490.088 91.4938 490.248 92.0805 490.568C92.6672 490.877 93.1152 491.288 93.4245 491.8V487.16H94.8965V499H93.4245V497.352C93.1365 497.875 92.7098 498.307 92.1445 498.648C91.5792 498.979 90.9178 499.144 90.1605 499.144C89.3818 499.144 88.6725 498.952 88.0325 498.568C87.4032 498.184 86.9072 497.645 86.5445 496.952C86.1818 496.259 86.0005 495.469 86.0005 494.584ZM93.4245 494.6C93.4245 493.939 93.2912 493.363 93.0245 492.872C92.7578 492.381 92.3952 492.008 91.9365 491.752C91.4885 491.485 90.9925 491.352 90.4485 491.352C89.9045 491.352 89.4085 491.48 88.9605 491.736C88.5125 491.992 88.1552 492.365 87.8885 492.856C87.6218 493.347 87.4885 493.923 87.4885 494.584C87.4885 495.256 87.6218 495.843 87.8885 496.344C88.1552 496.835 88.5125 497.213 88.9605 497.48C89.4085 497.736 89.9045 497.864 90.4485 497.864C90.9925 497.864 91.4885 497.736 91.9365 497.48C92.3952 497.213 92.7578 496.835 93.0245 496.344C93.2912 495.843 93.4245 495.261 93.4245 494.6ZM105.357 494.28C105.357 494.557 105.341 494.851 105.309 495.16H98.301C98.3543 496.024 98.6477 496.701 99.181 497.192C99.725 497.672 100.381 497.912 101.149 497.912C101.778 497.912 102.301 497.768 102.717 497.48C103.144 497.181 103.442 496.787 103.613 496.296H105.181C104.946 497.139 104.477 497.827 103.773 498.36C103.069 498.883 102.194 499.144 101.149 499.144C100.317 499.144 99.5703 498.957 98.909 498.584C98.2583 498.211 97.7463 497.683 97.373 497C96.9997 496.307 96.813 495.507 96.813 494.6C96.813 493.693 96.9943 492.899 97.357 492.216C97.7197 491.533 98.2263 491.011 98.877 490.648C99.5383 490.275 100.296 490.088 101.149 490.088C101.981 490.088 102.717 490.269 103.357 490.632C103.997 490.995 104.488 491.496 104.829 492.136C105.181 492.765 105.357 493.48 105.357 494.28ZM103.853 493.976C103.853 493.421 103.73 492.947 103.485 492.552C103.24 492.147 102.904 491.843 102.477 491.64C102.061 491.427 101.597 491.32 101.085 491.32C100.349 491.32 99.7197 491.555 99.197 492.024C98.685 492.493 98.3917 493.144 98.317 493.976H103.853ZM108.735 491.656C108.991 491.155 109.354 490.765 109.823 490.488C110.303 490.211 110.884 490.072 111.567 490.072V491.576H111.183C109.551 491.576 108.735 492.461 108.735 494.232V499H107.279V490.232H108.735V491.656Z" fill="black"/>
<path d="M37.688 576.816H41.592V578H36.232V566.848H37.688V576.816ZM42.5943 573.584C42.5943 572.688 42.7756 571.904 43.1383 571.232C43.5009 570.549 43.9969 570.021 44.6263 569.648C45.2663 569.275 45.9756 569.088 46.7543 569.088C47.5223 569.088 48.1889 569.253 48.7543 569.584C49.3196 569.915 49.7409 570.331 50.0183 570.832V569.232H51.4903V578H50.0183V576.368C49.7303 576.88 49.2983 577.307 48.7223 577.648C48.1569 577.979 47.4956 578.144 46.7383 578.144C45.9596 578.144 45.2556 577.952 44.6263 577.568C43.9969 577.184 43.5009 576.645 43.1383 575.952C42.7756 575.259 42.5943 574.469 42.5943 573.584ZM50.0183 573.6C50.0183 572.939 49.8849 572.363 49.6183 571.872C49.3516 571.381 48.9889 571.008 48.5303 570.752C48.0823 570.485 47.5863 570.352 47.0423 570.352C46.4983 570.352 46.0023 570.48 45.5543 570.736C45.1063 570.992 44.7489 571.365 44.4823 571.856C44.2156 572.347 44.0823 572.923 44.0823 573.584C44.0823 574.256 44.2156 574.843 44.4823 575.344C44.7489 575.835 45.1063 576.213 45.5543 576.48C46.0023 576.736 46.4983 576.864 47.0423 576.864C47.5863 576.864 48.0823 576.736 48.5303 576.48C48.9889 576.213 49.3516 575.835 49.6183 575.344C49.8849 574.843 50.0183 574.261 50.0183 573.6ZM58.2228 569.072C59.2894 569.072 60.1534 569.397 60.8148 570.048C61.4761 570.688 61.8068 571.616 61.8068 572.832V578H60.3668V573.04C60.3668 572.165 60.1481 571.499 59.7108 571.04C59.2734 570.571 58.6761 570.336 57.9188 570.336C57.1508 570.336 56.5374 570.576 56.0788 571.056C55.6308 571.536 55.4068 572.235 55.4068 573.152V578H53.9508V569.232H55.4068V570.48C55.6948 570.032 56.0841 569.685 56.5748 569.44C57.0761 569.195 57.6254 569.072 58.2228 569.072ZM67.8011 569.088C68.5585 569.088 69.2198 569.253 69.7851 569.584C70.3611 569.915 70.7878 570.331 71.0651 570.832V569.232H72.5371V578.192C72.5371 578.992 72.3665 579.701 72.0251 580.32C71.6838 580.949 71.1931 581.44 70.5531 581.792C69.9238 582.144 69.1878 582.32 68.3451 582.32C67.1931 582.32 66.2331 582.048 65.4651 581.504C64.6971 580.96 64.2438 580.219 64.1051 579.28H65.5451C65.7051 579.813 66.0358 580.24 66.5371 580.56C67.0385 580.891 67.6411 581.056 68.3451 581.056C69.1451 581.056 69.7958 580.805 70.2971 580.304C70.8091 579.803 71.0651 579.099 71.0651 578.192V576.352C70.7771 576.864 70.3505 577.291 69.7851 577.632C69.2198 577.973 68.5585 578.144 67.8011 578.144C67.0225 578.144 66.3131 577.952 65.6731 577.568C65.0438 577.184 64.5478 576.645 64.1851 575.952C63.8225 575.259 63.6411 574.469 63.6411 573.584C63.6411 572.688 63.8225 571.904 64.1851 571.232C64.5478 570.549 65.0438 570.021 65.6731 569.648C66.3131 569.275 67.0225 569.088 67.8011 569.088ZM71.0651 573.6C71.0651 572.939 70.9318 572.363 70.6651 571.872C70.3985 571.381 70.0358 571.008 69.5771 570.752C69.1291 570.485 68.6331 570.352 68.0891 570.352C67.5451 570.352 67.0491 570.48 66.6011 570.736C66.1531 570.992 65.7958 571.365 65.5291 571.856C65.2625 572.347 65.1291 572.923 65.1291 573.584C65.1291 574.256 65.2625 574.843 65.5291 575.344C65.7958 575.835 66.1531 576.213 66.6011 576.48C67.0491 576.736 67.5451 576.864 68.0891 576.864C68.6331 576.864 69.1291 576.736 69.5771 576.48C70.0358 576.213 70.3985 575.835 70.6651 575.344C70.9318 574.843 71.0651 574.261 71.0651 573.6ZM82.7736 569.232V578H81.3176V576.704C81.0403 577.152 80.651 577.504 80.1496 577.76C79.659 578.005 79.115 578.128 78.5176 578.128C77.835 578.128 77.2216 577.989 76.6776 577.712C76.1336 577.424 75.7016 576.997 75.3816 576.432C75.0723 575.867 74.9176 575.179 74.9176 574.368V569.232H76.3576V574.176C76.3576 575.04 76.5763 575.707 77.0136 576.176C77.451 576.635 78.0483 576.864 78.8056 576.864C79.5843 576.864 80.1976 576.624 80.6456 576.144C81.0936 575.664 81.3176 574.965 81.3176 574.048V569.232H82.7736ZM84.688 573.584C84.688 572.688 84.8693 571.904 85.232 571.232C85.5947 570.549 86.0907 570.021 86.72 569.648C87.36 569.275 88.0693 569.088 88.848 569.088C89.616 569.088 90.2827 569.253 90.848 569.584C91.4133 569.915 91.8347 570.331 92.112 570.832V569.232H93.584V578H92.112V576.368C91.824 576.88 91.392 577.307 90.816 577.648C90.2507 577.979 89.5893 578.144 88.832 578.144C88.0533 578.144 87.3493 577.952 86.72 577.568C86.0907 577.184 85.5947 576.645 85.232 575.952C84.8693 575.259 84.688 574.469 84.688 573.584ZM92.112 573.6C92.112 572.939 91.9787 572.363 91.712 571.872C91.4453 571.381 91.0827 571.008 90.624 570.752C90.176 570.485 89.68 570.352 89.136 570.352C88.592 570.352 88.096 570.48 87.648 570.736C87.2 570.992 86.8427 571.365 86.576 571.856C86.3093 572.347 86.176 572.923 86.176 573.584C86.176 574.256 86.3093 574.843 86.576 575.344C86.8427 575.835 87.2 576.213 87.648 576.48C88.096 576.736 88.592 576.864 89.136 576.864C89.68 576.864 90.176 576.736 90.624 576.48C91.0827 576.213 91.4453 575.835 91.712 575.344C91.9787 574.843 92.112 574.261 92.112 573.6ZM99.6605 569.088C100.418 569.088 101.079 569.253 101.645 569.584C102.221 569.915 102.647 570.331 102.925 570.832V569.232H104.397V578.192C104.397 578.992 104.226 579.701 103.885 580.32C103.543 580.949 103.053 581.44 102.413 581.792C101.783 582.144 101.047 582.32 100.205 582.32C99.0525 582.32 98.0925 582.048 97.3245 581.504C96.5565 580.96 96.1032 580.219 95.9645 579.28H97.4045C97.5645 579.813 97.8952 580.24 98.3965 580.56C98.8978 580.891 99.5005 581.056 100.205 581.056C101.005 581.056 101.655 580.805 102.157 580.304C102.669 579.803 102.925 579.099 102.925 578.192V576.352C102.637 576.864 102.21 577.291 101.645 577.632C101.079 577.973 100.418 578.144 99.6605 578.144C98.8818 578.144 98.1725 577.952 97.5325 577.568C96.9032 577.184 96.4072 576.645 96.0445 575.952C95.6818 575.259 95.5005 574.469 95.5005 573.584C95.5005 572.688 95.6818 571.904 96.0445 571.232C96.4072 570.549 96.9032 570.021 97.5325 569.648C98.1725 569.275 98.8818 569.088 99.6605 569.088ZM102.925 573.6C102.925 572.939 102.791 572.363 102.525 571.872C102.258 571.381 101.895 571.008 101.437 570.752C100.989 570.485 100.493 570.352 99.9485 570.352C99.4045 570.352 98.9085 570.48 98.4605 570.736C98.0125 570.992 97.6552 571.365 97.3885 571.856C97.1218 572.347 96.9885 572.923 96.9885 573.584C96.9885 574.256 97.1218 574.843 97.3885 575.344C97.6552 575.835 98.0125 576.213 98.4605 576.48C98.9085 576.736 99.4045 576.864 99.9485 576.864C100.493 576.864 100.989 576.736 101.437 576.48C101.895 576.213 102.258 575.835 102.525 575.344C102.791 574.843 102.925 574.261 102.925 573.6ZM114.857 573.28C114.857 573.557 114.841 573.851 114.809 574.16H107.801C107.854 575.024 108.148 575.701 108.681 576.192C109.225 576.672 109.881 576.912 110.649 576.912C111.278 576.912 111.801 576.768 112.217 576.48C112.644 576.181 112.942 575.787 113.113 575.296H114.681C114.446 576.139 113.977 576.827 113.273 577.36C112.569 577.883 111.694 578.144 110.649 578.144C109.817 578.144 109.07 577.957 108.409 577.584C107.758 577.211 107.246 576.683 106.873 576C106.5 575.307 106.313 574.507 106.313 573.6C106.313 572.693 106.494 571.899 106.857 571.216C107.22 570.533 107.726 570.011 108.377 569.648C109.038 569.275 109.796 569.088 110.649 569.088C111.481 569.088 112.217 569.269 112.857 569.632C113.497 569.995 113.988 570.496 114.329 571.136C114.681 571.765 114.857 572.48 114.857 573.28ZM113.353 572.976C113.353 572.421 113.23 571.947 112.985 571.552C112.74 571.147 112.404 570.843 111.977 570.64C111.561 570.427 111.097 570.32 110.585 570.32C109.849 570.32 109.22 570.555 108.697 571.024C108.185 571.493 107.892 572.144 107.817 572.976H113.353Z" fill="black"/>
<path d="M45 657H43.544L37.688 648.12V657H36.232V645.832H37.688L43.544 654.696V645.832H45V657ZM51.306 657.144C50.4847 657.144 49.738 656.957 49.066 656.584C48.4047 656.211 47.882 655.683 47.498 655C47.1247 654.307 46.938 653.507 46.938 652.6C46.938 651.704 47.13 650.915 47.514 650.232C47.9087 649.539 48.442 649.011 49.114 648.648C49.786 648.275 50.538 648.088 51.37 648.088C52.202 648.088 52.954 648.275 53.626 648.648C54.298 649.011 54.826 649.533 55.21 650.216C55.6047 650.899 55.802 651.693 55.802 652.6C55.802 653.507 55.5993 654.307 55.194 655C54.7993 655.683 54.2607 656.211 53.578 656.584C52.8953 656.957 52.138 657.144 51.306 657.144ZM51.306 655.864C51.8287 655.864 52.3193 655.741 52.778 655.496C53.2367 655.251 53.6047 654.883 53.882 654.392C54.17 653.901 54.314 653.304 54.314 652.6C54.314 651.896 54.1753 651.299 53.898 650.808C53.6207 650.317 53.258 649.955 52.81 649.72C52.362 649.475 51.8767 649.352 51.354 649.352C50.8207 649.352 50.33 649.475 49.882 649.72C49.4447 649.955 49.0927 650.317 48.826 650.808C48.5593 651.299 48.426 651.896 48.426 652.6C48.426 653.315 48.554 653.917 48.81 654.408C49.0767 654.899 49.4287 655.267 49.866 655.512C50.3033 655.747 50.7833 655.864 51.306 655.864ZM59.4924 649.432V654.6C59.4924 655.027 59.583 655.331 59.7644 655.512C59.9457 655.683 60.2604 655.768 60.7084 655.768H61.7804V657H60.4684C59.6577 657 59.0497 656.813 58.6444 656.44C58.239 656.067 58.0364 655.453 58.0364 654.6V649.432H56.9004V648.232H58.0364V646.024H59.4924V648.232H61.7804V649.432H59.4924ZM64.2965 646.808C64.0192 646.808 63.7845 646.712 63.5925 646.52C63.4005 646.328 63.3045 646.093 63.3045 645.816C63.3045 645.539 63.4005 645.304 63.5925 645.112C63.7845 644.92 64.0192 644.824 64.2965 644.824C64.5632 644.824 64.7872 644.92 64.9685 645.112C65.1605 645.304 65.2565 645.539 65.2565 645.816C65.2565 646.093 65.1605 646.328 64.9685 646.52C64.7872 646.712 64.5632 646.808 64.2965 646.808ZM65.0005 648.232V657H63.5445V648.232H65.0005ZM71.05 649.432H69.21V657H67.754V649.432H66.618V648.232H67.754V647.608C67.754 646.627 68.0047 645.912 68.506 645.464C69.018 645.005 69.834 644.776 70.954 644.776V645.992C70.314 645.992 69.8607 646.12 69.594 646.376C69.338 646.621 69.21 647.032 69.21 647.608V648.232H71.05V649.432ZM73.4996 646.808C73.2223 646.808 72.9876 646.712 72.7956 646.52C72.6036 646.328 72.5076 646.093 72.5076 645.816C72.5076 645.539 72.6036 645.304 72.7956 645.112C72.9876 644.92 73.2223 644.824 73.4996 644.824C73.7663 644.824 73.9903 644.92 74.1716 645.112C74.3636 645.304 74.4596 645.539 74.4596 645.816C74.4596 646.093 74.3636 646.328 74.1716 646.52C73.9903 646.712 73.7663 646.808 73.4996 646.808ZM74.2036 648.232V657H72.7476V648.232H74.2036ZM76.1411 652.6C76.1411 651.693 76.3225 650.904 76.6851 650.232C77.0478 649.549 77.5491 649.021 78.1891 648.648C78.8398 648.275 79.5811 648.088 80.4131 648.088C81.4905 648.088 82.3758 648.349 83.0691 648.872C83.7731 649.395 84.2371 650.12 84.4611 651.048H82.8931C82.7438 650.515 82.4505 650.093 82.0131 649.784C81.5865 649.475 81.0531 649.32 80.4131 649.32C79.5811 649.32 78.9091 649.608 78.3971 650.184C77.8851 650.749 77.6291 651.555 77.6291 652.6C77.6291 653.656 77.8851 654.472 78.3971 655.048C78.9091 655.624 79.5811 655.912 80.4131 655.912C81.0531 655.912 81.5865 655.763 82.0131 655.464C82.4398 655.165 82.7331 654.739 82.8931 654.184H84.4611C84.2265 655.08 83.7571 655.8 83.0531 656.344C82.3491 656.877 81.4691 657.144 80.4131 657.144C79.5811 657.144 78.8398 656.957 78.1891 656.584C77.5491 656.211 77.0478 655.683 76.6851 655C76.3225 654.317 76.1411 653.517 76.1411 652.6ZM85.8599 652.584C85.8599 651.688 86.0412 650.904 86.4039 650.232C86.7665 649.549 87.2625 649.021 87.8919 648.648C88.5319 648.275 89.2412 648.088 90.0199 648.088C90.7879 648.088 91.4545 648.253 92.0199 648.584C92.5852 648.915 93.0065 649.331 93.2839 649.832V648.232H94.7559V657H93.2839V655.368C92.9959 655.88 92.5639 656.307 91.9879 656.648C91.4225 656.979 90.7612 657.144 90.0039 657.144C89.2252 657.144 88.5212 656.952 87.8919 656.568C87.2625 656.184 86.7665 655.645 86.4039 654.952C86.0412 654.259 85.8599 653.469 85.8599 652.584ZM93.2839 652.6C93.2839 651.939 93.1505 651.363 92.8839 650.872C92.6172 650.381 92.2545 650.008 91.7959 649.752C91.3479 649.485 90.8519 649.352 90.3079 649.352C89.7639 649.352 89.2679 649.48 88.8199 649.736C88.3719 649.992 88.0145 650.365 87.7479 650.856C87.4812 651.347 87.3479 651.923 87.3479 652.584C87.3479 653.256 87.4812 653.843 87.7479 654.344C88.0145 654.835 88.3719 655.213 88.8199 655.48C89.2679 655.736 89.7639 655.864 90.3079 655.864C90.8519 655.864 91.3479 655.736 91.7959 655.48C92.2545 655.213 92.6172 654.835 92.8839 654.344C93.1505 653.843 93.2839 653.261 93.2839 652.6ZM98.9924 649.432V654.6C98.9924 655.027 99.083 655.331 99.2644 655.512C99.4457 655.683 99.7604 655.768 100.208 655.768H101.28V657H99.9684C99.1577 657 98.5497 656.813 98.1444 656.44C97.739 656.067 97.5364 655.453 97.5364 654.6V649.432H96.4004V648.232H97.5364V646.024H98.9924V648.232H101.28V649.432H98.9924ZM103.797 646.808C103.519 646.808 103.285 646.712 103.093 646.52C102.901 646.328 102.805 646.093 102.805 645.816C102.805 645.539 102.901 645.304 103.093 645.112C103.285 644.92 103.519 644.824 103.797 644.824C104.063 644.824 104.287 644.92 104.469 645.112C104.661 645.304 104.757 645.539 104.757 645.816C104.757 646.093 104.661 646.328 104.469 646.52C104.287 646.712 104.063 646.808 103.797 646.808ZM104.501 648.232V657H103.045V648.232H104.501ZM110.806 657.144C109.985 657.144 109.238 656.957 108.566 656.584C107.905 656.211 107.382 655.683 106.998 655C106.625 654.307 106.438 653.507 106.438 652.6C106.438 651.704 106.63 650.915 107.014 650.232C107.409 649.539 107.942 649.011 108.614 648.648C109.286 648.275 110.038 648.088 110.87 648.088C111.702 648.088 112.454 648.275 113.126 648.648C113.798 649.011 114.326 649.533 114.71 650.216C115.105 650.899 115.302 651.693 115.302 652.6C115.302 653.507 115.099 654.307 114.694 655C114.299 655.683 113.761 656.211 113.078 656.584C112.395 656.957 111.638 657.144 110.806 657.144ZM110.806 655.864C111.329 655.864 111.819 655.741 112.278 655.496C112.737 655.251 113.105 654.883 113.382 654.392C113.67 653.901 113.814 653.304 113.814 652.6C113.814 651.896 113.675 651.299 113.398 650.808C113.121 650.317 112.758 649.955 112.31 649.72C111.862 649.475 111.377 649.352 110.854 649.352C110.321 649.352 109.83 649.475 109.382 649.72C108.945 649.955 108.593 650.317 108.326 650.808C108.059 651.299 107.926 651.896 107.926 652.6C107.926 653.315 108.054 653.917 108.31 654.408C108.577 654.899 108.929 655.267 109.366 655.512C109.803 655.747 110.283 655.864 110.806 655.864ZM121.488 648.072C122.555 648.072 123.419 648.397 124.08 649.048C124.742 649.688 125.072 650.616 125.072 651.832V657H123.632V652.04C123.632 651.165 123.414 650.499 122.976 650.04C122.539 649.571 121.942 649.336 121.184 649.336C120.416 649.336 119.803 649.576 119.344 650.056C118.896 650.536 118.672 651.235 118.672 652.152V657H117.216V648.232H118.672V649.48C118.96 649.032 119.35 648.685 119.84 648.44C120.342 648.195 120.891 648.072 121.488 648.072ZM130.555 657.144C129.883 657.144 129.28 657.032 128.747 656.808C128.213 656.573 127.792 656.253 127.483 655.848C127.173 655.432 127.003 654.957 126.971 654.424H128.475C128.517 654.861 128.72 655.219 129.083 655.496C129.456 655.773 129.941 655.912 130.539 655.912C131.093 655.912 131.531 655.789 131.851 655.544C132.171 655.299 132.331 654.989 132.331 654.616C132.331 654.232 132.16 653.949 131.819 653.768C131.477 653.576 130.949 653.389 130.235 653.208C129.584 653.037 129.051 652.867 128.635 652.696C128.229 652.515 127.877 652.253 127.579 651.912C127.291 651.56 127.147 651.101 127.147 650.536C127.147 650.088 127.28 649.677 127.547 649.304C127.813 648.931 128.192 648.637 128.683 648.424C129.173 648.2 129.733 648.088 130.363 648.088C131.333 648.088 132.117 648.333 132.715 648.824C133.312 649.315 133.632 649.987 133.675 650.84H132.219C132.187 650.381 132 650.013 131.659 649.736C131.328 649.459 130.88 649.32 130.315 649.32C129.792 649.32 129.376 649.432 129.067 649.656C128.757 649.88 128.603 650.173 128.603 650.536C128.603 650.824 128.693 651.064 128.875 651.256C129.067 651.437 129.301 651.587 129.579 651.704C129.867 651.811 130.261 651.933 130.763 652.072C131.392 652.243 131.904 652.413 132.299 652.584C132.693 652.744 133.029 652.989 133.307 653.32C133.595 653.651 133.744 654.083 133.755 654.616C133.755 655.096 133.621 655.528 133.355 655.912C133.088 656.296 132.709 656.6 132.219 656.824C131.739 657.037 131.184 657.144 130.555 657.144Z" fill="black"/>
<path d="M165.016 259.808C164.739 259.808 164.504 259.712 164.312 259.52C164.131 259.328 164.04 259.093 164.04 258.816C164.04 258.539 164.131 258.304 164.312 258.112C164.504 257.92 164.739 257.824 165.016 257.824C165.293 257.824 165.523 257.92 165.704 258.112C165.896 258.304 165.992 258.539 165.992 258.816C165.992 259.093 165.896 259.328 165.704 259.52C165.523 259.712 165.293 259.808 165.016 259.808ZM165.736 271.904C165.736 272.683 165.539 273.253 165.144 273.616C164.749 273.979 164.173 274.16 163.416 274.16H162.568V272.928H163.176C163.581 272.928 163.864 272.848 164.024 272.688C164.195 272.528 164.28 272.256 164.28 271.872V261.232H165.736V271.904ZM175.977 261.232V270H174.521V268.704C174.243 269.152 173.854 269.504 173.353 269.76C172.862 270.005 172.318 270.128 171.721 270.128C171.038 270.128 170.425 269.989 169.881 269.712C169.337 269.424 168.905 268.997 168.585 268.432C168.275 267.867 168.121 267.179 168.121 266.368V261.232H169.561V266.176C169.561 267.04 169.779 267.707 170.217 268.176C170.654 268.635 171.251 268.864 172.009 268.864C172.787 268.864 173.401 268.624 173.849 268.144C174.297 267.664 174.521 266.965 174.521 266.048V261.232H175.977ZM179.891 258.16V270H178.435V258.16H179.891ZM183.125 259.808C182.847 259.808 182.613 259.712 182.421 259.52C182.229 259.328 182.133 259.093 182.133 258.816C182.133 258.539 182.229 258.304 182.421 258.112C182.613 257.92 182.847 257.824 183.125 257.824C183.391 257.824 183.615 257.92 183.797 258.112C183.989 258.304 184.085 258.539 184.085 258.816C184.085 259.093 183.989 259.328 183.797 259.52C183.615 259.712 183.391 259.808 183.125 259.808ZM183.829 261.232V270H182.373V261.232H183.829ZM185.766 265.584C185.766 264.688 185.947 263.904 186.31 263.232C186.673 262.549 187.169 262.021 187.798 261.648C188.438 261.275 189.147 261.088 189.926 261.088C190.694 261.088 191.361 261.253 191.926 261.584C192.491 261.915 192.913 262.331 193.19 262.832V261.232H194.662V270H193.19V268.368C192.902 268.88 192.47 269.307 191.894 269.648C191.329 269.979 190.667 270.144 189.91 270.144C189.131 270.144 188.427 269.952 187.798 269.568C187.169 269.184 186.673 268.645 186.31 267.952C185.947 267.259 185.766 266.469 185.766 265.584ZM193.19 265.6C193.19 264.939 193.057 264.363 192.79 263.872C192.523 263.381 192.161 263.008 191.702 262.752C191.254 262.485 190.758 262.352 190.214 262.352C189.67 262.352 189.174 262.48 188.726 262.736C188.278 262.992 187.921 263.365 187.654 263.856C187.387 264.347 187.254 264.923 187.254 265.584C187.254 266.256 187.387 266.843 187.654 267.344C187.921 267.835 188.278 268.213 188.726 268.48C189.174 268.736 189.67 268.864 190.214 268.864C190.758 268.864 191.254 268.736 191.702 268.48C192.161 268.213 192.523 267.835 192.79 267.344C193.057 266.843 193.19 266.261 193.19 265.6ZM201.395 261.072C202.461 261.072 203.325 261.397 203.987 262.048C204.648 262.688 204.979 263.616 204.979 264.832V270H203.539V265.04C203.539 264.165 203.32 263.499 202.883 263.04C202.445 262.571 201.848 262.336 201.091 262.336C200.323 262.336 199.709 262.576 199.251 263.056C198.803 263.536 198.579 264.235 198.579 265.152V270H197.123V261.232H198.579V262.48C198.867 262.032 199.256 261.685 199.747 261.44C200.248 261.195 200.797 261.072 201.395 261.072ZM206.813 265.584C206.813 264.688 206.994 263.904 207.357 263.232C207.72 262.549 208.216 262.021 208.845 261.648C209.485 261.275 210.194 261.088 210.973 261.088C211.741 261.088 212.408 261.253 212.973 261.584C213.538 261.915 213.96 262.331 214.237 262.832V261.232H215.709V270H214.237V268.368C213.949 268.88 213.517 269.307 212.941 269.648C212.376 269.979 211.714 270.144 210.957 270.144C210.178 270.144 209.474 269.952 208.845 269.568C208.216 269.184 207.72 268.645 207.357 267.952C206.994 267.259 206.813 266.469 206.813 265.584ZM214.237 265.6C214.237 264.939 214.104 264.363 213.837 263.872C213.57 263.381 213.208 263.008 212.749 262.752C212.301 262.485 211.805 262.352 211.261 262.352C210.717 262.352 210.221 262.48 209.773 262.736C209.325 262.992 208.968 263.365 208.701 263.856C208.434 264.347 208.301 264.923 208.301 265.584C208.301 266.256 208.434 266.843 208.701 267.344C208.968 267.835 209.325 268.213 209.773 268.48C210.221 268.736 210.717 268.864 211.261 268.864C211.805 268.864 212.301 268.736 212.749 268.48C213.208 268.213 213.57 267.835 213.837 267.344C214.104 266.843 214.237 266.261 214.237 265.6ZM226.17 259.744C227.354 259.744 228.383 259.968 229.258 260.416C230.132 260.864 230.804 261.493 231.274 262.304C231.743 263.104 231.978 264.032 231.978 265.088C231.978 265.931 231.839 266.741 231.562 267.52C231.284 268.288 230.879 268.912 230.346 269.392C229.823 269.872 229.21 270.112 228.506 270.112C227.972 270.112 227.562 269.979 227.274 269.712C226.986 269.445 226.82 269.083 226.778 268.624C226.447 269.083 226.026 269.445 225.514 269.712C225.012 269.979 224.479 270.112 223.914 270.112C223.103 270.112 222.463 269.867 221.994 269.376C221.535 268.875 221.306 268.203 221.306 267.36C221.306 266.56 221.471 265.813 221.802 265.12C222.143 264.427 222.612 263.872 223.21 263.456C223.807 263.029 224.484 262.816 225.242 262.816C226.255 262.816 226.938 263.2 227.29 263.968L227.466 262.976H228.73L227.93 267.6C227.898 267.803 227.882 267.989 227.882 268.16C227.882 268.8 228.164 269.12 228.73 269.12C229.156 269.12 229.524 268.917 229.834 268.512C230.154 268.107 230.394 267.6 230.554 266.992C230.714 266.373 230.794 265.765 230.794 265.168C230.794 263.771 230.372 262.688 229.53 261.92C228.698 261.152 227.519 260.768 225.994 260.768C224.724 260.768 223.578 261.077 222.554 261.696C221.54 262.304 220.746 263.141 220.17 264.208C219.594 265.275 219.306 266.453 219.306 267.744C219.295 269.152 219.716 270.235 220.57 270.992C221.423 271.76 222.607 272.144 224.122 272.144C225.124 272.144 226.01 271.963 226.778 271.6L226.97 272.592C226.02 272.987 224.975 273.184 223.834 273.184C222.692 273.184 221.684 272.965 220.81 272.528C219.946 272.101 219.274 271.483 218.794 270.672C218.324 269.872 218.09 268.939 218.09 267.872C218.09 266.368 218.436 264.997 219.13 263.76C219.823 262.512 220.783 261.531 222.01 260.816C223.247 260.101 224.634 259.744 226.17 259.744ZM224.346 268.976C224.826 268.976 225.268 268.837 225.674 268.56C226.079 268.272 226.399 267.888 226.634 267.408C226.868 266.917 226.986 266.384 226.986 265.808C226.986 265.253 226.831 264.805 226.522 264.464C226.223 264.112 225.796 263.936 225.242 263.936C224.73 263.936 224.276 264.091 223.882 264.4C223.498 264.699 223.199 265.099 222.986 265.6C222.772 266.091 222.666 266.603 222.666 267.136C222.666 267.701 222.81 268.149 223.098 268.48C223.386 268.811 223.802 268.976 224.346 268.976ZM238.949 270L236.869 266.736L234.869 270H233.349L236.181 265.648L233.349 261.232H234.997L237.077 264.48L239.061 261.232H240.581L237.765 265.568L240.597 270H238.949ZM249.581 261.232L244.301 274.128H242.797L244.525 269.904L240.989 261.232H242.605L245.357 268.336L248.077 261.232H249.581ZM252.133 268.8H256.437V270H250.469V268.8L254.725 262.416H250.501V261.232H256.405V262.416L252.133 268.8ZM258.79 270.096C258.512 270.096 258.278 270 258.086 269.808C257.894 269.616 257.798 269.381 257.798 269.104C257.798 268.827 257.894 268.592 258.086 268.4C258.278 268.208 258.512 268.112 258.79 268.112C259.056 268.112 259.28 268.208 259.462 268.4C259.654 268.592 259.75 268.827 259.75 269.104C259.75 269.381 259.654 269.616 259.462 269.808C259.28 270 259.056 270.096 258.79 270.096ZM261.141 265.6C261.141 264.693 261.322 263.904 261.685 263.232C262.048 262.549 262.549 262.021 263.189 261.648C263.84 261.275 264.581 261.088 265.413 261.088C266.49 261.088 267.376 261.349 268.069 261.872C268.773 262.395 269.237 263.12 269.461 264.048H267.893C267.744 263.515 267.45 263.093 267.013 262.784C266.586 262.475 266.053 262.32 265.413 262.32C264.581 262.32 263.909 262.608 263.397 263.184C262.885 263.749 262.629 264.555 262.629 265.6C262.629 266.656 262.885 267.472 263.397 268.048C263.909 268.624 264.581 268.912 265.413 268.912C266.053 268.912 266.586 268.763 267.013 268.464C267.44 268.165 267.733 267.739 267.893 267.184H269.461C269.226 268.08 268.757 268.8 268.053 269.344C267.349 269.877 266.469 270.144 265.413 270.144C264.581 270.144 263.84 269.957 263.189 269.584C262.549 269.211 262.048 268.683 261.685 268C261.322 267.317 261.141 266.517 261.141 265.6ZM275.228 270.144C274.407 270.144 273.66 269.957 272.988 269.584C272.327 269.211 271.804 268.683 271.42 268C271.047 267.307 270.86 266.507 270.86 265.6C270.86 264.704 271.052 263.915 271.436 263.232C271.831 262.539 272.364 262.011 273.036 261.648C273.708 261.275 274.46 261.088 275.292 261.088C276.124 261.088 276.876 261.275 277.548 261.648C278.22 262.011 278.748 262.533 279.132 263.216C279.527 263.899 279.724 264.693 279.724 265.6C279.724 266.507 279.521 267.307 279.116 268C278.721 268.683 278.183 269.211 277.5 269.584C276.817 269.957 276.06 270.144 275.228 270.144ZM275.228 268.864C275.751 268.864 276.241 268.741 276.7 268.496C277.159 268.251 277.527 267.883 277.804 267.392C278.092 266.901 278.236 266.304 278.236 265.6C278.236 264.896 278.097 264.299 277.82 263.808C277.543 263.317 277.18 262.955 276.732 262.72C276.284 262.475 275.799 262.352 275.276 262.352C274.743 262.352 274.252 262.475 273.804 262.72C273.367 262.955 273.015 263.317 272.748 263.808C272.481 264.299 272.348 264.896 272.348 265.6C272.348 266.315 272.476 266.917 272.732 267.408C272.999 267.899 273.351 268.267 273.788 268.512C274.225 268.747 274.705 268.864 275.228 268.864ZM292.182 261.072C292.865 261.072 293.473 261.216 294.006 261.504C294.54 261.781 294.961 262.203 295.27 262.768C295.58 263.333 295.734 264.021 295.734 264.832V270H294.294V265.04C294.294 264.165 294.076 263.499 293.638 263.04C293.212 262.571 292.63 262.336 291.894 262.336C291.137 262.336 290.534 262.581 290.086 263.072C289.638 263.552 289.414 264.251 289.414 265.168V270H287.974V265.04C287.974 264.165 287.756 263.499 287.318 263.04C286.892 262.571 286.31 262.336 285.574 262.336C284.817 262.336 284.214 262.581 283.766 263.072C283.318 263.552 283.094 264.251 283.094 265.168V270H281.638V261.232H283.094V262.496C283.382 262.037 283.766 261.685 284.246 261.44C284.737 261.195 285.276 261.072 285.862 261.072C286.598 261.072 287.249 261.237 287.814 261.568C288.38 261.899 288.801 262.384 289.078 263.024C289.324 262.405 289.729 261.925 290.294 261.584C290.86 261.243 291.489 261.072 292.182 261.072Z" fill="#050505"/>
<path d="M35 374L393 374" stroke="black" stroke-width="0.5"/>
<path d="M35 690L393 690" stroke="black" stroke-width="0.5"/>
<path d="M35 611L393 611" stroke="black" stroke-width="0.5"/>
<path d="M35 532L393 532" stroke="black" stroke-width="0.5"/>
<path d="M35 453H393" stroke="black" stroke-width="0.5"/>
<rect x="334.5" y="398.5" width="59" height="31" rx="15.5" stroke="#C4C4C4"/>
<rect x="335.5" y="398.5" width="30" height="31" rx="15" fill="#C4C4C4" stroke="#C4C4C4"/>
<rect x="334.5" y="635.5" width="59" height="31" rx="15.5" stroke="#417505"/>
<rect x="362" y="635" width="31" height="32" rx="15.5" fill="#4B7561"/>
<rect x="334.5" y="477.5" width="59" height="31" rx="15.5" stroke="#417505"/>
<rect x="362" y="477" width="31" height="32" rx="15.5" fill="#4B7561"/>
<path d="M189.025 84.8C189.025 85.6833 188.817 86.5167 188.4 87.3C187.983 88.0833 187.317 88.725 186.4 89.225C185.483 89.7083 184.308 89.95 182.875 89.95H179.725V97H176.875V79.625H182.875C184.208 79.625 185.333 79.8583 186.25 80.325C187.183 80.775 187.875 81.3917 188.325 82.175C188.792 82.9583 189.025 83.8333 189.025 84.8ZM182.875 87.625C183.958 87.625 184.767 87.3833 185.3 86.9C185.833 86.4 186.1 85.7 186.1 84.8C186.1 82.9 185.025 81.95 182.875 81.95H179.725V87.625H182.875ZM194.593 85.225C195.01 84.525 195.56 83.9833 196.243 83.6C196.943 83.2 197.768 83 198.718 83V85.95H197.993C196.876 85.95 196.026 86.2333 195.443 86.8C194.876 87.3667 194.593 88.35 194.593 89.75V97H191.743V83.225H194.593V85.225ZM207.313 97.225C206.013 97.225 204.838 96.9333 203.788 96.35C202.738 95.75 201.913 94.9167 201.313 93.85C200.713 92.7667 200.413 91.5167 200.413 90.1C200.413 88.7 200.721 87.4583 201.338 86.375C201.955 85.2917 202.796 84.4583 203.863 83.875C204.93 83.2917 206.121 83 207.438 83C208.755 83 209.946 83.2917 211.013 83.875C212.08 84.4583 212.921 85.2917 213.538 86.375C214.155 87.4583 214.463 88.7 214.463 90.1C214.463 91.5 214.146 92.7417 213.513 93.825C212.88 94.9083 212.013 95.75 210.913 96.35C209.83 96.9333 208.63 97.225 207.313 97.225ZM207.313 94.75C208.046 94.75 208.73 94.575 209.363 94.225C210.013 93.875 210.538 93.35 210.938 92.65C211.338 91.95 211.538 91.1 211.538 90.1C211.538 89.1 211.346 88.2583 210.963 87.575C210.58 86.875 210.071 86.35 209.438 86C208.805 85.65 208.121 85.475 207.388 85.475C206.655 85.475 205.971 85.65 205.338 86C204.721 86.35 204.23 86.875 203.863 87.575C203.496 88.2583 203.313 89.1 203.313 90.1C203.313 91.5833 203.688 92.7333 204.438 93.55C205.205 94.35 206.163 94.75 207.313 94.75ZM223.055 85.55H220.505V97H217.63V85.55H216.005V83.225H217.63V82.25C217.63 80.6667 218.047 79.5167 218.88 78.8C219.73 78.0667 221.055 77.7 222.855 77.7V80.075C221.989 80.075 221.38 80.2417 221.03 80.575C220.68 80.8917 220.505 81.45 220.505 82.25V83.225H223.055V85.55ZM227.031 81.4C226.514 81.4 226.081 81.225 225.731 80.875C225.381 80.525 225.206 80.0917 225.206 79.575C225.206 79.0583 225.381 78.625 225.731 78.275C226.081 77.925 226.514 77.75 227.031 77.75C227.531 77.75 227.956 77.925 228.306 78.275C228.656 78.625 228.831 79.0583 228.831 79.575C228.831 80.0917 228.656 80.525 228.306 80.875C227.956 81.225 227.531 81.4 227.031 81.4ZM228.431 83.225V97H225.581V83.225H228.431ZM235.023 78.5V97H232.173V78.5H235.023ZM251.39 89.775C251.39 90.2917 251.356 90.7583 251.29 91.175H240.765C240.848 92.275 241.256 93.1583 241.99 93.825C242.723 94.4917 243.623 94.825 244.69 94.825C246.223 94.825 247.306 94.1833 247.94 92.9H251.015C250.598 94.1667 249.84 95.2083 248.74 96.025C247.656 96.825 246.306 97.225 244.69 97.225C243.373 97.225 242.19 96.9333 241.14 96.35C240.106 95.75 239.29 94.9167 238.69 93.85C238.106 92.7667 237.815 91.5167 237.815 90.1C237.815 88.6833 238.098 87.4417 238.665 86.375C239.248 85.2917 240.056 84.4583 241.09 83.875C242.14 83.2917 243.34 83 244.69 83C245.99 83 247.148 83.2833 248.165 83.85C249.181 84.4167 249.973 85.2167 250.54 86.25C251.106 87.2667 251.39 88.4417 251.39 89.775ZM248.415 88.875C248.398 87.825 248.023 86.9833 247.29 86.35C246.556 85.7167 245.648 85.4 244.565 85.4C243.581 85.4 242.74 85.7167 242.04 86.35C241.34 86.9667 240.923 87.8083 240.79 88.875H248.415Z" fill="black"/>
<path d="M42.1341 41.2563C44.8221 41.2563 46.4187 39.1543 46.4187 35.5947C46.4187 34.2544 46.1624 33.1265 45.6717 32.2549C44.9612 30.8999 43.7381 30.1675 42.1927 30.1675C39.8929 30.1675 38.2669 31.7129 38.2669 33.8809C38.2669 35.917 39.7317 37.3965 41.7459 37.3965C42.9837 37.3965 43.9871 36.8179 44.4852 35.8145H44.5071C44.5071 35.8145 44.5364 35.8145 44.5437 35.8145C44.5584 35.8145 44.6097 35.8145 44.6097 35.8145C44.6097 38.2314 43.6941 39.6743 42.1487 39.6743C41.2405 39.6743 40.5374 39.1763 40.2957 38.3779H38.4134C38.7283 40.1138 40.2005 41.2563 42.1341 41.2563ZM42.2 35.895C40.9842 35.895 40.1199 35.0308 40.1199 33.8223C40.1199 32.6431 41.0281 31.7422 42.2073 31.7422C43.3865 31.7422 44.2947 32.6577 44.2947 33.8516C44.2947 35.0308 43.4085 35.895 42.2 35.895ZM49.4366 39.8794C50.1324 39.8794 50.6085 39.3813 50.6085 38.7222C50.6085 38.0557 50.1324 37.5649 49.4366 37.5649C48.7481 37.5649 48.2647 38.0557 48.2647 38.7222C48.2647 39.3813 48.7481 39.8794 49.4366 39.8794ZM49.4366 34.3862C50.1324 34.3862 50.6085 33.8955 50.6085 33.2363C50.6085 32.5698 50.1324 32.0791 49.4366 32.0791C48.7481 32.0791 48.2647 32.5698 48.2647 33.2363C48.2647 33.8955 48.7481 34.3862 49.4366 34.3862ZM57.6107 41H59.4198V39.0298H60.848V37.4331H59.4198V30.4312H56.7538C54.8861 33.2437 53.3993 35.5947 52.4472 37.3452V39.0298H57.6107V41ZM54.1977 37.3672C55.4281 35.1992 56.5268 33.4634 57.5375 31.9692H57.64V37.4771H54.1977V37.3672ZM64.8767 41H66.7663V30.4312H64.884L62.1228 32.3647V34.1812L64.7521 32.3354H64.8767V41Z" fill="#040404"/>
<rect opacity="0.35" x="380.833" y="30.8335" width="21" height="10.3333" rx="2.16667" stroke="#040404"/>
<path opacity="0.4" d="M403.333 34V38C404.138 37.6612 404.661 36.8731 404.661 36C404.661 35.1269 404.138 34.3388 403.333 34Z" fill="#040404"/>
<rect x="382.333" y="32.3335" width="18" height="7.33333" rx="1.33333" fill="#040404"/>
<path fill-rule="evenodd" clip-rule="evenodd" d="M367.667 32.615C369.892 32.6151 372.031 33.4693 373.644 35.0008C373.765 35.1191 373.959 35.1176 374.079 34.9975L375.239 33.8272C375.3 33.7663 375.334 33.6837 375.333 33.5979C375.333 33.5121 375.298 33.4299 375.237 33.3697C371.005 29.3175 364.329 29.3175 360.097 33.3697C360.035 33.4299 360.001 33.512 360 33.5978C359.999 33.6837 360.033 33.7662 360.094 33.8272L361.255 34.9975C361.374 35.1178 361.568 35.1193 361.69 35.0008C363.302 33.4692 365.442 32.615 367.667 32.615ZM367.667 36.4226C368.889 36.4226 370.068 36.8765 370.974 37.6963C371.097 37.8126 371.29 37.8101 371.409 37.6906L372.569 36.5203C372.63 36.4589 372.663 36.3756 372.663 36.2891C372.662 36.2025 372.626 36.12 372.564 36.0598C369.805 33.4954 365.532 33.4954 362.773 36.0598C362.71 36.12 362.675 36.2026 362.674 36.2891C362.673 36.3757 362.707 36.459 362.768 36.5203L363.927 37.6906C364.047 37.8101 364.24 37.8126 364.362 37.6963C365.268 36.877 366.446 36.4231 367.667 36.4226ZM369.989 38.9845C369.991 39.0712 369.957 39.1549 369.895 39.2157L367.89 41.2377C367.831 41.2971 367.751 41.3306 367.667 41.3306C367.583 41.3306 367.503 41.2971 367.445 41.2377L365.439 39.2157C365.377 39.1549 365.343 39.0712 365.345 38.9844C365.347 38.8976 365.384 38.8154 365.449 38.7573C366.729 37.675 368.605 37.675 369.886 38.7573C369.95 38.8155 369.988 38.8977 369.989 38.9845Z" fill="#040404"/>
<path fill-rule="evenodd" clip-rule="evenodd" d="M354 30.6665H353C352.448 30.6665 352 31.1142 352 31.6665V40.3332C352 40.8855 352.448 41.3332 353 41.3332H354C354.552 41.3332 355 40.8855 355 40.3332V31.6665C355 31.1142 354.552 30.6665 354 30.6665ZM348.333 32.9998H349.333C349.886 32.9998 350.333 33.4476 350.333 33.9998V40.3332C350.333 40.8855 349.886 41.3332 349.333 41.3332H348.333C347.781 41.3332 347.333 40.8855 347.333 40.3332V33.9998C347.333 33.4476 347.781 32.9998 348.333 32.9998ZM344.667 35.3332H343.667C343.114 35.3332 342.667 35.7809 342.667 36.3332V40.3332C342.667 40.8855 343.114 41.3332 343.667 41.3332H344.667C345.219 41.3332 345.667 40.8855 345.667 40.3332V36.3332C345.667 35.7809 345.219 35.3332 344.667 35.3332ZM340 37.3332H339C338.448 37.3332 338 37.7809 338 38.3332V40.3332C338 40.8855 338.448 41.3332 339 41.3332H340C340.552 41.3332 341 40.8855 341 40.3332V38.3332C341 37.7809 340.552 37.3332 340 37.3332Z" fill="#040404"/>
<rect x="148" y="906" width="134" height="5" rx="2.5" fill="black"/>
<path d="M88.7831 844.335L74.6681 830.273C74.4918 830.098 74.2533 830 74.0047 830C73.7561 830 73.5176 830.098 73.3413 830.273L59.2263 844.335C59.0721 844.514 58.9916 844.745 59.0007 844.981C59.0098 845.217 59.108 845.441 59.2756 845.608C59.4432 845.774 59.6679 845.872 59.9047 845.881C60.1415 845.891 60.3731 845.81 60.5531 845.657L74 832.26L87.4469 845.666C87.6269 845.82 87.8585 845.9 88.0953 845.891C88.3321 845.882 88.5568 845.784 88.7244 845.617C88.892 845.45 88.9902 845.226 88.9993 844.99C89.0084 844.754 88.9279 844.524 88.7737 844.344L88.7831 844.335Z" fill="#0E402D"/>
<path d="M83.41 858.125H78.705V848.75H69.295V858.125H64.59V845L62.708 846.875V858.125C62.708 858.622 62.9063 859.099 63.2592 859.451C63.6122 859.803 64.0909 860 64.59 860H71.177V850.625H76.823V860H83.41C83.9092 860 84.3879 859.803 84.7408 859.451C85.0938 859.099 85.292 858.622 85.292 858.125V846.65L83.41 844.775V858.125Z" fill="#0E402D"/>
<path d="M65.14 874.03V881H64.23V877.84H60.68V881H59.77V874.03H60.68V877.09H64.23V874.03H65.14ZM69.0838 881.09C68.5705 881.09 68.1038 880.973 67.6838 880.74C67.2705 880.507 66.9438 880.177 66.7038 879.75C66.4705 879.317 66.3538 878.817 66.3538 878.25C66.3538 877.69 66.4738 877.197 66.7138 876.77C66.9605 876.337 67.2938 876.007 67.7138 875.78C68.1338 875.547 68.6038 875.43 69.1238 875.43C69.6438 875.43 70.1138 875.547 70.5338 875.78C70.9538 876.007 71.2838 876.333 71.5238 876.76C71.7705 877.187 71.8938 877.683 71.8938 878.25C71.8938 878.817 71.7672 879.317 71.5138 879.75C71.2672 880.177 70.9305 880.507 70.5038 880.74C70.0772 880.973 69.6038 881.09 69.0838 881.09ZM69.0838 880.29C69.4105 880.29 69.7172 880.213 70.0038 880.06C70.2905 879.907 70.5205 879.677 70.6938 879.37C70.8738 879.063 70.9638 878.69 70.9638 878.25C70.9638 877.81 70.8772 877.437 70.7038 877.13C70.5305 876.823 70.3038 876.597 70.0238 876.45C69.7438 876.297 69.4405 876.22 69.1138 876.22C68.7805 876.22 68.4738 876.297 68.1938 876.45C67.9205 876.597 67.7005 876.823 67.5338 877.13C67.3672 877.437 67.2838 877.81 67.2838 878.25C67.2838 878.697 67.3638 879.073 67.5238 879.38C67.6905 879.687 67.9105 879.917 68.1838 880.07C68.4572 880.217 68.7572 880.29 69.0838 880.29ZM79.6803 875.42C80.107 875.42 80.487 875.51 80.8203 875.69C81.1536 875.863 81.417 876.127 81.6103 876.48C81.8036 876.833 81.9003 877.263 81.9003 877.77V881H81.0003V877.9C81.0003 877.353 80.8636 876.937 80.5903 876.65C80.3236 876.357 79.9603 876.21 79.5003 876.21C79.027 876.21 78.6503 876.363 78.3703 876.67C78.0903 876.97 77.9503 877.407 77.9503 877.98V881H77.0503V877.9C77.0503 877.353 76.9136 876.937 76.6403 876.65C76.3736 876.357 76.0103 876.21 75.5503 876.21C75.077 876.21 74.7003 876.363 74.4203 876.67C74.1403 876.97 74.0003 877.407 74.0003 877.98V881H73.0903V875.52H74.0003V876.31C74.1803 876.023 74.4203 875.803 74.7203 875.65C75.027 875.497 75.3636 875.42 75.7303 875.42C76.1903 875.42 76.597 875.523 76.9503 875.73C77.3036 875.937 77.567 876.24 77.7403 876.64C77.8936 876.253 78.147 875.953 78.5003 875.74C78.8536 875.527 79.247 875.42 79.6803 875.42ZM88.393 878.05C88.393 878.223 88.383 878.407 88.363 878.6H83.983C84.0164 879.14 84.1997 879.563 84.533 879.87C84.873 880.17 85.283 880.32 85.763 880.32C86.1564 880.32 86.483 880.23 86.743 880.05C87.0097 879.863 87.1964 879.617 87.303 879.31H88.283C88.1364 879.837 87.843 880.267 87.403 880.6C86.963 880.927 86.4164 881.09 85.763 881.09C85.243 881.09 84.7764 880.973 84.363 880.74C83.9564 880.507 83.6364 880.177 83.403 879.75C83.1697 879.317 83.053 878.817 83.053 878.25C83.053 877.683 83.1664 877.187 83.393 876.76C83.6197 876.333 83.9364 876.007 84.343 875.78C84.7564 875.547 85.2297 875.43 85.763 875.43C86.283 875.43 86.743 875.543 87.143 875.77C87.543 875.997 87.8497 876.31 88.063 876.71C88.283 877.103 88.393 877.55 88.393 878.05ZM87.453 877.86C87.453 877.513 87.3764 877.217 87.223 876.97C87.0697 876.717 86.8597 876.527 86.593 876.4C86.333 876.267 86.043 876.2 85.723 876.2C85.263 876.2 84.8697 876.347 84.543 876.64C84.223 876.933 84.0397 877.34 83.993 877.86H87.453Z" fill="#0E402D"/>
<path d="M153.5 860H167.93C168.795 860 169.651 859.804 170.437 859.423C171.224 859.042 171.922 858.486 172.485 857.794L180.138 848.396C180.298 848.2 180.41 847.965 180.464 847.712C180.518 847.46 180.511 847.197 180.446 846.947C180.38 846.698 180.258 846.469 180.088 846.281C179.919 846.093 179.708 845.952 179.475 845.87L176.523 844.834C175.81 844.59 175.05 844.535 174.311 844.673C173.573 844.812 172.878 845.14 172.289 845.628L167.511 849.65L166.586 847.7C166.09 846.649 165.324 845.765 164.376 845.148C163.427 844.531 162.334 844.207 161.219 844.211H153.5C151.845 844.211 150.5 845.627 150.5 847.368V856.842C150.5 858.584 151.845 860 153.5 860ZM153.5 847.368H161.219C162.363 847.368 163.391 848.036 163.902 849.113L164.573 850.526H158V853.684H167.021C167.252 853.681 167.478 853.622 167.684 853.511L167.688 853.509L167.694 853.506H167.699L167.702 853.504H167.708L167.709 853.503C167.723 853.507 167.714 853.501 167.714 853.501C167.729 853.501 167.717 853.499 167.717 853.499H167.718L167.721 853.498L167.726 853.496L167.729 853.495L167.732 853.493L167.736 853.492L167.739 853.49C167.744 853.49 167.742 853.488 167.742 853.488L167.747 853.485L167.75 853.484L167.753 853.482L167.757 853.481L167.76 853.479H167.762L167.765 853.477H167.766L167.769 853.476L167.772 853.474C167.786 853.473 167.777 853.473 167.777 853.473L167.78 853.471C167.838 853.434 167.893 853.393 167.945 853.348L174.164 848.111C174.557 847.782 175.098 847.679 175.574 847.847L176.409 848.141L170.21 855.756C169.925 856.097 169.574 856.37 169.181 856.557C168.788 856.744 168.361 856.842 167.93 856.842H153.5V847.368ZM171.5 830H171.474C171.23 830.003 169.965 830.062 168.5 831.113C167.073 830.09 165.839 830.008 165.548 830.002L165.503 830H165.497C164.295 830 163.164 830.494 162.318 831.386C161.469 832.282 161 833.471 161 834.737C161 836.003 161.469 837.192 162.291 838.059L167.412 843.721C167.553 843.875 167.722 843.997 167.909 844.081C168.096 844.165 168.297 844.208 168.5 844.207C168.703 844.207 168.904 844.164 169.091 844.08C169.278 843.996 169.447 843.874 169.587 843.719L174.681 838.086C175.532 837.192 176 836.003 176 834.737C176 833.471 175.53 832.282 174.683 831.388C174.266 830.947 173.771 830.597 173.225 830.359C172.679 830.12 172.094 829.998 171.503 830H171.5ZM173 834.737C173 835.158 172.844 835.555 172.533 835.882L168.5 840.342L164.439 835.853C164.156 835.555 164 835.158 164 834.737C164 834.315 164.156 833.919 164.441 833.619C164.712 833.329 165.081 833.163 165.468 833.158C165.506 833.159 166.221 833.208 167.069 833.924C167.19 834.026 167.313 834.143 167.439 834.274L168.5 835.391L169.56 834.274C169.686 834.143 169.809 834.026 169.931 833.924C170.724 833.253 171.395 833.169 171.509 833.159C171.704 833.159 171.898 833.2 172.078 833.279C172.259 833.358 172.422 833.474 172.56 833.621C172.844 833.919 173 834.315 173 834.737Z" fill="#0E402D"/>
<path d="M151.71 874.03V874.77H148.68V877.12H151.14V877.86H148.68V881H147.77V874.03H151.71ZM155.199 881.09C154.686 881.09 154.219 880.973 153.799 880.74C153.386 880.507 153.059 880.177 152.819 879.75C152.586 879.317 152.469 878.817 152.469 878.25C152.469 877.69 152.589 877.197 152.829 876.77C153.076 876.337 153.409 876.007 153.829 875.78C154.249 875.547 154.719 875.43 155.239 875.43C155.759 875.43 156.229 875.547 156.649 875.78C157.069 876.007 157.399 876.333 157.639 876.76C157.886 877.187 158.009 877.683 158.009 878.25C158.009 878.817 157.882 879.317 157.629 879.75C157.382 880.177 157.046 880.507 156.619 880.74C156.192 880.973 155.719 881.09 155.199 881.09ZM155.199 880.29C155.526 880.29 155.832 880.213 156.119 880.06C156.406 879.907 156.636 879.677 156.809 879.37C156.989 879.063 157.079 878.69 157.079 878.25C157.079 877.81 156.992 877.437 156.819 877.13C156.646 876.823 156.419 876.597 156.139 876.45C155.859 876.297 155.556 876.22 155.229 876.22C154.896 876.22 154.589 876.297 154.309 876.45C154.036 876.597 153.816 876.823 153.649 877.13C153.482 877.437 153.399 877.81 153.399 878.25C153.399 878.697 153.479 879.073 153.639 879.38C153.806 879.687 154.026 879.917 154.299 880.07C154.572 880.217 154.872 880.29 155.199 880.29ZM160.116 876.41C160.276 876.097 160.502 875.853 160.796 875.68C161.096 875.507 161.459 875.42 161.886 875.42V876.36H161.646C160.626 876.36 160.116 876.913 160.116 878.02V881H159.206V875.52H160.116V876.41ZM170.322 875.52L167.022 883.58H166.082L167.162 880.94L164.952 875.52H165.962L167.682 879.96L169.382 875.52H170.322ZM173.627 881.09C173.113 881.09 172.647 880.973 172.227 880.74C171.813 880.507 171.487 880.177 171.247 879.75C171.013 879.317 170.897 878.817 170.897 878.25C170.897 877.69 171.017 877.197 171.257 876.77C171.503 876.337 171.837 876.007 172.257 875.78C172.677 875.547 173.147 875.43 173.667 875.43C174.187 875.43 174.657 875.547 175.077 875.78C175.497 876.007 175.827 876.333 176.067 876.76C176.313 877.187 176.437 877.683 176.437 878.25C176.437 878.817 176.31 879.317 176.057 879.75C175.81 880.177 175.473 880.507 175.047 880.74C174.62 880.973 174.147 881.09 173.627 881.09ZM173.627 880.29C173.953 880.29 174.26 880.213 174.547 880.06C174.833 879.907 175.063 879.677 175.237 879.37C175.417 879.063 175.507 878.69 175.507 878.25C175.507 877.81 175.42 877.437 175.247 877.13C175.073 876.823 174.847 876.597 174.567 876.45C174.287 876.297 173.983 876.22 173.657 876.22C173.323 876.22 173.017 876.297 172.737 876.45C172.463 876.597 172.243 876.823 172.077 877.13C171.91 877.437 171.827 877.81 171.827 878.25C171.827 878.697 171.907 879.073 172.067 879.38C172.233 879.687 172.453 879.917 172.727 880.07C173 880.217 173.3 880.29 173.627 880.29ZM182.493 875.52V881H181.583V880.19C181.41 880.47 181.167 880.69 180.853 880.85C180.547 881.003 180.207 881.08 179.833 881.08C179.407 881.08 179.023 880.993 178.683 880.82C178.343 880.64 178.073 880.373 177.873 880.02C177.68 879.667 177.583 879.237 177.583 878.73V875.52H178.483V878.61C178.483 879.15 178.62 879.567 178.893 879.86C179.167 880.147 179.54 880.29 180.013 880.29C180.5 880.29 180.883 880.14 181.163 879.84C181.443 879.54 181.583 879.103 181.583 878.53V875.52H182.493Z" fill="#0E402D"/>
<path d="M258 853.75C256.556 853.751 255.134 853.395 253.862 852.712C252.59 852.03 251.506 851.042 250.709 849.839L252.791 848.455C253.361 849.315 254.135 850.02 255.044 850.508C255.953 850.996 256.968 851.251 258 851.251C259.031 851.251 260.047 850.996 260.956 850.508C261.865 850.02 262.639 849.315 263.209 848.455L265.291 849.839C264.494 851.042 263.41 852.03 262.138 852.712C260.866 853.395 259.444 853.751 258 853.75Z" fill="#0E402D"/>
<path d="M263 840C262.506 840 262.022 840.147 261.611 840.421C261.2 840.696 260.88 841.087 260.69 841.543C260.501 842 260.452 842.503 260.548 842.988C260.645 843.473 260.883 843.918 261.232 844.268C261.582 844.618 262.027 844.856 262.512 844.952C262.997 845.049 263.5 844.999 263.957 844.81C264.414 844.621 264.804 844.3 265.079 843.889C265.353 843.478 265.5 842.995 265.5 842.5C265.503 842.171 265.441 841.844 265.317 841.539C265.192 841.235 265.008 840.958 264.775 840.725C264.542 840.492 264.265 840.308 263.961 840.184C263.656 840.059 263.329 839.997 263 840Z" fill="#0E402D"/>
<path d="M253 840C252.506 840 252.022 840.147 251.611 840.421C251.2 840.696 250.88 841.087 250.69 841.543C250.501 842 250.452 842.503 250.548 842.988C250.645 843.473 250.883 843.918 251.232 844.268C251.582 844.618 252.027 844.856 252.512 844.952C252.997 845.049 253.5 844.999 253.957 844.81C254.414 844.621 254.804 844.3 255.079 843.889C255.353 843.478 255.5 842.995 255.5 842.5C255.503 842.171 255.441 841.844 255.317 841.539C255.192 841.235 255.008 840.958 254.775 840.725C254.542 840.492 254.265 840.308 253.961 840.184C253.656 840.059 253.329 839.997 253 840Z" fill="#0E402D"/>
<path d="M260.36 864.5L258.5 863.429L262.786 855.929H269.214C269.496 855.929 269.775 855.874 270.035 855.766C270.295 855.659 270.531 855.501 270.73 855.302C270.93 855.103 271.087 854.866 271.195 854.606C271.302 854.346 271.358 854.067 271.357 853.786V838.786C271.358 838.504 271.302 838.225 271.195 837.965C271.087 837.705 270.93 837.469 270.73 837.27C270.531 837.07 270.295 836.913 270.035 836.805C269.775 836.698 269.496 836.642 269.214 836.643H247.786C247.504 836.642 247.225 836.698 246.965 836.805C246.705 836.913 246.469 837.07 246.27 837.27C246.07 837.469 245.913 837.705 245.805 837.965C245.698 838.225 245.642 838.504 245.643 838.786V853.786C245.642 854.067 245.698 854.346 245.805 854.606C245.913 854.866 246.07 855.103 246.27 855.302C246.469 855.501 246.705 855.659 246.965 855.766C247.225 855.874 247.504 855.929 247.786 855.929H257.429V858.071H247.786C246.649 858.071 245.559 857.62 244.755 856.816C243.952 856.012 243.5 854.922 243.5 853.786V838.786C243.5 838.223 243.611 837.666 243.826 837.145C244.041 836.625 244.357 836.153 244.755 835.755C245.153 835.357 245.625 835.041 246.145 834.826C246.666 834.611 247.223 834.5 247.786 834.5H269.214C269.777 834.5 270.334 834.611 270.855 834.826C271.375 835.041 271.847 835.357 272.245 835.755C272.643 836.153 272.959 836.625 273.174 837.145C273.389 837.666 273.5 838.223 273.5 838.786V853.786C273.5 854.922 273.048 856.012 272.245 856.816C271.441 857.62 270.351 858.071 269.214 858.071H264.034L260.36 864.5Z" fill="#0E402D"/>
<path d="M244.84 875.08V882H243.93V876.84L241.63 882H240.99L238.68 876.83V882H237.77V875.08H238.75L241.31 880.8L243.87 875.08H244.84ZM246.853 875.63C246.68 875.63 246.533 875.57 246.413 875.45C246.293 875.33 246.233 875.183 246.233 875.01C246.233 874.837 246.293 874.69 246.413 874.57C246.533 874.45 246.68 874.39 246.853 874.39C247.02 874.39 247.16 874.45 247.273 874.57C247.393 874.69 247.453 874.837 247.453 875.01C247.453 875.183 247.393 875.33 247.273 875.45C247.16 875.57 247.02 875.63 246.853 875.63ZM247.293 876.52V882H246.383V876.52H247.293ZM251.514 876.42C252.181 876.42 252.721 876.623 253.134 877.03C253.548 877.43 253.754 878.01 253.754 878.77V882H252.854V878.9C252.854 878.353 252.718 877.937 252.444 877.65C252.171 877.357 251.798 877.21 251.324 877.21C250.844 877.21 250.461 877.36 250.174 877.66C249.894 877.96 249.754 878.397 249.754 878.97V882H248.844V876.52H249.754V877.3C249.934 877.02 250.178 876.803 250.484 876.65C250.798 876.497 251.141 876.42 251.514 876.42ZM254.901 879.24C254.901 878.68 255.014 878.19 255.241 877.77C255.467 877.343 255.777 877.013 256.171 876.78C256.571 876.547 257.017 876.43 257.511 876.43C257.937 876.43 258.334 876.53 258.701 876.73C259.067 876.923 259.347 877.18 259.541 877.5V874.6H260.461V882H259.541V880.97C259.361 881.297 259.094 881.567 258.741 881.78C258.387 881.987 257.974 882.09 257.501 882.09C257.014 882.09 256.571 881.97 256.171 881.73C255.777 881.49 255.467 881.153 255.241 880.72C255.014 880.287 254.901 879.793 254.901 879.24ZM259.541 879.25C259.541 878.837 259.457 878.477 259.291 878.17C259.124 877.863 258.897 877.63 258.611 877.47C258.331 877.303 258.021 877.22 257.681 877.22C257.341 877.22 257.031 877.3 256.751 877.46C256.471 877.62 256.247 877.853 256.081 878.16C255.914 878.467 255.831 878.827 255.831 879.24C255.831 879.66 255.914 880.027 256.081 880.34C256.247 880.647 256.471 880.883 256.751 881.05C257.031 881.21 257.341 881.29 257.681 881.29C258.021 881.29 258.331 881.21 258.611 881.05C258.897 880.883 259.124 880.647 259.291 880.34C259.457 880.027 259.541 879.663 259.541 879.25ZM262.909 877.54C263.095 877.213 263.369 876.947 263.729 876.74C264.089 876.533 264.499 876.43 264.959 876.43C265.452 876.43 265.895 876.547 266.289 876.78C266.682 877.013 266.992 877.343 267.219 877.77C267.445 878.19 267.559 878.68 267.559 879.24C267.559 879.793 267.445 880.287 267.219 880.72C266.992 881.153 266.679 881.49 266.279 881.73C265.885 881.97 265.445 882.09 264.959 882.09C264.485 882.09 264.069 881.987 263.709 881.78C263.355 881.573 263.089 881.31 262.909 880.99V882H261.999V874.6H262.909V877.54ZM266.629 879.24C266.629 878.827 266.545 878.467 266.379 878.16C266.212 877.853 265.985 877.62 265.699 877.46C265.419 877.3 265.109 877.22 264.769 877.22C264.435 877.22 264.125 877.303 263.839 877.47C263.559 877.63 263.332 877.867 263.159 878.18C262.992 878.487 262.909 878.843 262.909 879.25C262.909 879.663 262.992 880.027 263.159 880.34C263.332 880.647 263.559 880.883 263.839 881.05C264.125 881.21 264.435 881.29 264.769 881.29C265.109 881.29 265.419 881.21 265.699 881.05C265.985 880.883 266.212 880.647 266.379 880.34C266.545 880.027 266.629 879.66 266.629 879.24ZM271.146 882.09C270.633 882.09 270.166 881.973 269.746 881.74C269.333 881.507 269.006 881.177 268.766 880.75C268.533 880.317 268.416 879.817 268.416 879.25C268.416 878.69 268.536 878.197 268.776 877.77C269.023 877.337 269.356 877.007 269.776 876.78C270.196 876.547 270.666 876.43 271.186 876.43C271.706 876.43 272.176 876.547 272.596 876.78C273.016 877.007 273.346 877.333 273.586 877.76C273.833 878.187 273.956 878.683 273.956 879.25C273.956 879.817 273.83 880.317 273.576 880.75C273.33 881.177 272.993 881.507 272.566 881.74C272.14 881.973 271.666 882.09 271.146 882.09ZM271.146 881.29C271.473 881.29 271.78 881.213 272.066 881.06C272.353 880.907 272.583 880.677 272.756 880.37C272.936 880.063 273.026 879.69 273.026 879.25C273.026 878.81 272.94 878.437 272.766 878.13C272.593 877.823 272.366 877.597 272.086 877.45C271.806 877.297 271.503 877.22 271.176 877.22C270.843 877.22 270.536 877.297 270.256 877.45C269.983 877.597 269.763 877.823 269.596 878.13C269.43 878.437 269.346 878.81 269.346 879.25C269.346 879.697 269.426 880.073 269.586 880.38C269.753 880.687 269.973 880.917 270.246 881.07C270.52 881.217 270.82 881.29 271.146 881.29ZM276.263 877.27V880.5C276.263 880.767 276.319 880.957 276.433 881.07C276.546 881.177 276.743 881.23 277.023 881.23H277.693V882H276.873C276.366 882 275.986 881.883 275.733 881.65C275.479 881.417 275.353 881.033 275.353 880.5V877.27H274.643V876.52H275.353V875.14H276.263V876.52H277.693V877.27H276.263Z" fill="#0E402D"/>
<g clip-path="url(#clip0_649_3252)">
<path d="M344.75 833.75C345.677 833.75 346.583 834.025 347.354 834.54C348.125 835.055 348.726 835.787 349.081 836.644C349.435 837.5 349.528 838.443 349.347 839.352C349.167 840.261 348.72 841.097 348.065 841.752C347.409 842.408 346.574 842.854 345.664 843.035C344.755 843.216 343.813 843.123 342.956 842.768C342.1 842.413 341.368 841.813 340.852 841.042C340.337 840.271 340.063 839.365 340.063 838.437C340.063 837.194 340.556 836.002 341.435 835.123C342.315 834.244 343.507 833.75 344.75 833.75ZM344.75 831.875C343.452 831.875 342.183 832.26 341.104 832.981C340.025 833.702 339.184 834.727 338.687 835.926C338.19 837.125 338.06 838.445 338.314 839.718C338.567 840.991 339.192 842.16 340.11 843.078C341.027 843.996 342.197 844.621 343.47 844.874C344.743 845.127 346.062 844.997 347.261 844.5C348.461 844.004 349.485 843.163 350.207 842.083C350.928 841.004 351.313 839.735 351.313 838.437C351.313 836.697 350.621 835.028 349.39 833.797C348.16 832.566 346.49 831.875 344.75 831.875Z" fill="#EA832E"/>
<path d="M354.125 858.125H352.25V853.438C352.25 852.194 351.756 851.002 350.877 850.123C349.998 849.244 348.806 848.75 347.562 848.75H341.938C340.694 848.75 339.502 849.244 338.623 850.123C337.744 851.002 337.25 852.194 337.25 853.438V858.125H335.375V853.438C335.375 851.697 336.066 850.028 337.297 848.797C338.528 847.566 340.197 846.875 341.938 846.875H347.562C349.303 846.875 350.972 847.566 352.203 848.797C353.434 850.028 354.125 851.697 354.125 853.438V858.125Z" fill="#EA832E"/>
<path d="M354.125 833.75H363.5V835.625H354.125V833.75Z" fill="#EA832E"/>
<path d="M354.125 838.438H363.5V840.312H354.125V838.438Z" fill="#EA832E"/>
<path d="M354.125 843.125H360.688V845H354.125V843.125Z" fill="#EA832E"/>
</g>
<path d="M338.43 877.07C338.43 877.65 338.23 878.133 337.83 878.52C337.437 878.9 336.833 879.09 336.02 879.09H334.68V882H333.77V875.03H336.02C336.807 875.03 337.403 875.22 337.81 875.6C338.223 875.98 338.43 876.47 338.43 877.07ZM336.02 878.34C336.527 878.34 336.9 878.23 337.14 878.01C337.38 877.79 337.5 877.477 337.5 877.07C337.5 876.21 337.007 875.78 336.02 875.78H334.68V878.34H336.02ZM340.471 877.41C340.631 877.097 340.858 876.853 341.151 876.68C341.451 876.507 341.814 876.42 342.241 876.42V877.36H342.001C340.981 877.36 340.471 877.913 340.471 879.02V882H339.561V876.52H340.471V877.41ZM345.681 882.09C345.168 882.09 344.701 881.973 344.281 881.74C343.868 881.507 343.541 881.177 343.301 880.75C343.068 880.317 342.951 879.817 342.951 879.25C342.951 878.69 343.071 878.197 343.311 877.77C343.558 877.337 343.891 877.007 344.311 876.78C344.731 876.547 345.201 876.43 345.721 876.43C346.241 876.43 346.711 876.547 347.131 876.78C347.551 877.007 347.881 877.333 348.121 877.76C348.368 878.187 348.491 878.683 348.491 879.25C348.491 879.817 348.365 880.317 348.111 880.75C347.865 881.177 347.528 881.507 347.101 881.74C346.675 881.973 346.201 882.09 345.681 882.09ZM345.681 881.29C346.008 881.29 346.315 881.213 346.601 881.06C346.888 880.907 347.118 880.677 347.291 880.37C347.471 880.063 347.561 879.69 347.561 879.25C347.561 878.81 347.475 878.437 347.301 878.13C347.128 877.823 346.901 877.597 346.621 877.45C346.341 877.297 346.038 877.22 345.711 877.22C345.378 877.22 345.071 877.297 344.791 877.45C344.518 877.597 344.298 877.823 344.131 878.13C343.965 878.437 343.881 878.81 343.881 879.25C343.881 879.697 343.961 880.073 344.121 880.38C344.288 880.687 344.508 880.917 344.781 881.07C345.055 881.217 345.355 881.29 345.681 881.29ZM351.918 877.27H350.768V882H349.858V877.27H349.148V876.52H349.858V876.13C349.858 875.517 350.015 875.07 350.328 874.79C350.648 874.503 351.158 874.36 351.858 874.36V875.12C351.458 875.12 351.175 875.2 351.008 875.36C350.848 875.513 350.768 875.77 350.768 876.13V876.52H351.918V877.27ZM353.449 875.63C353.276 875.63 353.129 875.57 353.009 875.45C352.889 875.33 352.829 875.183 352.829 875.01C352.829 874.837 352.889 874.69 353.009 874.57C353.129 874.45 353.276 874.39 353.449 874.39C353.616 874.39 353.756 874.45 353.869 874.57C353.989 874.69 354.049 874.837 354.049 875.01C354.049 875.183 353.989 875.33 353.869 875.45C353.756 875.57 353.616 875.63 353.449 875.63ZM353.889 876.52V882H352.979V876.52H353.889ZM356.35 874.6V882H355.44V874.6H356.35ZM362.901 879.05C362.901 879.223 362.891 879.407 362.871 879.6H358.491C358.524 880.14 358.708 880.563 359.041 880.87C359.381 881.17 359.791 881.32 360.271 881.32C360.664 881.32 360.991 881.23 361.251 881.05C361.518 880.863 361.704 880.617 361.811 880.31H362.791C362.644 880.837 362.351 881.267 361.911 881.6C361.471 881.927 360.924 882.09 360.271 882.09C359.751 882.09 359.284 881.973 358.871 881.74C358.464 881.507 358.144 881.177 357.911 880.75C357.678 880.317 357.561 879.817 357.561 879.25C357.561 878.683 357.674 878.187 357.901 877.76C358.128 877.333 358.444 877.007 358.851 876.78C359.264 876.547 359.738 876.43 360.271 876.43C360.791 876.43 361.251 876.543 361.651 876.77C362.051 876.997 362.358 877.31 362.571 877.71C362.791 878.103 362.901 878.55 362.901 879.05ZM361.961 878.86C361.961 878.513 361.884 878.217 361.731 877.97C361.578 877.717 361.368 877.527 361.101 877.4C360.841 877.267 360.551 877.2 360.231 877.2C359.771 877.2 359.378 877.347 359.051 877.64C358.731 877.933 358.548 878.34 358.501 878.86H361.961Z" fill="#EA832E"/>
<rect x="35" y="197" width="95" height="98" fill="#C3BCBC"/>
<path fill-rule="evenodd" clip-rule="evenodd" d="M91.3333 237.375C91.3333 240.248 90.192 243.004 88.1603 245.035C86.1287 247.067 83.3732 248.208 80.5 248.208C77.6268 248.208 74.8713 247.067 72.8397 245.035C70.808 243.004 69.6667 240.248 69.6667 237.375C69.6667 234.502 70.808 231.746 72.8397 229.715C74.8713 227.683 77.6268 226.542 80.5 226.542C83.3732 226.542 86.1287 227.683 88.1603 229.715C90.192 231.746 91.3333 234.502 91.3333 237.375ZM85.9167 237.375C85.9167 238.811 85.346 240.189 84.3301 241.205C83.3143 242.221 81.9366 242.792 80.5 242.792C79.0634 242.792 77.6857 242.221 76.6698 241.205C75.654 240.189 75.0833 238.811 75.0833 237.375C75.0833 235.938 75.654 234.56 76.6698 233.545C77.6857 232.529 79.0634 231.958 80.5 231.958C81.9366 231.958 83.3143 232.529 84.3301 233.545C85.346 234.56 85.9167 235.938 85.9167 237.375Z" fill="#010101"/>
<path fill-rule="evenodd" clip-rule="evenodd" d="M80.5 215.708C64.0469 215.708 50.7083 229.047 50.7083 245.5C50.7083 261.953 64.0469 275.292 80.5 275.292C96.9531 275.292 110.292 261.953 110.292 245.5C110.292 229.047 96.9531 215.708 80.5 215.708ZM56.125 245.5C56.125 251.161 58.0561 256.371 61.2925 260.51C63.5654 257.525 66.4977 255.106 69.8601 253.442C73.2226 251.778 76.9243 250.914 80.6761 250.917C84.3792 250.913 88.0344 251.755 91.3629 253.378C94.6915 255.001 97.6057 257.362 99.8835 260.282C102.23 257.205 103.81 253.612 104.493 249.803C105.176 245.993 104.941 242.076 103.809 238.374C102.677 234.673 100.68 231.295 97.9836 228.519C95.2868 225.743 91.9678 223.649 88.301 222.41C84.6343 221.172 80.7253 220.824 76.8975 221.396C73.0698 221.968 69.4332 223.443 66.2888 225.7C63.1443 227.956 60.5824 230.929 58.815 234.372C57.0476 237.815 56.1255 241.63 56.125 245.5ZM80.5 269.875C74.9045 269.884 69.4778 267.959 65.1383 264.426C66.885 261.925 69.2099 259.884 71.9151 258.475C74.6203 257.066 77.6259 256.331 80.6761 256.333C83.6882 256.331 86.6574 257.047 89.3371 258.423C92.0168 259.798 94.3298 261.793 96.0838 264.242C91.7106 267.889 86.1945 269.883 80.5 269.875Z" fill="#010101"/>
<defs>
<clipPath id="clip0_649_3252">
<rect width="30" height="30" fill="white" transform="translate(333.5 830)"/>
</clipPath>
</defs>
</svg>
