<svg width="133" height="604" viewBox="0 0 133 604" fill="none" xmlns="http://www.w3.org/2000/svg">
<g opacity="0.7">
<path opacity="0.7" d="M82.8526 283.323C58.8133 285.118 43.3798 300.045 36.196 320.922C32.324 332.173 31.8774 343.731 29.7285 355.293C26.4916 372.688 19.527 385.871 5.91572 398.264C2.02189 401.709 -1.20332 405.768 -3.61488 410.257C-8.18785 414.535 -11.9141 419.547 -14.6191 425.055C-18.2005 432.489 -19.2138 441.417 -15.0784 448.832C-13.9671 450.825 -11.1926 454.827 -8.31804 456.645C-19.0811 478.212 -24.9987 501.833 -24.3319 525.424C-23.9285 539.665 -23.1901 553.91 -22.3306 568.133C-22.0989 571.952 -20.7769 578.259 -18.7914 571.854C-16.9744 565.995 -19.2527 556.8 -19.4634 550.679C-20.4894 520.865 -21.3657 493.757 -8.32331 465.901C-6.95537 462.982 -5.51265 460.086 -3.99514 457.213C-3.90767 457.162 -3.82294 457.108 -3.74128 457.049C-3.68335 457.091 -3.63595 457.136 -3.5738 457.177C-3.4769 457.016 -3.34523 456.822 -3.19144 456.607C-2.73464 456.14 -2.34121 455.621 -2.02013 455.062C-0.861456 453.553 0.445736 451.781 0.45311 450.811C0.45311 450.803 0.45311 450.792 0.45311 450.784C8.68301 438.466 17.6187 426.578 27.2206 415.173C27.15 415.256 37.4674 402.038 35.8716 409.348C35.1027 412.87 27.5134 419.579 24.4482 423.31C16.8122 432.627 9.68349 442.303 3.08962 452.301C2.19954 452.782 0.94186 455.146 0.034935 456.907C-0.467508 457.799 -0.936243 458.698 -1.39655 459.483C22.0476 466.772 40.284 452.091 52.7198 435.015C52.7345 434.995 52.7482 434.975 52.7619 434.955C56.5465 430.236 60.4228 425.551 65.2661 421.821C73.3462 415.598 81.9984 414.5 91.5248 411.436C117.504 403.084 128.55 371.403 132.057 347.896C136.014 321.375 116.653 280.709 82.8526 283.323Z" fill="#89C5CC" fill-opacity="0.5"/>
<path opacity="0.7" d="M35.3659 209.059C10.6924 233.222 -1.22627 266.736 -10.6676 298.242C-21.2096 333.432 -28.1719 369.165 -28.4354 405.751C-28.6106 429.788 -29.3058 453.977 -27.814 477.987C-27.3121 486.528 -26.3545 495.04 -24.945 503.491C-24.8266 504.184 -21.6135 523.019 -18.5355 518.629C-16.7863 516.133 -21.8292 499.091 -22.2107 496.252C-24.1796 480.257 -25.0269 464.156 -24.7472 448.056C-24.5747 421.543 -25.4065 395.165 -22.5518 368.749C-22.252 364.736 -21.6645 360.746 -20.7935 356.807C-19.7362 352.704 -21.0824 354.495 -17.6392 352.871C-14.2935 351.293 -10.1593 351.518 -6.68754 349.537C7.08284 341.681 14.1216 321.5 19.6086 308.258C25.8789 293.116 29.6907 276.968 32.7344 261.033C34.9783 249.386 36.5607 237.635 37.475 225.829C37.5865 222.038 37.9479 218.257 38.5571 214.508C38.7674 213.516 39.8225 211.763 39.7839 210.886C39.7032 209.028 38.5114 207.935 38.4133 206.374C37.3803 207.248 36.3673 208.144 35.3745 209.06" fill="#89C5CC" fill-opacity="0.5"/>
<path opacity="0.7" d="M-99.1689 530.988C-99.1689 550.178 -91.0677 568.581 -76.6473 582.15C-62.2269 595.719 -42.6687 603.341 -22.2752 603.341C-1.88176 603.341 17.6765 595.719 32.0968 582.15C46.5172 568.581 54.6185 550.178 54.6185 530.988" fill="#89C5CC" fill-opacity="0.5"/>
<path opacity="0.7" d="M60.3937 557.751C57.4484 557.84 54.5741 556.89 52.3357 555.086C50.3114 553.286 48.8158 551.024 47.9938 548.519C46.0167 543.159 45.8302 536.573 45.7059 532.215C45.5511 526.749 45.1382 520.385 43.2274 514.636C42.3488 511.923 41.0865 509.333 39.4744 506.936C37.7222 504.362 35.5763 502.044 33.1059 500.059C31.806 499.002 30.4198 497.996 29.0789 497.022C27.8824 496.154 26.6468 495.256 25.4765 494.326L24.9172 493.883C21.1557 490.91 17.2657 487.837 16.7896 482.97C16.5242 480.267 16.9866 478.28 18.1653 477.064C18.7779 476.505 19.5107 476.077 20.3144 475.809C21.118 475.54 21.9735 475.437 22.8232 475.507C24.1555 475.529 25.4819 475.681 26.7806 475.963C26.9912 476.005 27.5474 476.204 28.3216 476.48C30.5336 477.267 34.2203 478.585 36.1932 478.585C36.7989 478.585 37.197 478.456 37.3761 478.204C37.4582 478.04 37.4964 477.86 37.4874 477.679C37.4784 477.498 37.4225 477.322 37.3245 477.167C36.8695 476.14 35.3084 475.232 32.6845 474.47C27.4041 473.93 22.4187 473.444 19.4493 473.444C18.8063 473.428 18.1631 473.471 17.5291 473.573C12.1534 474.737 7.2401 477.315 3.36163 481.006C-0.680351 484.87 -3.98711 489.357 -6.41442 494.274C-12.3795 505.805 -14.6579 518.646 -15.4858 525.274C-15.7102 527.069 -15.9124 529.014 -16.1062 531.221H-20.1689C-19.9507 526.422 -19.4479 521.638 -18.6627 516.892C-17.5093 510.473 -14.5799 498.097 -7.91859 487.328C-5.20924 482.766 -1.65563 478.697 2.57479 475.311C6.72854 472.029 11.7725 469.901 17.1404 469.166C17.9212 469.099 18.7054 469.072 19.4893 469.085C21.0177 469.085 22.86 469.14 24.6728 469.24C26.4376 468.309 28.4019 467.762 30.4209 467.641C31.2246 467.584 32.0494 467.557 32.872 467.557C37.6028 467.608 42.29 468.415 46.7329 469.945C51.409 471.53 55.8566 473.657 59.9724 476.279C64.1223 478.892 67.9588 481.921 71.4148 485.313C74.6774 488.476 77.521 491.998 79.8837 495.804C83.3418 501.469 85.1188 508.256 85.1641 515.978C85.1305 523.034 83.8819 530.039 81.4668 536.72C79.804 541.636 77.3008 546.265 74.0555 550.424C70.0781 555.234 65.5456 557.699 60.5854 557.753L60.3937 557.751Z" fill="#69A1AC" fill-opacity="0.5"/>
</g>
<path d="M100.571 122.455C97.429 112.593 90.0512 104.874 82.3926 97.8011C67.4836 84.0322 59.4649 75.5189 54.1499 55.3738C51.0251 43.5281 47.8445 30.9753 37.9329 22.3812C30.7175 16.1265 18.2965 10.8683 8.64521 15.3499C-6.20271 23.6889 -10.1899 40.8017 -8.69269 56.1253C-6.83673 75.1178 2.59171 86.8286 20.7044 93.823C30.9103 97.7628 37.6946 102.961 43.2347 112.02C47.6663 119.263 50.2501 128.333 55.819 134.9C64.1445 144.715 74.5592 149.08 87.4051 147.448C75.3769 126.624 61.327 105.604 44.3735 88.0757C42.7869 86.313 33.428 79.5663 35.3155 76.5622C37.395 73.2545 47.0025 85.6796 46.9345 85.6045C51.8606 90.9251 56.4189 96.5791 60.8895 102.284C60.8775 102.288 60.8644 102.292 60.8514 102.296C65.4583 108.153 70.0134 114.093 74.5167 120.115C76.3348 122.66 78.1006 125.247 79.7874 127.886C82.2672 131.764 86.2031 142.771 90.2615 145.156C90.9959 145.608 91.8183 145.918 92.681 146.069C95.4498 150.335 98.1441 154.635 100.706 158.986C107.399 170.349 113.142 182.348 115.778 195.178C116.547 198.922 116.002 212.929 118.719 215.633C123.685 220.576 122.233 211.055 121.934 208.182C119.467 184.383 110.387 164.107 97.2025 144.099C101.253 139.122 101.838 126.453 100.565 122.457" fill="#F2F2F2" fill-opacity="0.5"/>
<path d="M-69.5429 133.958C-64.3067 128.155 -51.7179 127.17 -44.0195 127.56C-34.4931 128.041 -24.7086 130.224 -15.6461 132.863C-0.716948 137.209 13.7891 145.142 26.937 152.819C28.5213 153.744 48.0417 164.792 46.3142 166.731C44.605 168.648 25.436 155.526 21.1684 153.266C12.0544 148.438 3.69729 142.728 -6.349 139.538C-16.7855 136.344 -27.716 134.815 -38.6885 135.012C-40.0922 135.024 -44.6687 134.104 -44.7707 136.057C-44.8676 137.968 -37.2907 136.972 -35.9541 136.983C-30.4178 137.035 -24.8955 137.516 -19.4429 138.42C-9.31445 140.054 0.371259 143.555 9.05837 148.72C6.62196 154.049 0.782006 156.505 -5.343 155.172C-10.6373 154.018 -15.7974 151.174 -20.9814 150.352C-24.5293 149.832 -28.1566 150.076 -31.5892 151.068C-40.718 153.563 -45.9888 158.68 -56.0299 155.121C-63.9012 152.33 -77.0642 142.307 -69.5473 133.956" fill="#F2F2F2" fill-opacity="0.5"/>
</svg>
