<svg width="267" height="604" viewBox="0 0 267 604" fill="none" xmlns="http://www.w3.org/2000/svg">
<path d="M204.289 421.703C203.964 423.691 203.502 425.658 202.906 427.59C203.72 425.716 204.188 423.725 204.289 421.703ZM195.486 374.609C190.046 362.108 181.905 351.133 172.37 341.255C174.763 334.482 194.904 324.715 182.864 318.423C176.469 315.095 169.92 320.616 168.523 326.463C167.561 330.484 169.027 335.528 170.578 339.428C167.582 336.416 164.471 333.501 161.246 330.683C156.805 326.792 152.258 323.009 147.666 319.274C155.232 312.586 162.394 293.469 152.248 290.343C137.27 285.74 144.482 311.815 145.526 316.703C145.655 316.717 145.786 316.702 145.907 316.658C146.029 316.615 146.138 316.545 146.224 316.454C146.14 316.902 146.043 317.38 145.923 317.864C137.143 310.755 128.22 303.791 119.598 296.507C120.375 295.967 121.61 293.903 122.58 292.803C124.843 290.37 126.797 287.698 128.403 284.841C130.823 280.262 133.157 272.957 126.743 270.263C119.767 267.328 116.453 275.59 116.404 280.519C116.37 283.927 117.358 287.165 117.871 290.507C118.032 291.549 117.413 296.241 118.922 294.226C118.858 294.779 118.842 295.337 118.876 295.893C117.331 294.579 115.795 293.253 114.265 291.915C114.344 291.734 114.39 291.543 114.402 291.348C114.415 291.054 114.347 290.763 114.204 290.501C114.062 290.24 113.85 290.017 113.589 289.856C113.328 289.694 113.027 289.599 112.715 289.579C112.404 289.56 112.092 289.616 111.81 289.743C109.797 287.942 107.808 286.114 105.843 284.258C101.691 280.318 97.4798 276.265 93.296 272.127C94.2039 271.393 93.8439 270.377 94.692 269.599C95.5401 268.821 97.2084 268.392 98.2043 267.669C100.721 265.725 102.792 263.321 104.294 260.602C106.775 256.299 109.981 247.271 102.733 245.22C95.2564 243.102 91.4688 251.792 90.989 257.226C91.1993 261.905 91.6614 266.571 92.3737 271.207C84.6339 263.513 77.022 255.532 70.1245 247.412C72.2161 247.394 78.1449 243.363 79.3433 242.262C82.2679 239.579 86.9164 233.65 81.7908 230.513C77.233 227.73 71.6133 231.761 69.6632 235.678C68.8666 238.745 68.3519 241.871 68.1249 245.021C65.2705 241.577 62.5469 238.114 60.0138 234.639C58.3234 232.329 56.7416 229.961 55.2685 227.535C55.6674 227.294 56.0085 226.977 56.2697 226.604C63.8726 225.391 73.5666 214.228 64.6359 210.343C60.3846 208.495 55.7717 212.307 53.6898 215.428C52.9516 217.51 52.3898 219.643 52.0096 221.809C47.7932 213.736 44.4516 205.285 42.0356 196.583C42.3905 196.508 42.7096 196.326 42.9437 196.064C43.1778 195.802 43.314 195.475 43.3314 195.133C47.0227 193.153 49.9371 191.505 52.514 187.696C54.1151 185.332 56.9982 179.927 52.2942 178.614C46.1724 176.906 42.3272 185.703 41.8274 190.037C41.7688 190.539 41.7706 192.003 41.7909 193.344C41.5804 193.317 41.3667 193.32 41.1574 193.354C39.7522 187.962 38.6303 182.5 37.742 177.03C41.084 176.019 41.6608 159.507 39.4364 157.156C34.4641 151.893 30.9564 159.496 31.222 163.515C31.535 168.254 33.818 172.565 36.5351 176.391C36.829 176.795 36.7435 176.776 36.8182 176.212C36.8419 176.447 36.9428 176.668 37.1067 176.846C36.8825 179.258 36.7881 181.68 36.824 184.101C37.2083 190.443 37.9746 196.76 39.1192 203.02C39.3954 204.537 39.7114 206.041 40.0671 207.533C37.6972 205.697 35.1049 204.132 32.3443 202.869C28.6672 201.318 23.0002 199.644 19.3478 202.27C18.6547 202.765 18.0809 203.392 17.6646 204.11C17.2482 204.829 16.9986 205.623 16.9324 206.439C16.8663 207.255 16.9849 208.075 17.2806 208.844C17.5763 209.614 18.0422 210.316 18.6476 210.903C21.5949 214.004 26.9773 213.895 30.9952 213.589C32.8117 213.452 42.5154 212.72 40.2158 211.227C40.5393 211.348 40.8539 211.489 41.1574 211.649C41.3698 212.38 41.5929 213.109 41.8267 213.836C41.7701 213.867 41.7176 213.901 41.66 213.932C41.7258 213.904 41.7686 213.875 41.8303 213.847C44.1565 221.116 47.5219 228.054 51.8339 234.47C50.222 233.855 48.535 233.431 46.8117 233.208C41.7495 232.606 31.1012 236.304 36.7632 242.65C42.1922 248.729 50.6446 242.207 56.8061 241.307C62.858 249.178 69.3551 256.738 76.2693 263.952C76.0529 264.012 75.8517 264.112 75.6785 264.248C75.5052 264.384 75.3636 264.552 75.2623 264.741C72.4883 263.414 69.6052 261.527 67.0411 261.014C63.3409 260.276 55.7535 259.828 52.9577 262.945C49.5177 266.777 53.2038 269.889 57.2681 270.624C63.1609 271.69 70.8735 268.98 76.5437 267.15C76.8664 267.212 77.2009 267.194 77.5134 267.096C77.8259 266.998 78.1054 266.824 78.3236 266.592C78.4492 266.552 78.5737 266.515 78.696 266.478C85.6891 273.714 92.9498 280.71 100.167 287.552L99.9339 287.541C98.0782 286.347 96.018 285.463 93.8436 284.927C88.7799 283.765 82.8238 283.76 78.7133 287.207C74.6195 290.639 73.1702 296.642 77.4056 300.497C85.8815 308.211 98.369 290.621 102.644 289.886C109.978 296.767 117.733 303.196 125.61 309.496C124.711 309.231 123.787 309.053 122.85 308.963C115.127 308.267 96.9963 317.178 106.476 325.944C114.737 333.582 124.296 318.883 130.954 313.737C138.376 319.609 145.839 325.439 153.093 331.498C149.163 330.425 144.987 330.45 141.073 331.57C136.685 332.82 129.603 335.937 132.378 341.512C135.199 347.182 143.703 344.602 148.128 342.802C150.543 341.82 155.387 338.507 159.639 337.112C171.213 347.394 181.239 358.722 188.829 372.061C193.545 380.419 197.192 389.273 199.696 398.439C201.312 404.277 204.495 414.083 203.857 421.682C206.895 406.472 201.408 388.204 195.486 374.609ZM36.0548 184.9C35.41 184.868 33.3343 178.597 32.6235 177.649C30.4547 174.932 27.6036 172.765 24.3257 171.339C19.1483 168.923 12.2448 171.725 15.1241 178.112C17.4233 183.211 24.3448 184.556 30.3879 184.854C32.4529 184.954 34.4148 184.934 36.0548 184.9Z" fill="#F2F2F2" fill-opacity="0.5"/>
<g opacity="0.7">
<path opacity="0.7" d="M125.02 320.669C139.403 319.961 157.201 327.857 158.739 342.573C159.859 353.265 159.518 363.927 161.248 374.603C162.699 383.11 165.493 391.366 169.538 399.097C173.372 406.57 181.315 412.929 183.383 420.912C184.702 425.999 183.968 433.156 182.155 438.133C179.95 444.185 181.124 443.706 185.524 448.781C194.147 458.728 201.911 468.927 207.404 480.812C215.316 497.924 220.508 517.929 217.582 536.666C217.213 539.045 216.771 547.584 213.29 548.182C209.401 548.85 211.218 543.967 211.425 542.389C212.743 532.324 213.915 523.526 212.315 513.305C206.138 473.866 176.062 447.893 156.465 414.431C155.387 412.705 153.113 408.596 151.532 405.884C149.038 401.604 146.525 393.458 143.147 390.286C136.785 384.308 142.636 396.328 143.876 398.623C145.444 401.526 147.169 404.611 148.775 407.154C156.126 418.944 164.331 431.813 171.923 443.966C139.119 451.012 115.988 413.906 107.174 389.507C99.9123 369.404 91.2118 322.403 125.02 320.669Z" fill="#69A1AC" fill-opacity="0.5"/>
<path opacity="0.7" d="M317.792 283.323C293.753 285.118 278.319 300.045 271.135 320.922C267.263 332.173 266.817 343.731 264.668 355.293C261.431 372.688 254.466 385.871 240.855 398.264C236.961 401.709 233.736 405.768 231.325 410.257C226.752 414.535 223.025 419.547 220.32 425.055C216.739 432.489 215.726 441.417 219.861 448.832C220.972 450.825 223.747 454.827 226.621 456.645C215.858 478.212 209.941 501.833 210.608 525.424C211.011 539.665 211.749 553.91 212.609 568.133C212.841 571.952 214.163 578.259 216.148 571.854C217.965 565.995 215.687 556.8 215.476 550.679C214.45 520.865 213.574 493.757 226.616 465.901C227.984 462.982 229.427 460.086 230.944 457.213C231.032 457.162 231.117 457.108 231.198 457.049C231.256 457.091 231.304 457.136 231.366 457.177C231.463 457.016 231.594 456.822 231.748 456.607C232.205 456.14 232.598 455.621 232.919 455.062C234.078 453.553 235.385 451.781 235.393 450.811C235.393 450.803 235.393 450.792 235.393 450.784C243.622 438.466 252.558 426.578 262.16 415.173C262.089 415.256 272.407 402.038 270.811 409.348C270.042 412.87 262.453 419.579 259.388 423.31C251.752 432.627 244.623 442.303 238.029 452.301C237.139 452.782 235.881 455.146 234.974 456.907C234.472 457.799 234.003 458.698 233.543 459.483C256.987 466.772 275.224 452.091 287.659 435.015C287.674 434.995 287.688 434.975 287.701 434.955C291.486 430.236 295.362 425.551 300.206 421.821C308.286 415.598 316.938 414.5 326.464 411.436C352.444 403.084 363.489 371.403 366.997 347.896C370.953 321.375 351.593 280.709 317.792 283.323Z" fill="#89C5CC" fill-opacity="0.5"/>
<path opacity="0.7" d="M270.305 209.059C245.632 233.222 233.713 266.736 224.272 298.242C213.73 333.432 206.768 369.165 206.504 405.751C206.329 429.788 205.634 453.977 207.125 477.987C207.627 486.528 208.585 495.04 209.994 503.491C210.113 504.184 213.326 523.019 216.404 518.629C218.153 516.133 213.11 499.091 212.729 496.252C210.76 480.257 209.913 464.156 210.192 448.056C210.365 421.543 209.533 395.165 212.388 368.749C212.687 364.736 213.275 360.746 214.146 356.807C215.203 352.704 213.857 354.495 217.3 352.871C220.646 351.293 224.78 351.518 228.252 349.537C242.022 341.681 249.061 321.5 254.548 308.258C260.818 293.116 264.63 276.968 267.674 261.033C269.918 249.386 271.5 237.635 272.414 225.829C272.526 222.038 272.887 218.257 273.497 214.508C273.707 213.516 274.762 211.763 274.723 210.886C274.643 209.028 273.451 207.935 273.353 206.374C272.32 207.248 271.307 208.144 270.314 209.06" fill="#89C5CC" fill-opacity="0.5"/>
<path opacity="0.7" d="M135.771 530.988C135.771 550.178 143.872 568.581 158.292 582.15C172.713 595.719 192.271 603.341 212.664 603.341C233.058 603.341 252.616 595.719 267.036 582.15C281.457 568.581 289.558 550.178 289.558 530.988" fill="#89C5CC" fill-opacity="0.5"/>
<path opacity="0.7" d="M295.333 557.751C292.388 557.84 289.514 556.89 287.275 555.086C285.251 553.286 283.755 551.024 282.933 548.519C280.956 543.159 280.77 536.573 280.645 532.215C280.491 526.749 280.078 520.385 278.167 514.636C277.288 511.923 276.026 509.333 274.414 506.936C272.662 504.362 270.516 502.044 268.045 500.059C266.745 499.002 265.359 497.996 264.018 497.022C262.822 496.154 261.586 495.256 260.416 494.326L259.857 493.883C256.095 490.91 252.205 487.837 251.729 482.97C251.464 480.267 251.926 478.28 253.105 477.064C253.717 476.505 254.45 476.077 255.254 475.809C256.057 475.54 256.913 475.437 257.763 475.507C259.095 475.529 260.421 475.681 261.72 475.963C261.931 476.005 262.487 476.204 263.261 476.48C265.473 477.267 269.16 478.585 271.133 478.585C271.738 478.585 272.136 478.456 272.316 478.204C272.398 478.04 272.436 477.86 272.427 477.679C272.418 477.498 272.362 477.322 272.264 477.167C271.809 476.14 270.248 475.232 267.624 474.47C262.344 473.93 257.358 473.444 254.389 473.444C253.746 473.428 253.103 473.471 252.469 473.573C247.093 474.737 242.18 477.315 238.301 481.006C234.259 484.87 230.952 489.357 228.525 494.274C222.56 505.805 220.282 518.646 219.454 525.274C219.229 527.069 219.027 529.014 218.833 531.221H214.771C214.989 526.422 215.492 521.638 216.277 516.892C217.43 510.473 220.36 498.097 227.021 487.328C229.73 482.766 233.284 478.697 237.514 475.311C241.668 472.029 246.712 469.901 252.08 469.166C252.861 469.099 253.645 469.072 254.429 469.085C255.957 469.085 257.799 469.14 259.612 469.24C261.377 468.309 263.341 467.762 265.36 467.641C266.164 467.584 266.989 467.557 267.811 467.557C272.542 467.608 277.229 468.415 281.672 469.945C286.348 471.53 290.796 473.657 294.912 476.279C299.062 478.892 302.898 481.921 306.354 485.313C309.617 488.476 312.46 491.998 314.823 495.804C318.281 501.469 320.058 508.256 320.104 515.978C320.07 523.034 318.821 530.039 316.406 536.72C314.743 541.636 312.24 546.265 308.995 550.424C305.018 555.234 300.485 557.699 295.525 557.753L295.333 557.751Z" fill="#69A1AC" fill-opacity="0.5"/>
</g>
<path d="M335.51 122.455C332.367 112.593 324.99 104.874 317.331 97.8011C302.422 84.0322 294.403 75.5189 289.088 55.3738C285.964 43.5281 282.783 30.9753 272.871 22.3812C265.656 16.1265 253.235 10.8683 243.584 15.3499C228.736 23.6889 224.749 40.8017 226.246 56.1253C228.102 75.1178 237.53 86.8286 255.643 93.823C265.849 97.7628 272.633 102.961 278.173 112.02C282.605 119.263 285.189 128.333 290.757 134.9C299.083 144.715 309.498 149.08 322.344 147.448C310.315 126.624 296.266 105.604 279.312 88.0757C277.725 86.313 268.366 79.5663 270.254 76.5622C272.333 73.2545 281.941 85.6796 281.873 85.6045C286.799 90.9251 291.357 96.5791 295.828 102.284C295.816 102.288 295.803 102.292 295.79 102.296C300.397 108.153 304.952 114.093 309.455 120.115C311.273 122.66 313.039 125.247 314.726 127.886C317.206 131.764 321.142 142.771 325.2 145.156C325.934 145.608 326.757 145.918 327.619 146.069C330.388 150.335 333.083 154.635 335.645 158.986C342.338 170.349 348.08 182.348 350.716 195.178C351.485 198.922 350.941 212.929 353.658 215.633C358.624 220.576 357.171 211.055 356.872 208.182C354.405 184.383 345.325 164.107 332.141 144.099C336.191 139.122 336.776 126.453 335.504 122.457" fill="#F2F2F2" fill-opacity="0.5"/>
<path d="M165.396 133.958C170.632 128.155 183.221 127.17 190.919 127.56C200.445 128.041 210.23 130.224 219.292 132.863C234.222 137.209 248.728 145.142 261.875 152.819C263.46 153.744 282.98 164.792 281.253 166.731C279.543 168.648 260.374 155.526 256.107 153.266C246.993 148.438 238.636 142.728 228.589 139.538C218.153 136.344 207.223 134.815 196.25 135.012C194.846 135.024 190.27 134.104 190.168 136.057C190.071 137.968 197.648 136.972 198.984 136.983C204.521 137.035 210.043 137.516 215.496 138.42C225.624 140.054 235.31 143.555 243.997 148.72C241.56 154.049 235.72 156.505 229.595 155.172C224.301 154.018 219.141 151.174 213.957 150.352C210.409 149.832 206.782 150.076 203.349 151.068C194.22 153.563 188.95 158.68 178.909 155.121C171.037 152.33 157.874 142.307 165.391 133.956" fill="#F2F2F2" fill-opacity="0.5"/>
<path d="M124.568 94.8799C126.364 94.9352 128.119 94.3617 129.492 93.2703C130.725 92.1867 131.639 90.8208 132.144 89.3057C133.351 86.0677 133.466 82.0863 133.542 79.4508C133.53 75.8602 134.039 72.2849 135.055 68.8238C136.172 65.3883 138.319 62.3293 141.238 60.0146C142.035 59.3733 142.884 58.7637 143.705 58.174C144.434 57.6507 145.187 57.1095 145.9 56.5495L146.224 56.2958L146.245 56.2799C148.542 54.483 150.916 52.6246 151.207 49.6859C151.336 49.071 151.329 48.4376 151.186 47.8254C151.043 47.2132 150.768 46.6352 150.377 46.1277C150.001 45.7859 149.552 45.5241 149.059 45.3599C148.567 45.1958 148.042 45.1331 147.522 45.1762C146.706 45.1892 145.894 45.2816 145.099 45.4517C144.971 45.4775 144.629 45.5984 144.151 45.7649C142.619 46.3871 141.006 46.8128 139.354 47.0306C138.982 47.0306 138.739 46.9523 138.63 46.7977C138.581 46.699 138.558 46.5904 138.564 46.4815C138.57 46.3726 138.604 46.2668 138.664 46.1733C138.942 45.5518 139.896 45.0037 141.5 44.5439C144.724 44.2168 147.769 43.9234 149.583 43.9234C149.977 43.9135 150.37 43.9397 150.758 44.0017C154.035 44.7023 157.035 46.2597 159.413 48.4945C161.878 50.8245 163.899 53.537 165.385 56.5129C168.291 62.4396 170.162 68.7682 170.927 75.2553C171.069 76.3852 171.199 77.6192 171.321 79.0216H173.798C173.67 76.0618 173.359 73.1116 172.867 70.1856C171.788 63.919 169.568 57.8745 166.305 52.3184C164.646 49.5565 162.474 47.0963 159.894 45.0543C157.349 43.0663 154.269 41.7799 150.994 41.3375C150.518 41.2972 150.039 41.281 149.561 41.2889C148.624 41.2889 147.499 41.3226 146.391 41.3881C145.312 40.823 144.112 40.4915 142.879 40.4177C142.389 40.384 141.882 40.3672 141.382 40.3672C138.493 40.3978 135.63 40.886 132.913 41.8113C130.059 42.7681 127.342 44.0546 124.824 45.641C122.292 47.2186 119.948 49.0493 117.834 51.1012C115.843 53.0086 114.106 55.1363 112.66 57.4376C110.466 61.1641 109.353 65.3689 109.435 69.6286C109.455 73.8959 110.218 78.1312 111.693 82.1665C112.712 85.142 114.242 87.9401 116.223 90.4495C118.653 93.3565 121.422 94.8462 124.452 94.8789L124.568 94.8799Z" fill="#F2F2F2" fill-opacity="0.5"/>
</svg>
