<svg width="235" height="562" viewBox="0 0 235 562" fill="none" xmlns="http://www.w3.org/2000/svg">
<path opacity="0.2" d="M23.8645 192.754C24.1544 194.088 24.5767 195.394 25.1259 196.653C24.3719 195.472 23.9386 194.132 23.8645 192.754ZM30.374 159.223C34.4206 150.331 40.0887 142.182 47.1188 135.151C45.3846 130.267 30.8152 123.227 39.5321 118.683C44.162 116.28 48.8994 120.261 49.9087 124.478C50.6013 127.376 49.5387 131.019 48.4167 133.833C50.5891 131.66 52.8428 129.556 55.1777 127.521C58.3943 124.71 61.6865 121.981 65.0109 119.285C59.5378 114.463 54.3612 100.674 61.7061 98.4139C72.5482 95.0873 67.3188 113.903 66.5603 117.429C66.4673 117.439 66.3731 117.428 66.2854 117.397C66.1977 117.366 66.119 117.316 66.0558 117.25C66.1165 117.572 66.1869 117.918 66.272 118.267C72.6351 113.134 79.0937 108.104 85.3361 102.85C84.5586 102.003 83.838 101.111 83.1785 100.178C81.5442 98.426 80.1317 96.4988 78.97 94.4358C77.2187 91.1321 75.5343 85.8635 80.178 83.9179C85.2282 81.7977 87.6232 87.7579 87.6568 91.3132C87.68 93.7728 86.9644 96.1097 86.5917 98.5196C86.4754 99.271 86.9255 102.662 85.8305 101.202C85.8767 101.602 85.8877 102.004 85.8635 102.405C86.9843 101.457 88.0969 100.5 89.2013 99.5338C89.1452 99.4035 89.1125 99.2652 89.1044 99.1247C89.0977 98.9122 89.1487 98.7016 89.2526 98.5131C89.3565 98.3247 89.5097 98.1646 89.6976 98.0482C89.8855 97.9319 90.1017 97.8631 90.3257 97.8486C90.5497 97.8341 90.7738 97.8743 90.9767 97.9653C92.4384 96.6655 93.8787 95.346 95.2978 94.0067C98.3045 91.162 101.357 88.2368 104.384 85.2486C103.727 84.7197 103.989 83.9868 103.375 83.4251C102.762 82.8634 101.55 82.5561 100.834 82.0351C99.0165 80.6363 97.5185 78.9022 96.4309 76.938C94.6386 73.8374 92.3217 67.3227 97.564 65.8406C102.972 64.3106 105.714 70.5784 106.06 74.4984C105.905 77.8747 105.568 81.2412 105.05 84.5847C110.656 79.0325 116.168 73.2709 121.164 67.4102C119.65 67.3982 115.356 64.4921 114.493 63.6991C112.378 61.7642 109.016 57.4879 112.728 55.2231C116.028 53.2145 120.097 56.119 121.508 58.9464C122.082 61.1585 122.452 63.4137 122.613 65.6866C124.681 63.2005 126.652 60.7012 128.489 58.1929C129.712 56.526 130.858 54.8187 131.927 53.071C131.637 52.8979 131.389 52.669 131.198 52.3992C125.696 51.5265 118.68 43.4765 125.15 40.6718C128.228 39.3377 131.565 42.0864 133.071 44.3387C133.604 45.8399 134.01 47.3791 134.284 48.9416C137.336 43.1214 139.757 37.0228 141.509 30.7397C141.254 30.6873 141.024 30.5568 140.854 30.3684C140.685 30.18 140.586 29.9441 140.572 29.697C137.901 28.2699 135.793 27.0813 133.928 24.3348C132.771 22.6296 130.691 18.7323 134.089 17.7833C138.517 16.5495 141.3 22.8945 141.661 26.0226C141.703 26.3859 141.701 27.4416 141.689 28.4077C141.842 28.388 141.998 28.3907 142.15 28.4155C143.17 24.5247 143.984 20.5838 144.635 16.636C142.218 15.9073 141.806 3.99631 143.416 2.29931C147.017 -1.50074 149.554 3.98407 149.36 6.88423C148.971 10.2501 147.641 13.4569 145.509 16.1747C145.298 16.4664 145.359 16.4535 145.304 16.0463C145.287 16.2156 145.214 16.3756 145.095 16.5032C145.257 18.245 145.324 19.9934 145.296 21.7416C145.016 26.3177 144.459 30.8748 143.629 35.3907C143.428 36.486 143.198 37.5718 142.94 38.6481C144.658 37.3222 146.535 36.1921 148.532 35.281C151.195 34.1586 155.297 32.9519 157.939 34.8458C158.44 35.1997 158.855 35.6511 159.156 36.1695C159.457 36.6879 159.638 37.2614 159.685 37.8514C159.733 38.4413 159.647 39.0341 159.432 39.5899C159.218 40.1456 158.88 40.6514 158.442 41.0733C156.307 43.3112 152.412 43.2312 149.505 43.0151C148.189 42.917 141.166 42.3932 142.831 41.3143C142.597 41.4018 142.369 41.5038 142.149 41.6195C141.995 42.1467 141.833 42.6726 141.664 43.1973C141.706 43.2199 141.741 43.244 141.785 43.2665C141.738 43.2471 141.703 43.225 141.663 43.2053C139.973 48.4558 137.534 53.463 134.413 58.088C135.58 57.6432 136.801 57.3365 138.048 57.1748C141.713 56.7384 149.419 59.4049 145.318 63.9834C141.385 68.3713 135.27 63.6681 130.811 63.02C126.422 68.7042 121.714 74.1607 116.707 79.3659C116.863 79.4083 117.009 79.4808 117.134 79.5786C117.259 79.6765 117.362 79.7977 117.436 79.9347C119.442 78.9796 121.533 77.6142 123.39 77.2428C126.067 76.7138 131.56 76.3838 133.582 78.6303C136.07 81.3944 133.4 83.6411 130.458 84.1733C126.193 84.9435 120.61 82.9915 116.508 81.6731C116.275 81.7188 116.033 81.7057 115.807 81.635C115.581 81.5644 115.379 81.4387 115.22 81.2706L114.95 81.185C109.89 86.3933 104.627 91.4443 99.4017 96.3836L99.5675 96.3754C100.913 95.5129 102.404 94.8742 103.976 94.487C107.641 93.6476 111.953 93.6415 114.925 96.1221C117.897 98.6027 118.933 102.927 115.868 105.709C109.73 111.279 100.698 98.5919 97.6042 98.0641C92.2932 103.03 86.6778 107.672 80.9736 112.219C81.6243 112.029 82.2937 111.901 82.9715 111.837C88.5618 111.333 101.681 117.754 94.8165 124.082C88.8343 129.596 81.9203 118.991 77.1028 115.284C71.7276 119.523 66.3246 123.732 61.0718 128.105C63.9165 127.33 66.9369 127.346 69.772 128.153C72.9482 129.053 78.0717 131.3 76.062 135.323C74.0172 139.413 67.8643 137.555 64.6588 136.258C62.9123 135.553 59.4078 133.162 56.3303 132.157C47.8789 139.418 40.7375 147.938 35.1886 157.38C31.7755 163.406 29.1325 169.795 27.3153 176.412C26.1496 180.63 23.8424 187.705 24.2994 193.187C22.1081 182.215 26.0893 169.035 30.374 159.223ZM145.375 21.8644C145.831 21.8418 147.301 17.3711 147.808 16.6934C149.343 14.7577 151.362 13.2128 153.683 12.1972C157.352 10.4753 162.237 12.4728 160.198 17.0232C158.569 20.657 153.667 21.6153 149.386 21.8277C147.923 21.9033 146.535 21.889 145.375 21.8644Z" fill="#C1DEE2" fill-opacity="0.5"/>
<g opacity="0.5">
<path opacity="0.5" d="M129.669 147.098C134.055 141.173 142.2 126.124 148.376 124.007C152.355 122.643 151.196 136.749 151.244 139.44C151.267 149.831 150.532 160.212 149.044 170.507C146.666 189.118 138.881 205.695 128.207 221.532C122.714 229.682 116.27 237.931 107.347 243.017C103.239 245.359 98.2965 245.751 94.2398 247.769C89.5159 250.117 92.0888 248.219 89.9586 252.881C87.0014 259.355 86.0564 267.705 84.6885 274.612C78.4087 306.319 63.201 473.925 65.8376 506.176C66.0715 509.035 61.8623 509.718 61.6525 506.228C60.5362 487.725 70.1992 359.587 75.0756 317.683C79.952 275.779 84.8848 238.758 89.8323 224.26C95.8333 206.671 106.673 185.521 115.695 169.117C119.837 161.494 124.505 154.139 129.669 147.098Z" fill="#69A1AC" fill-opacity="0.5"/>
<path opacity="0.5" d="M162.239 352.62C173.657 344.681 186.017 359.663 175.684 367.603C169.972 371.992 164 370.431 160.638 366.774C158.456 369.293 156.413 371.927 154.45 374.152C148.47 380.932 142.819 387.874 137.417 394.977C126.199 409.735 116.581 425.325 106.527 440.631C96.6068 455.737 86.7611 470.921 77.7684 486.409C70.15 499.532 59.9972 514.97 57.3867 529.356C61.3442 498.845 76.3619 469.518 94.2469 442.622C111.983 415.944 132.338 386.811 159.803 365.758C159.021 364.755 158.462 363.611 158.161 362.397C157.859 361.183 157.821 359.923 158.049 358.695C158.277 357.466 158.766 356.294 159.486 355.25C160.206 354.206 161.143 353.311 162.239 352.62Z" fill="#C1DEE2" fill-opacity="0.5"/>
<path opacity="0.5" d="M-54.4332 278.21C-48.0438 279.397 -37.6028 293.082 -32.3359 298.298C-26.1221 304.508 -20.3457 311.097 -15.044 318.024C-3.47906 332.945 6.7546 348.752 15.5511 365.281C29.8971 392.07 41.3038 420.182 49.592 449.176C54.5956 467.225 58.0496 485.628 59.9201 504.204C60.2887 507.688 64.146 534.551 58.5877 535.275C53.5892 535.927 55.1325 514.878 54.8913 512.015C52.1659 479.715 43.9971 448.283 32.6394 417.836C30.1646 411.203 27.8664 403.08 23.9099 397.111C21.0603 392.812 23.889 394.311 18.8821 392.684C14.5821 391.285 9.68268 391.627 5.27929 389.915C-4.28662 386.199 -11.95 378.988 -18.659 371.734C-31.7115 357.636 -42.049 342.384 -47.435 324.319C-50.5858 314.349 -53.0129 304.186 -54.6995 293.903C-55.0932 291.233 -58.5484 277.448 -54.4332 278.21Z" fill="#69A1AC" fill-opacity="0.5"/>
<path opacity="0.5" d="M-29.2182 50.4542C-5.14939 89.9839 14.6298 133.406 27.4004 177.388C35.1379 204.035 40.55 231.381 45.9265 258.526C54.254 300.559 62.1252 342.589 64.365 385.374C66.6184 428.402 71.074 478.033 56.1973 519.467C63.6288 477.392 56.5534 432.605 55.3003 390.269C54.702 370.058 52.9665 350.045 50.6912 329.952C48.4827 310.461 44.875 291.063 41.5159 271.725C39.8792 262.307 38.1776 252.901 36.4108 243.506C35.8887 240.701 35.6673 232.381 33.7898 230.465C31.9124 228.55 22.2535 227.746 19.2253 226.336C13.0929 223.334 7.40728 219.576 2.31663 215.161C-7.41426 206.962 -15.8796 196.251 -22.5614 185.692C-38.0208 161.257 -44.2014 131.438 -43.8892 103.14C-43.8296 97.6458 -34.5029 38.4827 -38.2463 37.6679C-38.0208 37.418 -37.8074 37.1589 -37.6062 36.8906C-34.7716 41.3887 -31.9756 45.9099 -29.2182 50.4542Z" fill="#89C5CC" fill-opacity="0.5"/>
<path opacity="0.5" d="M230.563 193.022C230.935 192.515 233.351 188.987 232.129 189.212C234.612 188.753 228.726 193.103 234.9 190.434C231.968 193.057 233.661 196.466 233.7 199.992C233.606 205.717 232.907 211.419 231.611 217.012C229.876 225.863 227.065 234.496 223.235 242.736C214.748 260.7 200.339 277.994 183.231 289.225C174.786 294.771 166.51 296.659 156.877 299.213C150.793 300.826 150.311 303.806 147.081 309.398C140.358 321.044 133.754 332.646 127.825 344.685C120.745 359.059 113.873 373.45 107.389 388.077C85.5476 437.347 67.7712 488.394 58.4308 541.222C58.2021 510.091 65.807 478.032 75.399 448.354C82.3868 426.734 91.4797 405.894 101.186 385.263C103.537 380.265 107.1 373.836 108.098 368.318C108.797 364.453 106.66 360.735 105.681 356.661C101.865 340.802 102.139 323.039 105.489 307.09C109.183 289.509 119.865 281.349 137.936 278.859C144.545 277.948 152.945 278.281 159.005 275.613C165.607 272.707 168.331 263.153 172.085 257.022C182.141 240.404 194.159 224.923 207.907 210.876C211.718 207.046 215.815 203.479 220.165 200.204C222.906 198.131 228.696 195.576 230.563 193.022Z" fill="#89C5CC" fill-opacity="0.5"/>
<path opacity="0.5" d="M22.7667 513.267C22.6574 512.564 22.7092 511.848 22.9185 511.166C23.1279 510.484 23.4899 509.852 23.98 509.315C24.47 508.777 25.0766 508.346 25.7585 508.05C26.4403 507.755 27.1814 507.602 27.9313 507.602H92.064C92.8139 507.602 93.555 507.755 94.2368 508.05C94.9187 508.346 95.5253 508.777 96.0153 509.315C96.5054 509.852 96.8674 510.484 97.0768 511.166C97.2861 511.848 97.3379 512.564 97.2286 513.267L92.2718 545.098C91.5407 549.793 89.0516 554.082 85.2587 557.183C81.4659 560.284 76.6221 561.99 71.6112 561.99H48.3841C43.3732 561.99 38.5294 560.284 34.7366 557.183C30.9437 554.082 28.4546 549.793 27.7235 545.098L22.7667 513.267Z" fill="#C1DEE2" fill-opacity="0.5"/>
</g>
<path d="M-27.8008 497.895C-27.8008 518.945 -26.0465 536.01 -2.50193 536.01C21.0427 536.01 22.7969 518.945 22.7969 497.895" fill="#F2F2F2" fill-opacity="0.5"/>
<path d="M4.50137 484.76C3.6478 486.158 2.87602 487.6 2.18951 489.078C2.15115 486.025 2.36271 482.974 2.82229 479.952C3.64303 474.683 4.89816 469.44 6.07602 464.205C6.92286 460.448 6.86961 453.687 10.0847 450.689C10.966 450.042 11.178 451.312 11.178 451.864C11.1895 451.981 11.178 449.612 10.3196 450.025C5.23335 452.513 3.5856 460.334 1.9577 464.251C-0.52523 469.864 -2.28113 475.741 -3.27165 481.754C-3.47984 483.248 -3.59698 484.751 -3.6225 486.258C-3.79584 485.857 -3.95769 485.453 -4.13729 485.053C-7.17476 478.328 -11.1567 472.021 -15.9754 466.304C-17.1919 464.864 -32.4831 450.619 -33.6798 452.8C-33.5418 453.14 -33.2779 453.421 -32.9373 453.591C-32.9154 453.614 -32.9144 453.602 -32.9279 453.566C-32.0299 454.94 -29.4769 457.062 -28.6812 458.265C-26.7773 461.3 -25.0615 464.436 -23.5427 467.66C-20.2013 474.324 -17.1042 481.055 -14.1 487.801C-13.4004 489.373 -12.6715 490.935 -11.9281 492.493C-19.5946 482.017 -29.8215 472.515 -43.9004 467.072C-39.0971 469.389 -35.9394 473.747 -32.692 477.085C-28.7752 481.11 -24.6516 485.027 -20.7265 489.05C-16.0986 493.797 -10.6521 498.789 -6.20063 504.038C-1.88809 512.611 2.30124 521.194 4.88876 530.207C3.8289 527.093 4.80523 522.79 4.62458 519.527C4.46959 516.925 4.16598 514.333 3.71508 511.763C4.25786 512.85 4.66876 513.993 4.93993 515.168C4.7457 513.354 4.52225 511.552 4.28313 509.76C4.8992 508.079 5.5038 506.516 5.91208 505.226C7.95177 498.527 10.6224 492.015 13.8918 485.768C17.0963 479.824 20.6598 474.06 24.5646 468.504C26.3961 465.888 28.2527 463.281 30.0989 460.669C31.3059 458.959 32.4556 456.219 34.1368 454.585C23.2698 463.994 11.3973 473.472 4.50241 484.76" fill="#F2F2F2" fill-opacity="0.5"/>
</svg>
