<svg width="237" height="605" viewBox="0 0 237 605" fill="none" xmlns="http://www.w3.org/2000/svg">
<path d="M203.783 422.369C203.458 424.357 202.996 426.324 202.4 428.256C203.214 426.382 203.682 424.391 203.783 422.369ZM194.98 375.275C189.54 362.774 181.399 351.799 171.864 341.921C174.257 335.148 194.398 325.381 182.358 319.089C175.963 315.761 169.415 321.282 168.017 327.129C167.055 331.15 168.521 336.194 170.072 340.094C167.076 337.082 163.965 334.167 160.74 331.349C156.299 327.458 151.752 323.675 147.161 319.94C154.726 313.252 161.888 294.135 151.742 291.009C136.764 286.406 143.976 312.481 145.02 317.369C145.149 317.383 145.28 317.368 145.401 317.324C145.523 317.281 145.632 317.211 145.719 317.12C145.635 317.568 145.537 318.046 145.418 318.53C136.637 311.421 127.714 304.457 119.092 297.173C119.869 296.633 121.104 294.569 122.074 293.469C124.337 291.036 126.291 288.364 127.897 285.507C130.317 280.928 132.651 273.623 126.237 270.93C119.261 267.994 115.947 276.256 115.898 281.185C115.865 284.593 116.852 287.831 117.365 291.173C117.526 292.215 116.908 296.907 118.416 294.892C118.352 295.445 118.336 296.003 118.37 296.559C116.826 295.245 115.289 293.919 113.759 292.581C113.838 292.4 113.884 292.209 113.896 292.014C113.909 291.72 113.841 291.429 113.699 291.167C113.556 290.906 113.344 290.683 113.083 290.522C112.822 290.36 112.521 290.265 112.21 290.245C111.898 290.226 111.586 290.282 111.305 290.409C109.291 288.608 107.302 286.78 105.337 284.924C101.185 280.984 96.9739 276.931 92.7902 272.793C93.698 272.059 93.338 271.043 94.1861 270.265C95.0343 269.487 96.7026 269.058 97.6985 268.335C100.215 266.391 102.287 263.987 103.788 261.268C106.269 256.965 109.475 247.937 102.227 245.886C94.7506 243.768 90.963 252.459 90.4832 257.892C90.6934 262.571 91.1556 267.237 91.8678 271.873C84.1281 264.179 76.5161 256.198 69.6187 248.078C71.7102 248.06 77.639 244.029 78.8374 242.928C81.762 240.245 86.4105 234.316 81.2849 231.179C76.7272 228.396 71.1074 232.427 69.1573 236.344C68.3607 239.411 67.846 242.537 67.6191 245.687C64.7647 242.243 62.0411 238.78 59.508 235.305C57.8175 232.995 56.2357 230.627 54.7626 228.201C55.1616 227.96 55.5026 227.643 55.7638 227.27C63.3667 226.057 73.0607 214.894 64.13 211.009C59.8787 209.161 55.2658 212.973 53.1839 216.094C52.4457 218.176 51.8839 220.309 51.5037 222.475C47.2873 214.402 43.9458 205.951 41.5297 197.249C41.8847 197.174 42.2037 196.992 42.4378 196.73C42.6719 196.468 42.8082 196.141 42.8256 195.799C46.5168 193.819 49.4313 192.171 52.0082 188.362C53.6092 185.998 56.4924 180.593 51.7883 179.28C45.6666 177.572 41.8213 186.369 41.3216 190.703C41.263 191.205 41.2648 192.669 41.285 194.01C41.0746 193.983 40.8609 193.986 40.6516 194.02C39.2463 188.628 38.1245 183.166 37.2362 177.696C40.5781 176.685 41.155 160.173 38.9306 157.822C33.9582 152.559 30.4506 160.162 30.7161 164.181C31.0292 168.92 33.3121 173.231 36.0292 177.057C36.3231 177.461 36.2377 177.442 36.3123 176.878C36.3361 177.113 36.4369 177.334 36.6009 177.512C36.3767 179.924 36.2823 182.346 36.3181 184.767C36.7025 191.109 37.4688 197.426 38.6133 203.686C38.8896 205.203 39.2055 206.707 39.5612 208.199C37.1913 206.363 34.599 204.798 31.8384 203.535C28.1613 201.984 22.4944 200.31 18.842 202.936C18.1488 203.431 17.5751 204.058 17.1587 204.776C16.7423 205.495 16.4928 206.289 16.4266 207.105C16.3604 207.921 16.4791 208.741 16.7747 209.51C17.0704 210.28 17.5363 210.982 18.1417 211.569C21.0891 214.67 26.4714 214.561 30.4893 214.255C32.3059 214.118 42.0095 213.387 39.7099 211.893C40.0334 212.014 40.348 212.155 40.6515 212.315C40.864 213.046 41.0871 213.775 41.3208 214.502C41.2643 214.533 41.2117 214.567 41.1541 214.598C41.22 214.57 41.2628 214.541 41.3244 214.513C43.6507 221.782 47.016 228.72 51.328 235.136C49.7162 234.521 48.0291 234.097 46.3058 233.874C41.2437 233.272 30.5953 236.97 36.2573 243.316C41.6863 249.395 50.1387 242.873 56.3002 241.974C62.3521 249.844 68.8492 257.404 75.7634 264.618C75.547 264.678 75.3459 264.778 75.1726 264.914C74.9994 265.05 74.8577 265.218 74.7565 265.407C71.9825 264.08 69.0994 262.193 66.5353 261.68C62.8351 260.942 55.2476 260.494 52.4518 263.611C49.0118 267.443 52.6979 270.556 56.7622 271.29C62.655 272.356 70.3677 269.646 76.0378 267.816C76.3605 267.878 76.695 267.86 77.0075 267.762C77.3201 267.664 77.5996 267.49 77.8178 267.258C77.9434 267.218 78.0678 267.181 78.1901 267.144C85.1833 274.38 92.444 281.376 99.6615 288.218L99.428 288.207C97.5723 287.013 95.5121 286.129 93.3377 285.593C88.274 284.431 82.3179 284.426 78.2074 287.873C74.1136 291.305 72.6643 297.308 76.8998 301.163C85.3756 308.878 97.8631 291.287 102.138 290.552C109.473 297.433 117.227 303.862 125.104 310.162C124.206 309.897 123.281 309.719 122.344 309.629C114.621 308.933 96.4905 317.844 105.97 326.61C114.231 334.248 123.79 319.549 130.448 314.403C137.87 320.275 145.333 326.105 152.587 332.164C148.658 331.091 144.481 331.116 140.567 332.236C136.179 333.486 129.098 336.603 131.872 342.178C134.693 347.848 143.197 345.268 147.622 343.468C150.038 342.486 154.881 339.173 159.134 337.778C170.707 348.06 180.733 359.388 188.323 372.727C193.039 381.085 196.686 389.939 199.19 399.105C200.806 404.943 203.989 414.749 203.352 422.348C206.39 407.138 200.902 388.87 194.98 375.275ZM35.549 185.566C34.9042 185.534 32.8285 179.263 32.1176 178.315C29.9488 175.598 27.0978 173.431 23.8198 172.005C18.6425 169.59 11.7389 172.391 14.6183 178.778C16.9174 183.877 23.8389 185.222 29.8821 185.52C31.947 185.62 33.909 185.6 35.549 185.566Z" fill="#F2F2F2" fill-opacity="0.5"/>
<g opacity="0.7">
<path opacity="0.7" d="M124.515 321.337C138.898 320.629 156.696 328.525 158.234 343.241C159.354 353.933 159.013 364.595 160.743 375.271C162.194 383.778 164.988 392.034 169.033 399.765C172.867 407.238 180.81 413.597 182.878 421.58C184.197 426.667 183.463 433.824 181.65 438.801C179.446 444.852 180.619 444.374 185.019 449.449C193.642 459.395 201.406 469.595 206.899 481.48C214.811 498.592 220.003 518.597 217.077 537.334C216.708 539.713 216.266 548.252 212.785 548.85C208.896 549.518 210.713 544.635 210.92 543.057C212.238 532.992 213.41 524.194 211.81 513.973C205.633 474.534 175.557 448.561 155.96 415.099C154.882 413.373 152.608 409.264 151.027 406.552C148.534 402.272 146.02 394.126 142.642 390.954C136.28 384.976 142.131 396.996 143.371 399.291C144.939 402.194 146.664 405.279 148.27 407.822C155.621 419.612 163.826 432.481 171.418 444.634C138.614 451.68 115.483 414.574 106.669 390.175C99.4074 370.072 90.7069 323.071 124.515 321.337Z" fill="#69A1AC" fill-opacity="0.5"/>
<path opacity="0.7" d="M317.287 283.991C293.248 285.786 277.814 300.713 270.631 321.59C266.759 332.841 266.312 344.399 264.163 355.961C260.926 373.356 253.962 386.538 240.35 398.932C236.456 402.377 233.231 406.436 230.82 410.924C226.247 415.203 222.52 420.215 219.815 425.723C216.234 433.157 215.221 442.085 219.356 449.5C220.467 451.493 223.242 455.495 226.117 457.313C215.354 478.88 209.436 502.501 210.103 526.092C210.506 540.333 211.244 554.578 212.104 568.801C212.336 572.62 213.658 578.927 215.643 572.522C217.46 566.663 215.182 557.468 214.971 551.347C213.945 521.533 213.069 494.425 226.111 466.569C227.479 463.65 228.922 460.754 230.439 457.881C230.527 457.83 230.612 457.776 230.693 457.717C230.751 457.759 230.799 457.804 230.861 457.845C230.958 457.684 231.089 457.49 231.243 457.275C231.7 456.808 232.093 456.289 232.414 455.73C233.573 454.221 234.88 452.449 234.888 451.479C234.888 451.471 234.888 451.46 234.888 451.452C243.118 439.134 252.053 427.246 261.655 415.841C261.585 415.924 271.902 402.706 270.306 410.016C269.537 413.538 261.948 420.247 258.883 423.978C251.247 433.295 244.118 442.971 237.524 452.969C236.634 453.45 235.376 455.814 234.47 457.574C233.967 458.467 233.498 459.365 233.038 460.151C256.482 467.44 274.719 452.759 287.154 435.683C287.169 435.663 287.183 435.643 287.196 435.623C290.981 430.904 294.857 426.219 299.701 422.489C307.781 416.266 316.433 415.168 325.959 412.104C351.939 403.752 362.984 372.071 366.492 348.564C370.448 322.043 351.088 281.377 317.287 283.991Z" fill="#89C5CC" fill-opacity="0.5"/>
<path opacity="0.7" d="M269.8 209.725C245.127 233.888 233.208 267.402 223.767 298.908C213.225 334.098 206.263 369.831 205.999 406.417C205.824 430.455 205.129 454.643 206.621 478.653C207.123 487.194 208.08 495.706 209.49 504.157C209.608 504.85 212.821 523.685 215.899 519.295C217.648 516.799 212.605 499.757 212.224 496.918C210.255 480.923 209.408 464.822 209.687 448.722C209.86 422.209 209.028 395.831 211.883 369.415C212.183 365.402 212.77 361.412 213.641 357.473C214.698 353.37 213.352 355.161 216.795 353.537C220.141 351.959 224.275 352.184 227.747 350.203C241.517 342.347 248.556 322.166 254.043 308.924C260.313 293.782 264.125 277.634 267.169 261.699C269.413 250.052 270.995 238.301 271.91 226.495C272.021 222.704 272.382 218.923 272.992 215.174C273.202 214.182 274.257 212.429 274.219 211.552C274.138 209.694 272.946 208.601 272.848 207.04C271.815 207.914 270.802 208.81 269.809 209.726" fill="#89C5CC" fill-opacity="0.5"/>
<path opacity="0.7" d="M135.266 531.656C135.266 550.845 143.367 569.249 157.787 582.818C172.208 596.386 191.766 604.009 212.159 604.009C232.553 604.009 252.111 596.386 266.531 582.818C280.952 569.249 289.053 550.845 289.053 531.656" fill="#89C5CC" fill-opacity="0.5"/>
<path opacity="0.7" d="M294.828 558.417C291.883 558.506 289.009 557.556 286.77 555.753C284.746 553.952 283.25 551.69 282.428 549.185C280.451 543.825 280.265 537.239 280.14 532.881C279.986 527.415 279.573 521.051 277.662 515.302C276.783 512.589 275.521 509.999 273.909 507.602C272.157 505.028 270.011 502.71 267.54 500.725C266.241 499.668 264.854 498.662 263.514 497.688C262.317 496.82 261.081 495.922 259.911 494.992L259.352 494.549C255.59 491.576 251.7 488.503 251.224 483.636C250.959 480.933 251.421 478.946 252.6 477.73C253.212 477.171 253.945 476.743 254.749 476.475C255.553 476.206 256.408 476.103 257.258 476.173C258.59 476.195 259.916 476.347 261.215 476.629C261.426 476.671 261.982 476.87 262.756 477.146C264.968 477.933 268.655 479.251 270.628 479.251C271.233 479.251 271.632 479.122 271.811 478.87C271.893 478.706 271.931 478.526 271.922 478.345C271.913 478.164 271.857 477.988 271.759 477.833C271.304 476.806 269.743 475.898 267.119 475.136C261.839 474.596 256.853 474.11 253.884 474.11C253.241 474.094 252.598 474.137 251.964 474.239C246.588 475.403 241.675 477.981 237.796 481.672C233.754 485.536 230.447 490.023 228.02 494.94C222.055 506.471 219.777 519.312 218.949 525.94C218.724 527.735 218.522 529.68 218.328 531.887H214.266C214.484 527.088 214.987 522.304 215.772 517.558C216.925 511.139 219.855 498.763 226.516 487.994C229.225 483.432 232.779 479.363 237.009 475.977C241.163 472.695 246.207 470.567 251.575 469.832C252.356 469.765 253.14 469.738 253.924 469.751C255.452 469.751 257.295 469.807 259.107 469.906C260.872 468.975 262.836 468.428 264.855 468.307C265.659 468.25 266.484 468.223 267.307 468.223C272.037 468.274 276.725 469.081 281.168 470.611C285.844 472.196 290.291 474.323 294.407 476.945C298.557 479.558 302.393 482.587 305.849 485.979C309.112 489.142 311.956 492.664 314.318 496.47C317.776 502.135 319.553 508.922 319.599 516.644C319.565 523.7 318.316 530.705 315.901 537.386C314.239 542.302 311.735 546.931 308.49 551.09C304.513 555.9 299.98 558.365 295.02 558.419L294.828 558.417Z" fill="#69A1AC" fill-opacity="0.5"/>
</g>
<path d="M335.007 123.121C331.865 113.259 324.487 105.54 316.828 98.4671C301.919 84.6982 293.9 76.185 288.585 56.0398C285.461 44.1941 282.28 31.6414 272.368 23.0472C265.153 16.7925 252.732 11.5343 243.081 16.0159C228.233 24.3549 224.246 41.4678 225.743 56.7913C227.599 75.7838 237.027 87.4946 255.14 94.489C265.346 98.4288 272.13 103.627 277.67 112.686C282.102 119.929 284.686 128.999 290.255 135.566C298.58 145.381 308.995 149.746 321.841 148.115C309.812 127.29 295.763 106.27 278.809 88.7417C277.222 86.979 267.864 80.2323 269.751 77.2282C271.831 73.9205 281.438 86.3456 281.37 86.2705C286.296 91.5912 290.854 97.2451 295.325 102.95C295.313 102.954 295.3 102.958 295.287 102.962C299.894 108.819 304.449 114.759 308.952 120.781C310.77 123.326 312.536 125.913 314.223 128.552C316.703 132.431 320.639 143.437 324.697 145.822C325.431 146.274 326.254 146.584 327.117 146.735C329.885 151.001 332.58 155.301 335.142 159.652C341.835 171.015 347.577 183.014 350.213 195.844C350.982 199.588 350.438 213.595 353.155 216.299C358.121 221.242 356.668 211.721 356.369 208.848C353.902 185.049 344.822 164.773 331.638 144.765C335.688 139.788 336.273 127.119 335.001 123.123" fill="#F2F2F2" fill-opacity="0.5"/>
<path d="M164.893 134.624C170.129 128.821 182.718 127.836 190.416 128.226C199.942 128.708 209.727 130.89 218.789 133.529C233.719 137.875 248.225 145.808 261.373 153.485C262.957 154.41 282.477 165.458 280.75 167.397C279.041 169.314 259.872 156.192 255.604 153.932C246.49 149.104 238.133 143.394 228.087 140.204C217.65 137.01 206.72 135.481 195.747 135.678C194.343 135.69 189.767 134.77 189.665 136.723C189.568 138.634 197.145 137.638 198.481 137.649C204.018 137.701 209.54 138.182 214.993 139.086C225.121 140.72 234.807 144.221 243.494 149.386C241.058 154.715 235.218 157.171 229.093 155.838C223.798 154.684 218.638 151.84 213.454 151.018C209.906 150.498 206.279 150.742 202.846 151.734C193.718 154.229 188.447 159.346 178.406 155.787C170.534 152.996 157.371 142.973 164.888 134.622" fill="#F2F2F2" fill-opacity="0.5"/>
<path d="M124.065 95.5459C125.862 95.6012 127.616 95.0277 128.989 93.9363C130.222 92.8528 131.136 91.4868 131.641 89.9717C132.848 86.7337 132.963 82.7523 133.039 80.1168C133.027 76.5262 133.536 72.9509 134.552 69.4898C135.669 66.0544 137.816 62.9954 140.735 60.6806C141.532 60.0393 142.381 59.4298 143.202 58.84C143.931 58.3167 144.684 57.7755 145.398 57.2155L145.721 56.9618L145.742 56.946C148.039 55.149 150.414 53.2906 150.704 50.3519C150.833 49.737 150.826 49.1036 150.683 48.4914C150.541 47.8792 150.265 47.3013 149.874 46.7937C149.498 46.4519 149.049 46.1901 148.556 46.0259C148.064 45.8618 147.539 45.7991 147.019 45.8422C146.203 45.8552 145.391 45.9476 144.596 46.1178C144.468 46.1435 144.126 46.2644 143.648 46.431C142.116 47.0531 140.503 47.4788 138.851 47.6966C138.479 47.6966 138.236 47.6183 138.127 47.4637C138.078 47.365 138.055 47.2564 138.061 47.1476C138.067 47.0387 138.101 46.9328 138.161 46.8393C138.439 46.2179 139.393 45.6698 140.997 45.2099C144.221 44.8828 147.266 44.5894 149.08 44.5894C149.474 44.5795 149.867 44.6058 150.256 44.6677C153.532 45.3683 156.532 46.9257 158.91 49.1606C161.375 51.4905 163.396 54.203 164.882 57.1789C167.788 63.1056 169.659 69.4343 170.424 75.9213C170.566 77.0512 170.696 78.2852 170.818 79.6877H173.295C173.167 76.7279 172.856 73.7776 172.364 70.8517C171.285 64.585 169.065 58.5405 165.802 52.9844C164.143 50.2225 161.972 47.7623 159.391 45.7203C156.846 43.7323 153.766 42.4459 150.491 42.0035C150.015 41.9632 149.536 41.947 149.058 41.955C148.121 41.955 146.996 41.9887 145.888 42.0541C144.809 41.489 143.609 41.1575 142.377 41.0838C141.886 41.0501 141.379 41.0332 140.879 41.0332C137.99 41.0638 135.127 41.552 132.41 42.4773C129.556 43.4342 126.839 44.7206 124.321 46.3071C121.789 47.8846 119.445 49.7153 117.331 51.7672C115.341 53.6747 113.603 55.8023 112.157 58.1036C109.963 61.8301 108.85 66.0349 108.932 70.2946C108.953 74.5619 109.715 78.7972 111.19 82.8326C112.209 85.808 113.739 88.6061 115.72 91.1155C118.15 94.0225 120.919 95.5122 123.949 95.5449L124.065 95.5459Z" fill="#F2F2F2" fill-opacity="0.5"/>
</svg>
