<svg width="27" height="19" viewBox="0 0 27 19" fill="none" xmlns="http://www.w3.org/2000/svg">
<path d="M26.4342 6.19141C26.6348 6.04004 26.9331 6.18164 26.9331 6.4209V16.4062C26.9331 17.7002 25.8273 18.75 24.4643 18.75H3.06837C1.70541 18.75 0.599609 17.7002 0.599609 16.4062V6.42578C0.599609 6.18164 0.892775 6.04492 1.09851 6.19629C2.25059 7.0459 3.77814 8.125 9.02427 11.7432C10.1095 12.4951 11.9405 14.0771 13.7663 14.0674C15.6025 14.082 17.4695 12.4658 18.5136 11.7432C23.7597 8.125 25.2821 7.04102 26.4342 6.19141ZM13.7663 12.5C14.9596 12.5195 16.6774 11.0742 17.5415 10.4785C24.3666 5.77637 24.8861 5.36621 26.4599 4.19434C26.7582 3.97461 26.9331 3.63281 26.9331 3.27148V2.34375C26.9331 1.0498 25.8273 0 24.4643 0H3.06837C1.70541 0 0.599609 1.0498 0.599609 2.34375V3.27148C0.599609 3.63281 0.77448 3.96973 1.07279 4.19434C2.64663 5.36133 3.1661 5.77637 9.9912 10.4785C10.8553 11.0742 12.5731 12.5195 13.7663 12.5Z" fill="white"/>
</svg>
