<svg width="154" height="342" viewBox="0 0 154 342" fill="none" xmlns="http://www.w3.org/2000/svg">
<path d="M141.195 194.422H33.2854C31.239 194.422 29.5801 196.081 29.5801 198.128V202.377C29.5801 204.423 31.239 206.082 33.2854 206.082H141.195C143.242 206.082 144.901 204.423 144.901 202.377V198.128C144.901 196.081 143.242 194.422 141.195 194.422Z" fill="#263238"/>
<path d="M140.17 335.908H144.9L139.462 206.082H132.911L140.17 335.908Z" fill="#0E9E70"/>
<path opacity="0.6" d="M140.17 335.908H144.9L139.462 206.082H132.911L140.17 335.908Z" fill="white"/>
<path d="M96.6291 335.908H91.8994L97.3373 206.082H103.888L96.6291 335.908Z" fill="#0E9E70"/>
<path opacity="0.6" d="M96.6291 335.908H91.8994L97.3373 206.082H103.888L96.6291 335.908Z" fill="white"/>
<path d="M77.8624 335.908H82.5921L77.1416 206.082H70.6035L77.8624 335.908Z" fill="#0E9E70"/>
<path opacity="0.6" d="M77.8624 335.908H82.5921L77.1416 206.082H70.6035L77.8624 335.908Z" fill="white"/>
<path d="M34.3098 335.908H29.5801L35.0306 206.082H41.5686L34.3098 335.908Z" fill="#0E9E70"/>
<path opacity="0.6" d="M34.3098 335.908H29.5801L35.0306 206.082H41.5686L34.3098 335.908Z" fill="white"/>
<g opacity="0.3">
<path opacity="0.3" d="M139.463 206.07H132.912L133.216 211.596H139.69L139.463 206.07Z" fill="#0E9E70"/>
<path opacity="0.3" d="M97.1104 211.596H103.573L103.889 206.07H97.338L97.1104 211.596Z" fill="#0E9E70"/>
<path opacity="0.3" d="M70.6035 206.07L70.907 211.596H77.3818L77.1416 206.07H70.6035Z" fill="#0E9E70"/>
<path opacity="0.3" d="M34.79 211.596H41.2775L41.581 206.07H35.0303L34.79 211.596Z" fill="#0E9E70"/>
</g>
<path d="M74.8147 316.825L64.1161 322.515L47.2461 299.74L57.9574 294.049L74.8147 316.825Z" fill="#FFB573"/>
<path d="M60.2467 319L71.426 311.235C71.5174 311.157 71.6241 311.099 71.7393 311.065C71.8545 311.031 71.9756 311.021 72.0947 311.036C72.2139 311.052 72.3285 311.092 72.4311 311.155C72.5337 311.217 72.6221 311.301 72.6906 311.399L79.3804 319.86C79.7021 320.326 79.828 320.9 79.731 321.458C79.6341 322.016 79.322 322.514 78.8619 322.844C74.9289 325.474 73.1585 326.398 68.0115 329.458C64.8373 331.33 57.2496 335.781 52.5832 337.817C47.9167 339.853 46.0451 335.174 47.8408 333.897C52.1026 330.887 57.7428 324.969 59.0201 320.808C59.2172 320.086 59.6487 319.45 60.2467 319Z" fill="#263238"/>
<path opacity="0.2" d="M57.97 294.062L47.2461 299.74L55.3776 310.717L65.8486 304.697L57.97 294.062Z" fill="black"/>
<path d="M83.8062 159.152C83.8062 159.152 0.670245 156.56 0.341445 191.299C-0.063233 241.226 47.322 306.796 47.322 306.796L65.8613 294.466C65.8613 294.466 33.3859 246.803 33.1077 207.827C57.6033 200.91 115.308 205.298 122.782 184.938C128.902 168.321 125.703 159.152 125.703 159.152H83.8062Z" fill="#0E9E70"/>
<path opacity="0.2" d="M83.8062 159.152C83.8062 159.152 0.670245 156.56 0.341445 191.299C-0.063233 241.226 47.322 306.796 47.322 306.796L65.8613 294.466C65.8613 294.466 33.3859 246.803 33.1077 207.827C57.6033 200.91 115.308 205.298 122.782 184.938C128.902 168.321 125.703 159.152 125.703 159.152H83.8062Z" fill="black"/>
<path d="M70.8943 297.64L48.8393 311.147L41.9219 304.128L66.1519 288.864L70.8943 297.64Z" fill="#263238"/>
<path d="M57.9328 323.186C58.8157 322.547 59.622 321.809 60.3356 320.985C60.3733 320.945 60.3981 320.894 60.4069 320.84C60.4158 320.785 60.4082 320.729 60.3851 320.679C60.3621 320.629 60.3246 320.587 60.2775 320.558C60.2304 320.529 60.1758 320.515 60.1206 320.517C59.6527 320.517 55.5048 320.517 54.6195 321.87C54.5182 322.022 54.4569 322.196 54.4414 322.378C54.4259 322.559 54.4567 322.741 54.531 322.907C54.6147 323.17 54.7665 323.405 54.9709 323.589C55.1753 323.774 55.425 323.901 55.6945 323.957C56.5101 323.984 57.3072 323.71 57.9328 323.186ZM59.463 321.099C57.9328 322.692 56.5797 323.54 55.7956 323.401C55.6198 323.362 55.4583 323.275 55.3288 323.15C55.1993 323.025 55.107 322.867 55.0621 322.692C55.0151 322.617 54.9902 322.529 54.9902 322.44C54.9902 322.35 55.0151 322.263 55.0621 322.187C55.568 321.478 57.8064 321.162 59.463 321.099Z" fill="#0E9E70"/>
<path d="M60.2843 321.036C60.3202 321.008 60.3503 320.974 60.3728 320.934C60.3973 320.892 60.4101 320.844 60.4101 320.795C60.4101 320.747 60.3973 320.699 60.3728 320.656C60.297 320.53 58.5265 317.52 56.8572 317.242C56.6324 317.198 56.4005 317.209 56.1806 317.272C55.9607 317.336 55.7591 317.451 55.5926 317.609C55.4021 317.751 55.264 317.952 55.2 318.18C55.1359 318.409 55.1495 318.653 55.2385 318.873C55.7696 320.138 58.6909 321.162 60.0946 321.074L60.2843 321.036ZM56.1237 317.899C56.2152 317.831 56.3196 317.783 56.4305 317.757C56.5414 317.731 56.6565 317.728 56.7687 317.748C57.7677 317.912 58.9818 319.493 59.6141 320.454C58.2356 320.327 56.1617 319.442 55.8202 318.62C55.757 318.469 55.719 318.254 56.0352 317.975C56.0605 318.001 56.0858 317.963 56.1237 317.899Z" fill="#0E9E70"/>
<path d="M55.0238 330.786L43.0099 330.217L41.0371 301.852L53.051 302.421L55.0238 330.786Z" fill="#FFB573"/>
<path d="M42.7313 328.168L56.326 327.738C56.5555 327.721 56.7826 327.795 56.9579 327.944C57.1332 328.093 57.2424 328.306 57.2618 328.535L58.2608 339.272C58.2813 339.84 58.076 340.393 57.6897 340.81C57.3034 341.227 56.7675 341.474 56.1995 341.497C51.4698 341.497 49.1935 341.358 43.2119 341.497C39.5318 341.611 32.2982 342.155 27.2524 341.497C22.2066 340.84 22.978 335.895 25.1658 335.705C30.3634 335.288 37.3314 331.697 40.67 328.902C41.2576 328.437 41.9822 328.179 42.7313 328.168Z" fill="#263238"/>
<path d="M38.508 330.407C39.595 330.348 40.6722 330.17 41.7202 329.875C41.7729 329.862 41.8203 329.833 41.8567 329.792C41.8931 329.752 41.9168 329.701 41.9249 329.648C41.933 329.594 41.9251 329.539 41.9022 329.489C41.8793 329.44 41.8424 329.398 41.796 329.37C41.404 329.117 37.901 326.84 36.4467 327.498C36.2805 327.57 36.1354 327.684 36.0249 327.828C35.9143 327.971 35.8419 328.141 35.8144 328.32C35.7396 328.585 35.7364 328.865 35.8053 329.132C35.8742 329.398 36.0126 329.642 36.2064 329.837C36.8741 330.311 37.6965 330.515 38.508 330.407ZM40.9234 329.496C38.7736 329.989 37.1296 329.977 36.5985 329.433C36.4751 329.301 36.388 329.14 36.3459 328.965C36.3038 328.79 36.308 328.607 36.3582 328.434C36.3688 328.346 36.4024 328.262 36.4557 328.191C36.509 328.12 36.58 328.064 36.6617 328.029C37.4458 327.688 39.4944 328.636 40.9234 329.496Z" fill="#0E9E70"/>
<path d="M41.6564 329.888C41.6978 329.899 41.7415 329.899 41.7829 329.888C41.8241 329.866 41.8586 329.833 41.8831 329.793C41.9075 329.753 41.9209 329.707 41.922 329.66C41.922 329.509 42.099 326.018 40.8344 324.88C40.6691 324.722 40.4671 324.606 40.2465 324.545C40.0259 324.483 39.7934 324.476 39.5698 324.526C39.3279 324.539 39.0975 324.634 38.9162 324.795C38.7348 324.956 38.6131 325.173 38.5707 325.411C38.3304 326.676 40.2147 329.205 41.4414 329.888C41.5112 329.911 41.5866 329.911 41.6564 329.888ZM39.848 325.032C39.9595 325.025 40.0711 325.042 40.1757 325.081C40.2803 325.12 40.3754 325.181 40.455 325.26C41.2138 325.943 41.3655 327.928 41.3782 329.053C40.2906 328.194 39.026 326.322 39.1904 325.449C39.1904 325.285 39.3042 325.083 39.7089 325.019L39.848 325.032Z" fill="#0E9E70"/>
<path opacity="0.2" d="M53.0636 302.421L41.0371 301.852L42.1626 318.077L54.1512 318.064L53.0636 302.421Z" fill="black"/>
<path d="M113.373 159.152C113.373 159.152 26.3923 167.372 29.5539 193.562C34.1318 231.324 36.3828 312.715 36.3828 312.715L58.5516 313.587C58.5516 313.587 67.9477 240.239 63.0915 201.504C85.6017 201.504 140.714 203.123 145.734 189.566C150.173 177.578 148.592 159.215 148.592 159.215L113.373 159.152Z" fill="#0E9E70"/>
<path d="M61.0042 314.953L34.3966 313.638L33.4355 302.054L62.6229 304.065L61.0042 314.953Z" fill="#263238"/>
<path d="M94.0758 82.4404C93.9114 84.565 93.747 86.4113 93.5067 88.3588C93.2664 90.3063 93.0135 92.1527 92.71 94.1255C92.1157 97.9193 91.3569 101.713 90.4716 105.596C88.7479 113.617 85.9445 121.368 82.1378 128.637C81.0016 130.679 79.6944 132.621 78.2302 134.441C76.5932 136.497 74.658 138.296 72.4888 139.778C68.3153 142.55 63.4888 144.18 58.4895 144.508C54.112 144.794 49.717 144.367 45.4766 143.243C43.4755 142.731 41.5075 142.098 39.5834 141.346C38.6223 140.98 37.6865 140.575 36.7634 140.082C35.8402 139.588 34.9802 139.184 33.918 138.615L37.2439 130.154L39.6593 130.458L42.1886 130.711C43.8831 130.85 45.5524 130.938 47.247 130.938C50.3192 130.99 53.3849 130.638 56.3649 129.889C58.7527 129.316 60.9632 128.165 62.8018 126.538C63.5902 125.8 64.2942 124.977 64.9011 124.084C65.6482 122.934 66.3158 121.734 66.8992 120.493C68.2366 117.591 69.3321 114.584 70.1745 111.501C71.1357 108.302 71.9071 104.951 72.6026 101.536C73.2981 98.1217 73.8672 94.6693 74.4363 91.1916L75.1824 85.9561C75.41 84.2362 75.663 82.3898 75.8274 80.8976L94.0758 82.4404Z" fill="#FFB573"/>
<path d="M94.1508 72.1339C85.2985 63.5471 74.2963 68.6182 69.9208 84.78C67.4443 93.4075 65.7513 102.241 64.8623 111.173L93.0253 116.99C98.147 101.574 103.256 80.9356 94.1508 72.1339Z" fill="#263238"/>
<path opacity="0.3" d="M85.0832 89.712C87.094 87.9036 92.8101 96.0351 96.3004 106.064C95.314 109.857 94.1885 113.512 93.0377 116.939L76.0918 113.436C77.4449 103.42 80.5686 93.7841 85.0832 89.712Z" fill="black"/>
<path d="M35.3337 126.361L29.0106 123.945L28.7324 137.363C28.7324 137.363 39.3552 141.953 41.5177 136.68L40.7589 133.329C40.3929 131.852 39.7209 130.469 38.7863 129.268C37.8518 128.068 36.6755 127.077 35.3337 126.361Z" fill="#FFB573"/>
<path d="M21.549 124.299L17.8184 135.554L28.7826 137.363L29.0608 123.945L21.549 124.299Z" fill="#FFB573"/>
<path d="M31.1094 133.265C30.9759 133.267 30.8445 133.232 30.7303 133.162C30.6162 133.093 30.524 132.993 30.4644 132.873L19.1714 111.135C19.0819 110.963 19.0635 110.764 19.1203 110.579C19.1772 110.394 19.3046 110.239 19.4749 110.148C19.6483 110.063 19.8479 110.048 20.0319 110.107C20.2159 110.166 20.3698 110.294 20.4613 110.464L31.7164 132.165C31.806 132.336 31.8243 132.536 31.7675 132.721C31.7107 132.905 31.5832 133.06 31.4129 133.152C31.3201 133.209 31.217 133.248 31.1094 133.265Z" fill="#263238"/>
<path d="M93.1007 63.5218L106.607 59.728L123.957 58.9186C126.593 58.7922 129.196 59.5359 131.367 61.0349C133.538 62.534 135.156 64.7054 135.971 67.2145C139.272 77.3314 142.294 91.8998 144.533 104.508C147.062 118.659 148.327 139.917 148.592 159.215H83.8058C82.3262 118.937 77.2045 95.1246 74.9535 81.9473C74.5046 79.3647 74.9145 76.7062 76.1204 74.3788C77.3264 72.0514 79.2619 70.1834 81.6306 69.0608L93.1007 63.5218Z" fill="#263238"/>
<path opacity="0.3" d="M144.533 104.457C142.788 94.5302 140.537 83.3509 138.033 74.1066C126.487 72.1591 120.897 97.4767 124.324 110.034C127.751 122.592 146.025 114.979 146.025 114.979C145.595 111.198 145.089 107.644 144.533 104.457Z" fill="black"/>
<path d="M104.306 33.3607C107.088 40.1896 105.419 52.7093 99.9302 49.1684C94.4418 45.6275 102.611 29.2127 104.306 33.3607Z" fill="#263238"/>
<path d="M101.271 37.7361L96.0224 45.7538L88.89 56.6674C89.8115 57.6011 90.557 58.6936 91.0904 59.8922C92.3551 62.5226 93.4806 64.4827 87.9542 68.2513C87.3605 68.632 86.8887 69.1753 86.595 69.8165C86.3013 70.4578 86.1981 71.1699 86.2975 71.8681C86.6263 73.5753 88.3209 75.232 94.2773 74.1823C100.018 73.0834 105.256 70.1763 109.225 65.8865C111.211 63.901 110.755 62.4088 108.846 60.3474C103.382 54.5302 101.764 45.2353 101.271 37.7361Z" fill="#FFB573"/>
<path opacity="0.2" d="M90.5976 53.9739L94.9732 46.1965C95.0659 46.3989 95.1671 46.6139 95.2767 46.8415C95.6654 47.802 95.9783 48.7914 96.2125 49.8007C97.0093 53.2531 94.3283 58.1851 91.3817 60.5373L91.0403 59.8671C90.5095 58.7473 89.8288 57.7049 89.0169 56.7687C88.9651 56.7172 88.9054 56.6745 88.8398 56.6423L90.5976 53.9739Z" fill="black"/>
<path d="M64.3306 28.3022C62.6992 31.9822 68.4785 42.4027 75.0925 38.1915C81.7064 33.9803 67.2139 21.7894 64.3306 28.3022Z" fill="#263238"/>
<path d="M96.2117 76.4208C96.1244 76.4222 96.0396 76.3923 95.9724 76.3367C95.9051 76.281 95.86 76.2033 95.8449 76.1173C95.3644 72.9937 93.3157 71.0589 91.0015 68.7067C88.0676 65.836 84.7416 62.5733 83.654 56.187C83.6373 56.0931 83.6585 55.9963 83.713 55.9181C83.7676 55.8398 83.851 55.7864 83.9449 55.7696C84.0388 55.7529 84.1355 55.7741 84.2138 55.8286C84.2921 55.8832 84.3455 55.9666 84.3622 56.0605C85.4245 62.2192 88.6619 65.3934 91.5073 68.1882C93.8468 70.4771 96.0473 72.6396 96.5658 76.0035C96.5748 76.051 96.574 76.0999 96.5634 76.147C96.5528 76.1942 96.5327 76.2387 96.5043 76.2778C96.4758 76.3169 96.4397 76.3498 96.398 76.3744C96.3564 76.399 96.3102 76.4148 96.2623 76.4208H96.2117Z" fill="white"/>
<path d="M98.9058 24.5968C101.435 36.0542 103.408 42.6429 99.3232 49.8891C93.1518 60.8534 77.7235 59.3611 71.8557 48.8142C66.5696 39.3296 63.4207 22.1814 73.2468 14.7833C75.4452 13.1488 78.0207 12.0957 80.7345 11.7215C83.4484 11.3473 86.2128 11.6642 88.7715 12.6428C91.3303 13.6214 93.6006 15.2301 95.3722 17.3197C97.1437 19.4094 98.3592 21.9124 98.9058 24.5968Z" fill="#FFB573"/>
<path d="M102.308 32.4628C98.3624 38.0651 88.0178 27.7838 88.8651 20.8789C78.5964 26.7215 67.4425 34.5242 60.6768 27.9481C52.8614 20.3604 54.9986 9.48474 64.1545 8.51098C62.5358 11.6725 71.7422 13.0763 76.6362 8.19483C84.9195 0.000110149 98.0083 1.70734 97.768 8.34658C104.078 5.84264 110.971 20.1581 102.308 32.4628Z" fill="#263238"/>
<path d="M96.5534 10.2055C98.9941 8.38442 97.3754 1.89693 91.71 0C97.0972 0.69554 102.674 4.70439 96.5534 10.2055Z" fill="#263238"/>
<path d="M105.962 31.9569C106.07 34.5767 105.216 37.1456 103.559 39.1779C101.384 41.7704 98.0325 39.7091 97.2357 36.4716C96.5402 33.5757 97.4381 29.0863 100.296 27.6952C103.154 26.3041 105.81 28.6942 105.962 31.9569Z" fill="#FFB573"/>
<path d="M82.4649 33.8917C82.7684 34.8149 82.5407 35.7507 81.9337 35.9657C81.3267 36.1807 80.6691 35.6116 80.3024 34.7011C79.9356 33.7905 80.2265 32.8421 80.8335 32.6144C81.4405 32.3868 82.1613 32.9559 82.4649 33.8917Z" fill="#263238"/>
<path d="M72.0967 37.6855C72.4129 38.6213 72.1726 39.5572 71.5656 39.7722C70.9586 39.9871 70.2377 39.4181 69.9342 38.5075C69.6307 37.597 69.871 36.6485 70.4654 36.4335C71.0598 36.2186 71.7932 36.7624 72.0967 37.6855Z" fill="#263238"/>
<path d="M75.6496 37.1544C75.6911 39.9205 75.368 42.6801 74.6885 45.3618C76.5475 46.0447 78.5961 44.4386 78.5961 44.4386L75.6496 37.1544Z" fill="#ED893E"/>
<path d="M81.202 49.5855C82.2789 49.2316 83.2727 48.6623 84.1227 47.9123C84.9727 47.1622 85.6613 46.2471 86.1466 45.2226C86.1763 45.1521 86.177 45.0728 86.1486 45.0018C86.1202 44.9308 86.065 44.8738 85.9949 44.8432C85.9226 44.8176 85.8432 44.8203 85.7729 44.8508C85.7025 44.8813 85.6462 44.9374 85.6155 45.0076C85.0723 46.1121 84.2822 47.0767 83.3063 47.8267C82.3304 48.5767 81.195 49.092 79.9879 49.3326C79.9484 49.3377 79.9103 49.3509 79.8761 49.3714C79.8418 49.3918 79.8122 49.4191 79.7889 49.4515C79.7657 49.4839 79.7493 49.5207 79.7409 49.5597C79.7325 49.5987 79.7322 49.639 79.74 49.6781C79.7478 49.7172 79.7636 49.7543 79.7864 49.7871C79.8091 49.8198 79.8384 49.8475 79.8723 49.8685C79.9062 49.8895 79.9441 49.9032 79.9836 49.9089C80.0231 49.9146 80.0633 49.9122 80.1018 49.9017C80.4751 49.8207 80.8426 49.7151 81.202 49.5855Z" fill="#263238"/>
<path d="M83.4148 29.8702C83.5028 29.8284 83.5773 29.7626 83.6297 29.6804C83.7107 29.551 83.7375 29.3949 83.7044 29.2458C83.6713 29.0968 83.5809 28.9667 83.4527 28.8838C82.7046 28.3788 81.8435 28.0662 80.9458 27.9736C80.048 27.8809 79.1412 28.0111 78.3057 28.3526C78.2358 28.3838 78.1729 28.4288 78.1208 28.485C78.0687 28.5411 78.0285 28.6071 78.0025 28.6791C77.9765 28.7512 77.9654 28.8277 77.9696 28.9041C77.9739 28.9806 77.9936 29.0554 78.0275 29.124C78.0955 29.2606 78.2146 29.365 78.3589 29.4147C78.5032 29.4644 78.6612 29.4554 78.7989 29.3896C79.4583 29.135 80.1694 29.0434 80.8718 29.1227C81.5742 29.2019 82.247 29.4497 82.8331 29.8449C82.9177 29.9038 83.0172 29.9374 83.1202 29.9419C83.2232 29.9464 83.3254 29.9215 83.4148 29.8702Z" fill="#263238"/>
<path d="M70.0476 31.6913C70.0717 31.5958 70.0717 31.4959 70.0476 31.4004C69.9864 31.2602 69.8725 31.1498 69.7305 31.093C69.5884 31.0362 69.4298 31.0376 69.2888 31.0969C68.4467 31.4234 67.6987 31.9534 67.1116 32.6398C66.5246 33.3262 66.1168 34.1474 65.9249 35.0299C65.8998 35.1791 65.9349 35.3323 66.0227 35.4556C66.1104 35.5789 66.2436 35.6623 66.3928 35.6875C66.5421 35.7126 66.6952 35.6775 66.8185 35.5897C66.9419 35.502 67.0253 35.3688 67.0504 35.2196C67.2151 34.53 67.5452 33.891 68.0124 33.3577C68.4795 32.8245 69.0695 32.4131 69.7314 32.1592C69.8195 32.1145 69.8948 32.048 69.9501 31.9662C70.0054 31.8843 70.039 31.7897 70.0476 31.6913Z" fill="#263238"/>
<path d="M133.734 67.5052C134.998 69.5539 136.01 71.4003 137.06 73.3731C138.109 75.3459 139.121 77.2681 140.107 79.2409C142.105 83.1739 143.901 87.2206 145.646 91.3433C147.391 95.4659 148.922 99.7151 150.237 104.141C151.676 108.787 152.642 113.566 153.12 118.406C153.376 121.232 153.278 124.078 152.829 126.879C152.541 128.727 151.978 130.521 151.16 132.203C150.213 134.104 148.897 135.797 147.29 137.186C145.844 138.443 144.193 139.444 142.409 140.145C140.912 140.733 139.356 141.157 137.768 141.409C135.086 141.829 132.362 141.901 129.662 141.624C127.25 141.42 124.858 141.035 122.504 140.474C120.256 139.962 118.036 139.337 115.852 138.602C111.559 137.181 107.389 135.413 103.383 133.316L106.582 124.805C114.448 126.297 122.896 127.676 129.99 127.246C131.542 127.165 133.078 126.901 134.568 126.462C135.833 126.082 136.478 125.513 136.427 125.336C136.377 125.159 136.351 125.336 136.326 125.21C136.301 125.083 136.326 125.071 136.326 124.426C136.405 123.004 136.32 121.579 136.073 120.177C135.468 116.567 134.524 113.023 133.253 109.592C131.988 105.924 130.458 102.219 128.802 98.5516C127.145 94.8842 125.362 91.2042 123.553 87.5368C122.643 85.6989 121.703 83.882 120.733 82.0863L117.875 76.7875L133.734 67.5052Z" fill="#FFB573"/>
<path d="M127.828 59.0451C115.612 57.1861 109.605 67.6698 115.359 83.3257C118.33 91.7946 122.063 99.9765 126.513 107.771L152.855 96.2248C148.062 80.7333 140.322 60.9546 127.828 59.0451Z" fill="#263238"/>
<path d="M99.8033 123.642L94.1631 125.336L102.168 136.718C102.168 136.718 114.03 132.469 111.602 127.309L108.618 125.615C106.063 124.135 102.826 122.605 99.8033 123.642Z" fill="#FFB573"/>
<path d="M89.168 133.177L94.8208 138.817L102.168 136.705L94.1632 125.336L89.168 133.177Z" fill="#FFB573"/>
<path d="M101.499 35.5737C102.505 35.5737 103.32 34.5885 103.32 33.3733C103.32 32.158 102.505 31.1729 101.499 31.1729C100.493 31.1729 99.6777 32.158 99.6777 33.3733C99.6777 34.5885 100.493 35.5737 101.499 35.5737Z" fill="white"/>
<path d="M103.003 39.1905L101.954 39.1525L101.309 34.0814L103.307 33.6388L103.003 39.1905Z" fill="white"/>
<path d="M110.262 134.783C106.468 134.783 103.104 134.214 101.068 132.368C100.309 131.636 99.7175 130.748 99.3353 129.766C98.9532 128.783 98.7893 127.729 98.855 126.677C98.9707 121.462 99.7831 116.286 101.27 111.286C103.028 104.394 104.419 98.9564 100.196 92.2413C93.4677 81.5805 95.4785 66.6707 100.196 57.3252C103.8 50.1801 102.535 42.213 102.08 39.2791C102.017 38.8997 101.966 38.5962 101.941 38.3939C101.935 38.3463 101.94 38.2982 101.954 38.2525C101.968 38.2067 101.991 38.1643 102.021 38.1276C102.052 38.091 102.09 38.061 102.133 38.0393C102.175 38.0177 102.222 38.005 102.27 38.0018C102.365 37.9911 102.461 38.0181 102.536 38.0773C102.612 38.1364 102.662 38.2228 102.674 38.318C102.674 38.5077 102.737 38.7985 102.788 39.1653C103.269 42.213 104.521 50.2939 100.803 57.654C96.1867 66.8225 94.2139 81.4288 100.803 91.7987C105.191 98.7667 103.698 104.622 101.966 111.4C100.509 116.332 99.7138 121.435 99.6011 126.576C99.5328 127.526 99.6727 128.481 100.011 129.372C100.35 130.263 100.879 131.07 101.561 131.735C104.976 134.808 112.513 134.024 119.797 133.265C123.06 132.937 126.436 132.583 129.408 132.583C129.505 132.583 129.599 132.621 129.667 132.69C129.736 132.759 129.775 132.852 129.775 132.949C129.775 133.047 129.736 133.14 129.667 133.209C129.599 133.277 129.505 133.316 129.408 133.316C126.474 133.316 123.085 133.657 119.873 133.999C116.684 134.422 113.477 134.683 110.262 134.783Z" fill="white"/>
<path d="M144.546 132.077H130.154C129.735 132.077 129.396 132.416 129.396 132.835V133.847C129.396 134.266 129.735 134.606 130.154 134.606H144.546C144.965 134.606 145.304 134.266 145.304 133.847V132.835C145.304 132.416 144.965 132.077 144.546 132.077Z" fill="white"/>
</svg>
