<svg width="377" height="358" viewBox="0 0 377 358" fill="none" xmlns="http://www.w3.org/2000/svg">
<path d="M372.549 149.061H4.42104C3.24959 149.057 2.12711 148.59 1.29876 147.762C0.470414 146.933 0.00350213 145.811 0 144.64C0.00350213 143.468 0.470414 142.346 1.29876 141.517C2.12711 140.689 3.24959 140.222 4.42104 140.219H372.549C373.72 140.222 374.843 140.689 375.671 141.517C376.5 142.346 376.967 143.468 376.97 144.64C376.967 145.811 376.5 146.933 375.671 147.762C374.843 148.59 373.72 149.057 372.549 149.061Z" fill="#AF6E22"/>
<path opacity="0.3" d="M372.549 149.061H286.372C285.201 149.057 284.078 148.59 283.25 147.762C282.422 146.933 281.955 145.811 281.951 144.64C281.955 143.468 282.422 142.346 283.25 141.517C284.078 140.689 285.201 140.222 286.372 140.219H372.549C373.721 140.222 374.843 140.689 375.672 141.517C376.5 142.346 376.967 143.468 376.97 144.64C376.967 145.811 376.5 146.933 375.672 147.762C374.843 148.59 373.721 149.057 372.549 149.061Z" fill="#263238"/>
<path d="M368.486 357.367H376.97L367.212 149.061H355.476L368.486 357.367Z" fill="#263238"/>
<path opacity="0.1" d="M368.486 357.367H376.97L367.212 149.061H355.476L368.486 357.367Z" fill="white"/>
<path d="M290.435 357.367H281.951L291.709 149.061H303.446L290.435 357.367Z" fill="#263238"/>
<path opacity="0.2" d="M290.435 357.367H281.951L291.709 149.061H303.446L290.435 357.367Z" fill="white"/>
<path d="M86.5486 357.367H95.0189L85.2607 149.061H73.5244L86.5486 357.367Z" fill="#263238"/>
<path opacity="0.1" d="M86.5486 357.367H95.0189L85.2607 149.061H73.5244L86.5486 357.367Z" fill="white"/>
<path d="M8.48362 357.367H0L9.75815 149.061H21.4945L8.48362 357.367Z" fill="#263238"/>
<path opacity="0.2" d="M8.48362 357.367H0L9.75815 149.061H21.4945L8.48362 357.367Z" fill="white"/>
<path d="M295.347 160.146H12.2275V177.605H295.347V160.146Z" fill="#263238"/>
<path opacity="0.2" d="M295.347 160.146H12.2275V177.605H295.347V160.146Z" fill="white"/>
<path d="M58.8138 128.482C58.3231 128.482 57.8523 128.676 57.5042 129.022C57.156 129.368 56.9586 129.837 56.9551 130.328V138.293C56.9551 138.786 57.1509 139.259 57.4995 139.608C57.8481 139.956 58.3208 140.152 58.8138 140.152H119.022C119.182 140.152 119.335 140.09 119.449 139.978C119.564 139.866 119.629 139.714 119.633 139.555V129.013C119.629 128.854 119.564 128.702 119.449 128.59C119.335 128.478 119.182 128.416 119.022 128.416L58.8138 128.482Z" fill="#0E9E70"/>
<path opacity="0.9" d="M94.4484 129.597H119.674V139.103H94.4484C94.1632 139.103 93.8897 138.99 93.688 138.788C93.4863 138.587 93.373 138.313 93.373 138.028V130.66C93.3765 130.377 93.4914 130.106 93.6927 129.908C93.894 129.709 94.1655 129.597 94.4484 129.597Z" fill="white"/>
<path d="M90.3068 128.482H29.4876C28.4611 128.482 27.6289 129.314 27.6289 130.341V138.373C27.6289 139.4 28.4611 140.232 29.4876 140.232H90.3068C91.3333 140.232 92.1655 139.4 92.1655 138.373V130.341C92.1655 129.314 91.3333 128.482 90.3068 128.482Z" fill="#0E9E70"/>
<path opacity="0.2" d="M90.3068 128.482H29.4876C28.4611 128.482 27.6289 129.314 27.6289 130.341V138.373C27.6289 139.4 28.4611 140.232 29.4876 140.232H90.3068C91.3333 140.232 92.1655 139.4 92.1655 138.373V130.341C92.1655 129.314 91.3333 128.482 90.3068 128.482Z" fill="black"/>
<path opacity="0.5" d="M60.394 128.482H51.1669C50.749 128.482 50.4102 128.821 50.4102 129.239V139.475C50.4102 139.893 50.749 140.232 51.1669 140.232H60.394C60.812 140.232 61.1508 139.893 61.1508 139.475V129.239C61.1508 128.821 60.812 128.482 60.394 128.482Z" fill="black"/>
<path opacity="0.5" d="M73.7098 128.482H64.496C64.0781 128.482 63.7393 128.821 63.7393 129.239V139.475C63.7393 139.893 64.0781 140.232 64.496 140.232H73.7098C74.1278 140.232 74.4666 139.893 74.4666 139.475V129.239C74.4666 128.821 74.1278 128.482 73.7098 128.482Z" fill="black"/>
<path d="M47.929 114.011C47.6849 114.011 47.4432 114.059 47.2177 114.152C46.9922 114.246 46.7873 114.383 46.6147 114.555C46.4421 114.728 46.3052 114.933 46.2118 115.158C46.1184 115.384 46.0703 115.625 46.0703 115.869V126.623C46.0703 126.867 46.1184 127.109 46.2118 127.335C46.3052 127.56 46.4421 127.765 46.6147 127.938C46.7873 128.11 46.9922 128.247 47.2177 128.341C47.4432 128.434 47.6849 128.482 47.929 128.482H113.156C113.316 128.479 113.468 128.413 113.579 128.299C113.691 128.184 113.753 128.031 113.753 127.871V114.595C113.753 114.435 113.691 114.282 113.579 114.168C113.468 114.054 113.316 113.988 113.156 113.984L47.929 114.011Z" fill="#0E9E70"/>
<path opacity="0.9" d="M83.6011 115.139H113.792V127.367H83.6011C83.3159 127.367 83.0424 127.254 82.8407 127.052C82.639 126.85 82.5257 126.577 82.5257 126.291V116.241C82.5222 116.098 82.5474 115.955 82.5998 115.822C82.6523 115.688 82.7309 115.566 82.8312 115.464C82.9314 115.361 83.0511 115.279 83.1833 115.224C83.3156 115.168 83.4576 115.139 83.6011 115.139Z" fill="white"/>
<path d="M79.4056 114.011H28.265C27.2384 114.011 26.4062 114.843 26.4062 115.87V126.61C26.4062 127.637 27.2384 128.469 28.265 128.469H79.4056C80.4322 128.469 81.2643 127.637 81.2643 126.61V115.87C81.2643 114.843 80.4322 114.011 79.4056 114.011Z" fill="#0E9E70"/>
<path opacity="0.2" d="M79.4056 114.011H28.265C27.2384 114.011 26.4062 114.843 26.4062 115.87V126.61C26.4062 127.637 27.2384 128.469 28.265 128.469H79.4056C80.4322 128.469 81.2643 127.637 81.2643 126.61V115.87C81.2643 114.843 80.4322 114.011 79.4056 114.011Z" fill="white"/>
<path opacity="0.6" d="M74.6134 116.878H37.1607C36.5375 116.878 36.0322 117.384 36.0322 118.007V124.473C36.0322 125.096 36.5375 125.601 37.1607 125.601H74.6134C75.2367 125.601 75.7419 125.096 75.7419 124.473V118.007C75.7419 117.384 75.2367 116.878 74.6134 116.878Z" fill="#263238"/>
<path d="M67.0589 107.094C66.0366 107.094 65.2002 107.585 65.2002 108.183V112.922C65.2002 113.52 66.0366 114.011 67.0589 114.011H127.281C127.613 114.011 127.878 113.852 127.878 113.666V107.452C127.878 107.253 127.613 107.094 127.281 107.094H67.0589Z" fill="#0E9E70"/>
<path opacity="0.9" d="M102.454 107.744H127.878V113.347H102.454C102.236 113.347 102.026 113.26 101.872 113.106C101.718 112.952 101.631 112.742 101.631 112.524V108.541C101.638 108.327 101.728 108.125 101.881 107.976C102.035 107.827 102.24 107.744 102.454 107.744Z" fill="white"/>
<path d="M98.989 107.094H37.2936C36.509 107.094 35.873 107.73 35.873 108.514V112.604C35.873 113.388 36.509 114.024 37.2936 114.024H98.989C99.7736 114.024 100.41 113.388 100.41 112.604V108.514C100.41 107.73 99.7736 107.094 98.989 107.094Z" fill="#0E9E70"/>
<path opacity="0.2" d="M98.989 107.094H37.2936C36.509 107.094 35.873 107.73 35.873 108.514V112.604C35.873 113.388 36.509 114.024 37.2936 114.024H98.989C99.7736 114.024 100.41 113.388 100.41 112.604V108.514C100.41 107.73 99.7736 107.094 98.989 107.094Z" fill="black"/>
<path opacity="0.5" d="M45.0467 107.094H43.1216C42.9676 107.094 42.8428 107.219 42.8428 107.373V113.745C42.8428 113.899 42.9676 114.024 43.1216 114.024H45.0467C45.2006 114.024 45.3255 113.899 45.3255 113.745V107.373C45.3255 107.219 45.2006 107.094 45.0467 107.094Z" fill="#0E9E70"/>
<path opacity="0.5" d="M95.125 107.094H93.2397C93.0858 107.094 92.9609 107.219 92.9609 107.373V113.745C92.9609 113.899 93.0858 114.024 93.2397 114.024H95.125C95.279 114.024 95.4038 113.899 95.4038 113.745V107.373C95.4038 107.219 95.279 107.094 95.125 107.094Z" fill="#0E9E70"/>
<path d="M56.1722 97.0835C55.1499 97.0835 54.3135 97.5747 54.3135 98.1722V105.992C54.3135 106.603 55.1499 107.094 56.1722 107.094H121.399C121.731 107.094 122.01 106.935 122.01 106.735V97.4419C122.01 97.2428 121.731 97.0835 121.399 97.0835H56.1722Z" fill="#0E9E70"/>
<path opacity="0.9" d="M91.5673 97.734H122.01V106.43H91.5673C91.349 106.43 91.1396 106.343 90.9852 106.189C90.8309 106.035 90.7441 105.825 90.7441 105.607V98.5571C90.7441 98.3388 90.8309 98.1295 90.9852 97.9751C91.1396 97.8207 91.349 97.734 91.5673 97.734Z" fill="white"/>
<path d="M88.0898 97.0835H36.0729C35.2883 97.0835 34.6523 97.7195 34.6523 98.5041V105.673C34.6523 106.458 35.2883 107.094 36.0729 107.094H88.0898C88.8744 107.094 89.5104 106.458 89.5104 105.673V98.5041C89.5104 97.7195 88.8744 97.0835 88.0898 97.0835Z" fill="#0E9E70"/>
<path opacity="0.1" d="M88.0898 97.0835H36.0729C35.2883 97.0835 34.6523 97.7195 34.6523 98.5041V105.673C34.6523 106.458 35.2883 107.094 36.0729 107.094H88.0898C88.8744 107.094 89.5104 106.458 89.5104 105.673V98.5041C89.5104 97.7195 88.8744 97.0835 88.0898 97.0835Z" fill="#0E26FF"/>
<path d="M201.655 138.015H146.863C146.57 138.015 146.288 138.13 146.079 138.336C145.871 138.543 145.752 138.823 145.748 139.116C145.752 139.41 145.871 139.69 146.079 139.896C146.288 140.103 146.57 140.218 146.863 140.218H201.655C201.947 140.218 202.227 140.102 202.434 139.896C202.641 139.689 202.757 139.409 202.757 139.116C202.757 138.824 202.641 138.544 202.434 138.337C202.227 138.131 201.947 138.015 201.655 138.015Z" fill="white"/>
<path d="M308.849 135.386H344.855L348.108 140.099H305.597L308.849 135.386Z" fill="#263238"/>
<path d="M364.45 54.9442C364.45 55.9026 364.166 56.8395 363.633 57.6364C363.101 58.4333 362.344 59.0544 361.459 59.4212C360.573 59.788 359.599 59.8839 358.659 59.697C357.719 59.51 356.855 59.0484 356.178 58.3707C355.5 57.693 355.038 56.8296 354.851 55.8896C354.664 54.9496 354.76 53.9752 355.127 53.0897C355.494 52.2043 356.115 51.4474 356.912 50.915C357.709 50.3825 358.646 50.0983 359.604 50.0983C360.241 50.0965 360.872 50.2207 361.461 50.4636C362.049 50.7065 362.584 51.0634 363.035 51.5137C363.485 51.9641 363.842 52.4989 364.085 53.0877C364.328 53.6764 364.452 54.3073 364.45 54.9442Z" fill="black"/>
<path d="M328.046 138.572C327.794 138.571 327.545 138.509 327.323 138.389C327.1 138.27 326.91 138.098 326.77 137.888C326.63 137.678 326.543 137.437 326.518 137.186C326.493 136.935 326.53 136.681 326.625 136.448L361.317 54.3467C361.496 54.0038 361.797 53.7408 362.161 53.61C362.525 53.4792 362.925 53.4902 363.281 53.6407C363.638 53.7913 363.924 54.0704 364.084 54.4226C364.244 54.7748 364.266 55.1742 364.144 55.5416L329.453 137.63C329.336 137.907 329.141 138.144 328.891 138.312C328.641 138.479 328.347 138.57 328.046 138.572Z" fill="#263238"/>
<path d="M362.724 56.4974C362.395 56.4937 362.074 56.3869 361.808 56.192L298.812 8.94133C298.488 8.69838 298.274 8.3367 298.217 7.93584C298.159 7.53498 298.264 7.1278 298.507 6.80385C298.749 6.47991 299.111 6.26573 299.512 6.20847C299.913 6.1512 300.32 6.25552 300.644 6.49848L363.654 53.7226C363.908 53.9181 364.096 54.1883 364.189 54.4954C364.283 54.8025 364.278 55.1311 364.175 55.4353C364.073 55.7395 363.878 56.0042 363.618 56.1922C363.358 56.3803 363.045 56.4823 362.724 56.4841V56.4974Z" fill="#263238"/>
<path d="M367.571 54.9442C367.571 55.9026 367.286 56.8395 366.754 57.6364C366.222 58.4333 365.465 59.0544 364.579 59.4212C363.694 59.788 362.719 59.8839 361.779 59.697C360.839 59.51 359.976 59.0484 359.298 58.3707C358.621 57.693 358.159 56.8296 357.972 55.8896C357.785 54.9496 357.881 53.9752 358.248 53.0897C358.615 52.2043 359.236 51.4474 360.033 50.915C360.829 50.3825 361.766 50.0983 362.725 50.0983C363.362 50.0965 363.993 50.2207 364.581 50.4636C365.17 50.7065 365.705 51.0634 366.155 51.5137C366.606 51.9641 366.962 52.4989 367.205 53.0877C367.448 53.6764 367.572 54.3073 367.571 54.9442Z" fill="#263238"/>
<path d="M299.728 12.5527C302.397 12.5527 304.561 10.389 304.561 7.72006C304.561 5.05108 302.397 2.88745 299.728 2.88745C297.059 2.88745 294.896 5.05108 294.896 7.72006C294.896 10.389 297.059 12.5527 299.728 12.5527Z" fill="#263238"/>
<path d="M292.957 29.8119C291.442 31.327 289.511 32.3588 287.41 32.7768C285.308 33.1948 283.13 32.9803 281.151 32.1603C279.171 31.3403 277.479 29.9518 276.289 28.1702C275.098 26.3886 274.463 24.2941 274.463 22.1514C274.463 20.0088 275.098 17.9142 276.289 16.1326C277.479 14.3511 279.171 12.9625 281.151 12.1425C283.13 11.3226 285.308 11.108 287.41 11.526C289.511 11.944 291.442 12.9758 292.957 14.4909C294.985 16.5243 296.125 19.2793 296.125 22.1514C296.125 25.0236 294.985 27.7785 292.957 29.8119Z" fill="#0E9E70"/>
<path opacity="0.7" d="M292.957 29.8119C291.442 31.327 289.511 32.3588 287.41 32.7768C285.308 33.1948 283.13 32.9803 281.151 32.1603C279.171 31.3403 277.479 29.9518 276.289 28.1702C275.098 26.3886 274.463 24.2941 274.463 22.1514C274.463 20.0088 275.098 17.9142 276.289 16.1326C277.479 14.3511 279.171 12.9625 281.151 12.1425C283.13 11.3226 285.308 11.108 287.41 11.526C289.511 11.944 291.442 12.9758 292.957 14.4909C294.985 16.5243 296.125 19.2793 296.125 22.1514C296.125 25.0236 294.985 27.7785 292.957 29.8119Z" fill="white"/>
<path d="M299.728 7.72001C297.574 5.56354 295.016 3.8528 292.201 2.68559C289.385 1.51839 286.367 0.917603 283.319 0.917603C280.271 0.917603 277.253 1.51839 274.437 2.68559C271.621 3.8528 269.063 5.56354 266.909 7.72001L299.728 40.5658C301.887 38.4104 303.6 35.8504 304.769 33.0324C305.937 30.2144 306.539 27.1936 306.539 24.1429C306.539 21.0922 305.937 18.0715 304.769 15.2535C303.6 12.4354 301.887 9.87547 299.728 7.72001Z" fill="#263238"/>
<g opacity="0.2">
<path opacity="0.2" d="M266.896 7.71985L129.061 140.218H270.467L299.729 40.5524L266.896 7.71985Z" fill="#0E9E70"/>
<path opacity="0.7" d="M266.896 7.71985L129.061 140.218H270.467L299.729 40.5524L266.896 7.71985Z" fill="white"/>
</g>
</svg>
