<svg width="428" height="342" viewBox="0 0 428 342" fill="none" xmlns="http://www.w3.org/2000/svg">
<path d="M482 327.4H-18V327.65H482V327.4Z" fill="#EBEBEB"/>
<path d="M427.26 338.85H376.36V339.1H427.26V338.85Z" fill="#EBEBEB"/>
<path d="M81.67 335.89H34.46V336.14H81.67V335.89Z" fill="#EBEBEB"/>
<path d="M380 334.21H360.81V334.46H380V334.21Z" fill="#EBEBEB"/>
<path d="M313.221 340.84H299.141V341.09H313.221V340.84Z" fill="#EBEBEB"/>
<path d="M290.23 340.84H254.79V341.09H290.23V340.84Z" fill="#EBEBEB"/>
<path d="M234.211 336.62H177.221V336.87H234.211V336.62Z" fill="#EBEBEB"/>
<path d="M219 282.8H25.91C24.3973 282.797 22.9475 282.195 21.8788 281.124C20.8102 280.053 20.21 278.603 20.21 277.09V5.66C20.2231 4.15602 20.8292 2.71798 21.8964 1.65822C22.9637 0.598458 24.4059 0.00257639 25.91 0H219C220.514 0 221.967 0.601588 223.038 1.67242C224.108 2.74325 224.71 4.19561 224.71 5.71V277.09C224.71 278.604 224.108 280.057 223.038 281.128C221.967 282.198 220.514 282.8 219 282.8ZM25.91 0.200001C24.4636 0.20265 23.0774 0.779065 22.0556 1.80273C21.0338 2.82639 20.46 4.21365 20.46 5.66V277.09C20.46 278.536 21.0338 279.924 22.0556 280.947C23.0774 281.971 24.4636 282.547 25.91 282.55H219C220.447 282.547 221.834 281.971 222.858 280.948C223.881 279.924 224.457 278.537 224.46 277.09V5.66C224.457 4.21273 223.881 2.82549 222.858 1.80212C221.834 0.77874 220.447 0.202644 219 0.200001H25.91Z" fill="#EBEBEB"/>
<path d="M435.31 282.8H242.21C240.696 282.797 239.246 282.195 238.175 281.125C237.105 280.054 236.503 278.604 236.5 277.09V5.66C236.516 4.15511 237.124 2.71708 238.193 1.65759C239.262 0.598109 240.705 0.00254829 242.21 0H435.31C436.812 0.0052045 438.252 0.602249 439.317 1.66173C440.382 2.72121 440.987 4.15775 441 5.66V277.09C441 278.601 440.401 280.05 439.335 281.121C438.268 282.191 436.821 282.795 435.31 282.8ZM242.21 0.200001C240.763 0.202644 239.375 0.77874 238.352 1.80212C237.329 2.82549 236.753 4.21273 236.75 5.66V277.09C236.753 278.537 237.329 279.924 238.352 280.948C239.375 281.971 240.763 282.547 242.21 282.55H435.31C436.757 282.547 438.145 281.971 439.168 280.948C440.191 279.924 440.767 278.537 440.77 277.09V5.66C440.767 4.21273 440.191 2.82549 439.168 1.80212C438.145 0.77874 436.757 0.202644 435.31 0.200001H242.21Z" fill="#EBEBEB"/>
<path d="M372.37 30.67H270.57V327.4H372.37V30.67Z" fill="#EBEBEB"/>
<path d="M365.5 321.4V36.67L277.44 36.67V321.4H365.5Z" fill="#FAFAFA"/>
<path d="M267.521 30.67H165.721V327.4H267.521V30.67Z" fill="#EBEBEB"/>
<path d="M267.52 326.24H270.57L270.57 31.84H267.52L267.52 326.24Z" fill="#E0E0E0"/>
<path d="M260.65 321.39V36.66L172.59 36.66V321.39H260.65Z" fill="#FAFAFA"/>
<path d="M418.871 28.44H119.221C118.869 28.4374 118.532 28.2965 118.283 28.0476C118.034 27.7987 117.893 27.462 117.891 27.11C117.893 26.7581 118.034 26.4213 118.283 26.1725C118.532 25.9236 118.869 25.7826 119.221 25.78H418.871C419.223 25.7826 419.559 25.9236 419.808 26.1725C420.057 26.4213 420.198 26.7581 420.201 27.11C420.198 27.462 420.057 27.7987 419.808 28.0476C419.559 28.2965 419.223 28.4374 418.871 28.44Z" fill="#E0E0E0"/>
<path d="M365.5 42.34V36.67L277.44 36.67V42.34L365.5 42.34Z" fill="#E0E0E0"/>
<path d="M365.5 46.22V36.66L277.44 36.66V46.22L365.5 46.22Z" fill="#E0E0E0"/>
<path d="M260.65 57.55V36.66L172.59 36.66V57.55L260.65 57.55Z" fill="#E0E0E0"/>
<g opacity="0.8">
<path opacity="0.8" d="M385.44 19.5601H357.24V323.75H385.44V19.5601Z" fill="#F5F5F5"/>
<path opacity="0.8" d="M378 19.5601H364.69V323.75H378V19.5601Z" fill="#F0F0F0"/>
<path opacity="0.8" d="M400.57 19.5601H372.37V323.75H400.57V19.5601Z" fill="#F5F5F5"/>
<path opacity="0.8" d="M393.13 19.5601H379.82V323.75H393.13V19.5601Z" fill="#F0F0F0"/>
<path opacity="0.8" d="M414.67 19.5601H386.47V323.75H414.67V19.5601Z" fill="#F5F5F5"/>
</g>
<g opacity="0.8">
<path opacity="0.8" d="M163.459 19.5601H122.529V323.75H163.459V19.5601Z" fill="#F5F5F5"/>
<path opacity="0.8" d="M152.649 19.5601H133.329V323.75H152.649V19.5601Z" fill="#F0F0F0"/>
<path opacity="0.8" d="M185.41 19.5601H144.479V323.75H185.41V19.5601Z" fill="#F5F5F5"/>
<path opacity="0.8" d="M174.599 19.5601H155.279V323.75H174.599V19.5601Z" fill="#F0F0F0"/>
<path opacity="0.8" d="M205.869 19.5601H164.939V323.75H205.869V19.5601Z" fill="#F5F5F5"/>
</g>
<path d="M103.1 50.73H37.0703V199.4H103.1V50.73Z" fill="#F0F0F0"/>
<path d="M103.1 199.41H105.18L105.18 50.7401H103.1L103.1 199.41Z" fill="#E6E6E6"/>
<path d="M97.0996 193.4L97.0996 56.73H43.0696L43.0696 193.4H97.0996Z" fill="#FAFAFA"/>
<path d="M107.26 273.07H39.4796C37.989 273.067 36.56 272.475 35.505 271.422C34.4501 270.369 33.8549 268.941 33.8496 267.45C33.8549 265.959 34.4501 264.531 35.505 263.478C36.56 262.425 37.989 261.833 39.4796 261.83H107.26C108.749 261.835 110.175 262.429 111.228 263.482C112.281 264.535 112.874 265.961 112.88 267.45C112.874 268.939 112.281 270.365 111.228 271.418C110.175 272.471 108.749 273.065 107.26 273.07Z" fill="#F5F5F5"/>
<path d="M55.78 273.07H44.65L32 327.4H43.12L55.78 273.07Z" fill="#E6E6E6"/>
<path d="M77.9799 273.07H66.8599L60.6299 327.4H71.7499L77.9799 273.07Z" fill="#E6E6E6"/>
<path d="M90.96 273.07H102.08L114.74 327.4H103.61L90.96 273.07Z" fill="#E6E6E6"/>
</svg>
