<svg width="64" height="64" viewBox="0 0 64 64" fill="none" xmlns="http://www.w3.org/2000/svg">
<circle cx="32" cy="32" r="32" fill="#DAE9EA"/>
<path d="M32 50.8125C42.3899 50.8125 50.8125 42.3899 50.8125 32C50.8125 21.6101 42.3899 13.1875 32 13.1875C21.6101 13.1875 13.1875 21.6101 13.1875 32C13.1875 42.3899 21.6101 50.8125 32 50.8125Z" stroke="black" stroke-width="0.875" stroke-linecap="round" stroke-linejoin="round"/>
<path d="M31.9998 44.5133C38.9103 44.5133 44.5123 38.9112 44.5123 32.0008C44.5123 25.0903 38.9103 19.4883 31.9998 19.4883C25.0893 19.4883 19.4873 25.0903 19.4873 32.0008C19.4873 38.9112 25.0893 44.5133 31.9998 44.5133Z" stroke="black" stroke-width="0.875" stroke-linecap="round" stroke-linejoin="round"/>
<path d="M32.0004 38.4831C35.5812 38.4831 38.4841 35.5803 38.4841 31.9994C38.4841 28.4185 35.5812 25.5156 32.0004 25.5156C28.4195 25.5156 25.5166 28.4185 25.5166 31.9994C25.5166 35.5803 28.4195 38.4831 32.0004 38.4831Z" stroke="black" stroke-width="0.875" stroke-linecap="round" stroke-linejoin="round"/>
</svg>
