<svg width="29" height="25" viewBox="0 0 29 25" fill="none" xmlns="http://www.w3.org/2000/svg">
<path d="M25.5064 6.19929C25.5245 6.47135 25.5245 6.74347 25.5245 7.01552C25.5245 15.3136 19.662 24.875 8.94709 24.875C5.64604 24.875 2.57951 23.845 0 22.0572C0.469018 22.1154 0.919934 22.1349 1.407 22.1349C4.13077 22.1349 6.63815 21.1438 8.64043 19.4531C6.07896 19.3947 3.93238 17.5874 3.19279 15.0999C3.55359 15.1582 3.91433 15.197 4.29318 15.197C4.81627 15.197 5.33943 15.1193 5.82644 14.9833C3.15675 14.4003 1.15442 11.8739 1.15442 8.82284V8.74513C1.93004 9.21154 2.83204 9.50304 3.78801 9.54187C2.21866 8.41469 1.19051 6.49079 1.19051 4.31421C1.19051 3.14822 1.47907 2.07937 1.98418 1.14655C4.85231 4.95553 9.16353 7.44299 13.9978 7.71511C13.9076 7.2487 13.8535 6.76291 13.8535 6.27706C13.8535 2.81784 16.451 0 19.6799 0C21.3575 0 22.8727 0.757908 23.937 1.98223C25.2538 1.71017 26.5165 1.18544 27.6349 0.46641C27.2019 1.92396 26.282 3.14828 25.0734 3.92557C26.2459 3.7896 27.3824 3.43972 28.4286 2.95393C27.635 4.19763 26.6428 5.3053 25.5064 6.19929Z" fill="white"/>
</svg>
