<svg width="34" height="31" viewBox="0 0 34 31" fill="none" xmlns="http://www.w3.org/2000/svg">
<path d="M16.93 7.55199C12.297 7.55199 8.55993 11.1006 8.55993 15.5C8.55993 19.8994 12.297 23.448 16.93 23.448C21.5631 23.448 25.3001 19.8994 25.3001 15.5C25.3001 11.1006 21.5631 7.55199 16.93 7.55199ZM16.93 20.6672C13.936 20.6672 11.4884 18.3499 11.4884 15.5C11.4884 12.6501 13.9287 10.3328 16.93 10.3328C19.9313 10.3328 22.3717 12.6501 22.3717 15.5C22.3717 18.3499 19.924 20.6672 16.93 20.6672ZM27.5948 7.22688C27.5948 8.25756 26.7206 9.08072 25.6425 9.08072C24.5571 9.08072 23.6902 8.25064 23.6902 7.22688C23.6902 6.20311 24.5643 5.37303 25.6425 5.37303C26.7206 5.37303 27.5948 6.20311 27.5948 7.22688ZM33.1384 9.10839C33.0146 6.62507 32.4172 4.42536 30.5013 2.61302C28.5928 0.80068 26.2762 0.23346 23.661 0.108948C20.9657 -0.036316 12.887 -0.036316 10.1917 0.108948C7.58378 0.226542 5.26726 0.793763 3.35139 2.6061C1.43553 4.41844 0.845467 6.61815 0.714343 9.10147C0.561365 11.6609 0.561365 19.3322 0.714343 21.8916C0.838182 24.3749 1.43553 26.5746 3.35139 28.387C5.26726 30.1993 7.5765 30.7665 10.1917 30.8911C12.887 31.0363 20.9657 31.0363 23.661 30.8911C26.2762 30.7735 28.5928 30.2062 30.5013 28.387C32.4099 26.5746 33.0073 24.3749 33.1384 21.8916C33.2914 19.3322 33.2914 11.6678 33.1384 9.10839ZM29.6563 24.6378C29.0881 25.9936 27.9881 27.0381 26.5531 27.5846C24.4041 28.3939 19.3048 28.2071 16.93 28.2071C14.5552 28.2071 9.44866 28.387 7.30697 27.5846C5.87917 27.045 4.77919 26.0005 4.2037 24.6378C3.35139 22.5972 3.54808 17.755 3.54808 15.5C3.54808 13.245 3.35868 8.39591 4.2037 6.36221C4.7719 5.00642 5.87189 3.9619 7.30697 3.41543C9.45594 2.6061 14.5552 2.79287 16.93 2.79287C19.3048 2.79287 24.4114 2.61302 26.5531 3.41543C27.9809 3.95498 29.0808 4.9995 29.6563 6.36221C30.5086 8.40282 30.3119 13.245 30.3119 15.5C30.3119 17.755 30.5086 22.6041 29.6563 24.6378Z" fill="white"/>
</svg>
