<svg width="144" height="612" viewBox="0 0 144 612" fill="none" xmlns="http://www.w3.org/2000/svg">
<g filter="url(#filter0_d_1321_537)">
<g opacity="0.7">
<path opacity="0.7" d="M90.2266 283.323C66.1874 285.118 50.7538 300.045 43.5701 320.922C39.698 332.173 39.2514 343.731 37.1026 355.293C33.8657 372.688 26.901 385.871 13.2897 398.264C9.39591 401.709 6.1707 405.768 3.75914 410.257C-0.813822 414.535 -4.54011 419.547 -7.24509 425.055C-10.8264 432.489 -11.8397 441.417 -7.70434 448.832C-6.59307 450.825 -3.81858 454.827 -0.944016 456.645C-11.707 478.212 -17.6247 501.833 -16.9579 525.424C-16.5545 539.665 -15.8161 553.91 -14.9566 568.133C-14.7248 571.952 -13.4029 578.259 -11.4174 571.854C-9.60035 565.995 -11.8787 556.8 -12.0894 550.679C-13.1153 520.865 -13.9917 493.757 -0.949282 465.901C0.418653 462.982 1.86138 460.086 3.37889 457.213C3.46636 457.162 3.55108 457.108 3.63274 457.049C3.69067 457.091 3.73807 457.136 3.80022 457.177C3.89713 457.016 4.0288 456.822 4.18258 456.607C4.63938 456.14 5.03282 455.621 5.3539 455.062C6.51257 453.553 7.81976 451.781 7.82713 450.811C7.82713 450.803 7.82713 450.792 7.82713 450.784C16.057 438.466 24.9927 426.578 34.5946 415.173C34.524 415.256 44.8414 402.038 43.2456 409.348C42.4767 412.87 34.8874 419.579 31.8222 423.31C24.1862 432.627 17.0575 442.303 10.4636 452.301C9.57357 452.782 8.31588 455.146 7.40896 456.907C6.90652 457.799 6.43778 458.698 5.97747 459.483C29.4216 466.772 47.6581 452.091 60.0938 435.015C60.1085 434.995 60.1222 434.975 60.1359 434.955C63.9206 430.236 67.7969 425.551 72.6401 421.821C80.7203 415.598 89.3724 414.5 98.8988 411.436C124.878 403.084 135.924 371.403 139.431 347.896C143.388 321.375 124.027 280.709 90.2266 283.323Z" fill="#89C5CC" fill-opacity="0.5"/>
<path opacity="0.7" d="M42.7399 209.059C18.0664 233.222 6.14775 266.736 -3.29357 298.242C-13.8355 333.432 -20.7979 369.165 -21.0613 405.751C-21.2366 429.788 -21.9318 453.977 -20.44 477.987C-19.938 486.528 -18.9805 495.04 -17.571 503.491C-17.4526 504.184 -14.2394 523.019 -11.1615 518.629C-9.41228 516.133 -14.4552 499.091 -14.8367 496.252C-16.8055 480.257 -17.6528 464.156 -17.3731 448.056C-17.2007 421.543 -18.0325 395.165 -15.1777 368.749C-14.878 364.736 -14.2905 360.746 -13.4194 356.807C-12.3622 352.704 -13.7084 354.495 -10.2651 352.871C-6.91944 351.293 -2.78531 351.518 0.686483 349.537C14.4569 341.681 21.4956 321.5 26.9827 308.258C33.2529 293.116 37.0648 276.968 40.1084 261.033C42.3523 249.386 43.9347 237.635 44.849 225.829C44.9605 222.038 45.3219 218.257 45.9311 214.508C46.1415 213.516 47.1965 211.763 47.158 210.886C47.0772 209.028 45.8855 207.935 45.7873 206.374C44.7543 207.248 43.7414 208.144 42.7485 209.06" fill="#89C5CC" fill-opacity="0.5"/>
<path opacity="0.7" d="M-91.7949 530.988C-91.7949 550.178 -83.6936 568.581 -69.2733 582.15C-54.8529 595.719 -35.2947 603.341 -14.9012 603.341C5.49226 603.341 25.0505 595.719 39.4708 582.15C53.8912 568.581 61.9925 550.178 61.9925 530.988" fill="#89C5CC" fill-opacity="0.5"/>
<path opacity="0.7" d="M67.7677 557.751C64.8225 557.84 61.9482 556.89 59.7097 555.086C57.6854 553.286 56.1898 551.024 55.3678 548.519C53.3907 543.159 53.2042 536.573 53.0799 532.215C52.9251 526.749 52.5122 520.385 50.6014 514.636C49.7228 511.923 48.4605 509.333 46.8484 506.936C45.0962 504.362 42.9503 502.044 40.4799 500.059C39.1801 499.002 37.7939 497.996 36.453 497.022C35.2564 496.154 34.0208 495.256 32.8505 494.326L32.2912 493.883C28.5297 490.91 24.6398 487.837 24.1636 482.97C23.8982 480.267 24.3606 478.28 25.5393 477.064C26.1519 476.505 26.8848 476.077 27.6884 475.809C28.492 475.54 29.3476 475.437 30.1972 475.507C31.5296 475.529 32.8559 475.681 34.1546 475.963C34.3652 476.005 34.9214 476.204 35.6956 476.48C37.9076 477.267 41.5943 478.585 43.5672 478.585C44.1729 478.585 44.5711 478.456 44.7501 478.204C44.8322 478.04 44.8704 477.86 44.8614 477.679C44.8524 477.498 44.7965 477.322 44.6985 477.167C44.2435 476.14 42.6824 475.232 40.0586 474.47C34.7782 473.93 29.7927 473.444 26.8233 473.444C26.1803 473.428 25.5371 473.471 24.9031 473.573C19.5274 474.737 14.6141 477.315 10.7357 481.006C6.69367 484.87 3.38691 489.357 0.9596 494.274C-5.00547 505.805 -7.28384 518.646 -8.11177 525.274C-8.33613 527.069 -8.53837 529.014 -8.73219 531.221H-12.7949C-12.5767 526.422 -12.0738 521.638 -11.2886 516.892C-10.1352 510.473 -7.2059 498.097 -0.54457 487.328C2.16478 482.766 5.71839 478.697 9.94881 475.311C14.1026 472.029 19.1465 469.901 24.5144 469.166C25.2952 469.099 26.0794 469.072 26.8634 469.085C28.3918 469.085 30.234 469.14 32.0468 469.24C33.8116 468.309 35.7759 467.762 37.7949 467.641C38.5986 467.584 39.4234 467.557 40.246 467.557C44.9769 467.608 49.664 468.415 54.107 469.945C58.7831 471.53 63.2306 473.657 67.3464 476.279C71.4963 478.892 75.3329 481.921 78.7888 485.313C82.0514 488.476 84.8951 491.998 87.2577 495.804C90.7158 501.469 92.4928 508.256 92.5381 515.978C92.5045 523.034 91.2559 530.039 88.8409 536.72C87.178 541.636 84.6748 546.265 81.4296 550.424C77.4521 555.234 72.9196 557.699 67.9594 557.753L67.7677 557.751Z" fill="#69A1AC" fill-opacity="0.5"/>
</g>
<path d="M107.944 122.455C104.802 112.593 97.4242 104.874 89.7657 97.8011C74.8566 84.0322 66.838 75.5189 61.5229 55.3738C58.3982 43.5281 55.2176 30.9753 45.306 22.3812C38.0905 16.1265 25.6696 10.8683 16.0183 15.3499C1.17034 23.6889 -2.81683 40.8017 -1.31965 56.1253C0.536321 75.1178 9.96475 86.8286 28.0775 93.823C38.2834 97.7628 45.0677 102.961 50.6078 112.02C55.0393 119.263 57.6232 128.333 63.192 134.9C71.5176 144.715 81.9323 149.08 94.7782 147.448C82.7499 126.624 68.7001 105.604 51.7465 88.0757C50.16 86.313 40.8011 79.5663 42.6886 76.5622C44.7681 73.2545 54.3756 85.6796 54.3076 85.6045C59.2336 90.9251 63.7919 96.5791 68.2625 102.284C68.2505 102.288 68.2375 102.292 68.2245 102.296C72.8313 108.153 77.3864 114.093 81.8898 120.115C83.7079 122.66 85.4737 125.247 87.1604 127.886C89.6403 131.764 93.5762 142.771 97.6346 145.156C98.369 145.608 99.1913 145.918 100.054 146.069C102.823 150.335 105.517 154.635 108.079 158.986C114.772 170.349 120.515 182.348 123.151 195.178C123.92 198.922 123.375 212.929 126.092 215.633C131.058 220.576 129.606 211.055 129.307 208.182C126.84 184.383 117.76 164.107 104.576 144.099C108.626 139.122 109.211 126.453 107.938 122.457" fill="#F2F2F2" fill-opacity="0.5"/>
<path d="M-62.1698 133.958C-56.9337 128.155 -44.3448 127.17 -36.6465 127.56C-27.12 128.041 -17.3356 130.224 -8.27305 132.863C6.6561 137.209 21.1622 145.142 34.31 152.819C35.8944 153.744 55.4148 164.792 53.6872 166.731C51.9781 168.648 32.8091 155.526 28.5414 153.266C19.4274 148.438 11.0703 142.728 1.02405 139.538C-9.41247 136.344 -20.3429 134.815 -31.3154 135.012C-32.7192 135.024 -37.2956 134.104 -37.3977 136.057C-37.4946 137.968 -29.9176 136.972 -28.581 136.983C-23.0447 137.035 -17.5224 137.516 -12.0699 138.42C-1.94141 140.054 7.74431 143.555 16.4314 148.72C13.995 154.049 8.15505 156.505 2.03005 155.172C-3.26425 154.018 -8.42435 151.174 -13.6083 150.352C-17.1563 149.832 -20.7835 150.076 -24.2161 151.068C-33.345 153.563 -38.6157 158.68 -48.6569 155.121C-56.5282 152.33 -69.6912 142.307 -62.1743 133.956" fill="#F2F2F2" fill-opacity="0.5"/>
</g>
<defs>
<filter id="filter0_d_1321_537" x="-217.12" y="13.6758" width="361.061" height="597.666" filterUnits="userSpaceOnUse" color-interpolation-filters="sRGB">
<feFlood flood-opacity="0" result="BackgroundImageFix"/>
<feColorMatrix in="SourceAlpha" type="matrix" values="0 0 0 0 0 0 0 0 0 0 0 0 0 0 0 0 0 0 127 0" result="hardAlpha"/>
<feOffset dy="4"/>
<feGaussianBlur stdDeviation="2"/>
<feComposite in2="hardAlpha" operator="out"/>
<feColorMatrix type="matrix" values="0 0 0 0 0 0 0 0 0 0 0 0 0 0 0 0 0 0 0.25 0"/>
<feBlend mode="normal" in2="BackgroundImageFix" result="effect1_dropShadow_1321_537"/>
<feBlend mode="normal" in="SourceGraphic" in2="effect1_dropShadow_1321_537" result="shape"/>
</filter>
</defs>
</svg>
