<svg width="64" height="64" viewBox="0 0 64 64" fill="none" xmlns="http://www.w3.org/2000/svg">
<circle cx="32" cy="32" r="32" fill="#94FC7A" fill-opacity="0.19"/>
<path d="M39.9364 30.0711L35.5002 33.2999L37.2502 38.4886C37.2792 38.5875 37.2768 38.6929 37.2435 38.7903C37.2102 38.8878 37.1475 38.9725 37.0641 39.0329C36.9807 39.0933 36.8806 39.1264 36.7776 39.1277C36.6746 39.1289 36.5738 39.0983 36.4889 39.0399L32.0002 35.8811L27.5552 39.1186C27.5015 39.1564 27.4408 39.183 27.3767 39.1969C27.3125 39.2107 27.2463 39.2116 27.1818 39.1993C27.1173 39.1871 27.056 39.162 27.0014 39.1256C26.9468 39.0892 26.9 39.0422 26.8639 38.9874C26.8246 38.9257 26.798 38.8567 26.786 38.7845C26.774 38.7124 26.7767 38.6385 26.7939 38.5674L28.5002 33.3874L24.0639 30.1499C23.98 30.0909 23.9171 30.0067 23.8845 29.9095C23.8518 29.8123 23.851 29.7071 23.8823 29.6095C23.9135 29.5118 23.9752 29.4266 24.0582 29.3664C24.1413 29.3063 24.2414 29.2742 24.3439 29.2749H29.8302L31.5364 24.0861C31.5547 23.9814 31.6071 23.8857 31.6855 23.8138C31.7639 23.742 31.8639 23.6982 31.9698 23.6892C32.0758 23.6802 32.1817 23.7066 32.2711 23.7641C32.3605 23.8217 32.4283 23.9072 32.4639 24.0074L34.1702 29.1874H39.6564C39.7208 29.1885 39.7843 29.2023 39.8433 29.228C39.9023 29.2537 39.9557 29.2908 40.0004 29.3371C40.0451 29.3834 40.0802 29.4381 40.1038 29.498C40.1273 29.5578 40.1389 29.6218 40.1377 29.6861C40.1381 29.7619 40.12 29.8366 40.0849 29.9037C40.0499 29.9708 39.9989 30.0283 39.9364 30.0711V30.0711Z" stroke="black" stroke-width="0.666667" stroke-linecap="round" stroke-linejoin="round"/>
<path d="M32 16.9375C32 16.9375 22.1475 18.6875 18.6562 18.6875V36.1875C18.6617 37.4167 18.8992 38.6339 19.3563 39.775C19.7913 40.9035 20.3802 41.9665 21.1063 42.9337C21.8391 43.9049 22.6624 44.8043 23.565 45.62C24.3984 46.3922 25.2748 47.1167 26.19 47.79C27.0049 48.3748 27.8489 48.918 28.7188 49.4175C29.5938 49.9337 30.215 50.2925 30.5825 50.4588L31.4575 50.8875C31.6269 50.9683 31.8123 51.0103 32 51.0103C32.1877 51.0103 32.3731 50.9683 32.5425 50.8875L33.4175 50.4588C33.785 50.2838 34.4062 49.9337 35.2812 49.4175C36.1511 48.918 36.9951 48.3748 37.81 47.79C38.7252 47.1167 39.6016 46.3922 40.435 45.62C41.3376 44.8043 42.1609 43.9049 42.8938 42.9337C43.6198 41.9665 44.2087 40.9035 44.6438 39.775C45.1008 38.6339 45.3383 37.4167 45.3438 36.1875V18.6875C41.8525 18.7137 32 16.9375 32 16.9375Z" stroke="black" stroke-width="0.666667" stroke-linecap="round" stroke-linejoin="round"/>
</svg>
