<svg width="97" height="96" viewBox="0 0 97 96" fill="none" xmlns="http://www.w3.org/2000/svg">
<circle cx="48.623" cy="48" r="48" fill="#0E402D" fill-opacity="0.2"/>
<path d="M67.029 26.3027H29.2165C28.6087 26.3027 28.0258 26.5442 27.596 26.9739C27.1662 27.4037 26.9248 27.9866 26.9248 28.5944V66.4069C26.9248 67.0147 27.1662 67.5976 27.596 68.0274C28.0258 68.4571 28.6087 68.6986 29.2165 68.6986H67.029C67.6368 68.6986 68.2197 68.4571 68.6494 68.0274C69.0792 67.5976 69.3206 67.0147 69.3206 66.4069V28.5944C69.3206 27.9866 69.0792 27.4037 68.6494 26.9739C68.2197 26.5442 67.6368 26.3027 67.029 26.3027V26.3027Z" stroke="#323232" stroke-width="2.57812" stroke-linecap="round" stroke-linejoin="round"/>
<path d="M60.7272 51.5111C62.9421 51.5111 64.7376 49.7155 64.7376 47.5007C64.7376 45.2858 62.9421 43.4902 60.7272 43.4902C58.5123 43.4902 56.7168 45.2858 56.7168 47.5007C56.7168 49.7155 58.5123 51.5111 60.7272 51.5111Z" stroke="#323232" stroke-width="0.751953" stroke-linecap="round" stroke-linejoin="round"/>
<path d="M31.5088 47.4993H36.0921L40.6755 36.041L47.5505 58.9577L52.1338 47.4993H56.7171" stroke="#323232" stroke-width="2.57812" stroke-linecap="round" stroke-linejoin="round"/>
<rect x="21.9121" y="21.2891" width="52.4219" height="52.4219" stroke="#323232" stroke-width="2.57812"/>
</svg>
