<svg width="97" height="96" viewBox="0 0 97 96" fill="none" xmlns="http://www.w3.org/2000/svg">
<circle cx="48.2168" cy="48" r="48" fill="#0E402D" fill-opacity="0.2"/>
<path d="M38.1124 28.8256C39.5378 26.3427 41.7544 24.4094 44.408 23.3346C47.0616 22.2598 49.9988 22.1057 52.7503 22.8969C55.5018 23.688 57.9086 25.3788 59.586 27.6988C61.2634 30.0189 62.1146 32.8344 62.0035 35.6952C61.8924 38.5559 60.8254 41.2969 58.9731 43.4799C57.1208 45.6629 54.5902 47.1619 51.7856 47.7373C48.9811 48.3127 46.0646 47.9312 43.5024 46.6539C40.9402 45.3766 38.8802 43.2771 37.6516 40.6912C36.8308 41.2916 35.8398 41.6145 34.8228 41.6128H33.2228V42.4288C33.2228 43.0368 33.4532 43.5904 33.8308 44.0096C34.1535 43.6448 34.5796 43.387 35.0525 43.2705C35.5253 43.1539 36.0225 43.1842 36.4777 43.3573C36.9329 43.5303 37.3246 43.8379 37.6007 44.2392C37.8767 44.6404 38.0239 45.1162 38.0228 45.6032C38.0226 45.9377 37.9524 46.2684 37.8169 46.5741C37.6813 46.8799 37.4834 47.1539 37.2357 47.3787C36.988 47.6035 36.6961 47.774 36.3787 47.8793C36.0613 47.9847 35.7253 48.0225 35.3924 47.9904C33.9512 47.9398 32.5859 47.3317 31.5842 46.2942C30.5825 45.2567 30.0227 43.8709 30.0228 42.4288V30.4224C30.0228 29.998 30.1914 29.5911 30.4914 29.291C30.7915 28.991 31.1985 28.8224 31.6228 28.8224H38.0228L38.1124 28.8256ZM39.6228 35.5808C39.7225 38.0919 40.8029 40.4638 42.632 42.1872C44.4611 43.9106 46.8931 44.848 49.4057 44.7981C51.9183 44.7483 54.3112 43.7151 56.0705 41.9206C57.8298 40.126 58.8152 37.7131 58.8152 35.2C58.8152 32.6869 57.8298 30.274 56.0705 28.4794C54.3112 26.6849 51.9183 25.6517 49.4057 25.6019C46.8931 25.552 44.4611 26.4894 42.632 28.2128C40.8029 29.9362 39.7225 32.3081 39.6228 34.8192V35.5808ZM36.4228 34.7584V32.0224H33.2228V38.4128H34.8228C35.2472 38.4128 35.6541 38.2442 35.9542 37.9442C36.2542 37.6441 36.4228 37.2371 36.4228 36.8128V35.6416C36.4128 35.3473 36.4128 35.0527 36.4228 34.7584ZM26.8164 57.6C26.8164 54.0384 29.706 51.2 33.2452 51.2H65.2164C66.9138 51.2 68.5416 51.8743 69.7419 53.0745C70.9421 54.2747 71.6164 55.9026 71.6164 57.6C71.6164 63.0112 68.9508 67.0912 64.7844 69.7504C60.682 72.3648 55.1524 73.6 49.2164 73.6C43.2804 73.6 37.7508 72.3648 33.6484 69.7504C29.482 67.0944 26.8164 63.008 26.8164 57.6ZM33.2452 54.4C31.45 54.4 30.0164 55.8304 30.0164 57.6C30.0164 61.7888 32.0068 64.9088 35.37 67.0496C38.794 69.2352 43.6644 70.4 49.2164 70.4C54.7684 70.4 59.6388 69.2352 63.0628 67.0496C66.4228 64.9056 68.4164 61.792 68.4164 57.6C68.4164 56.7513 68.0793 55.9374 67.4791 55.3373C66.879 54.7371 66.0651 54.4 65.2164 54.4H33.2452Z" fill="#0E402D"/>
<path d="M38.1124 28.8256C39.5378 26.3427 41.7544 24.4094 44.408 23.3346C47.0616 22.2598 49.9988 22.1057 52.7503 22.8969C55.5018 23.688 57.9086 25.3788 59.586 27.6988C61.2634 30.0189 62.1146 32.8344 62.0035 35.6952C61.8924 38.5559 60.8254 41.2969 58.9731 43.4799C57.1208 45.6629 54.5902 47.1619 51.7856 47.7373C48.9811 48.3127 46.0646 47.9312 43.5024 46.6539C40.9402 45.3766 38.8802 43.2771 37.6516 40.6912C36.8308 41.2916 35.8398 41.6145 34.8228 41.6128H33.2228V42.4288C33.2228 43.0368 33.4532 43.5904 33.8308 44.0096C34.1535 43.6448 34.5796 43.387 35.0525 43.2705C35.5253 43.1539 36.0225 43.1842 36.4777 43.3573C36.9329 43.5303 37.3246 43.8379 37.6007 44.2392C37.8767 44.6404 38.0239 45.1162 38.0228 45.6032C38.0226 45.9377 37.9524 46.2684 37.8169 46.5741C37.6813 46.8799 37.4834 47.1539 37.2357 47.3787C36.988 47.6035 36.6961 47.774 36.3787 47.8793C36.0613 47.9847 35.7253 48.0225 35.3924 47.9904C33.9512 47.9398 32.5859 47.3317 31.5842 46.2942C30.5825 45.2567 30.0227 43.8709 30.0228 42.4288V30.4224C30.0228 29.998 30.1914 29.5911 30.4914 29.291C30.7915 28.991 31.1985 28.8224 31.6228 28.8224H38.0228L38.1124 28.8256ZM39.6228 35.5808C39.7225 38.0919 40.8029 40.4638 42.632 42.1872C44.4611 43.9106 46.8931 44.848 49.4057 44.7981C51.9183 44.7483 54.3112 43.7151 56.0705 41.9206C57.8298 40.126 58.8152 37.7131 58.8152 35.2C58.8152 32.6869 57.8298 30.274 56.0705 28.4794C54.3112 26.6849 51.9183 25.6517 49.4057 25.6019C46.8931 25.552 44.4611 26.4894 42.632 28.2128C40.8029 29.9362 39.7225 32.3081 39.6228 34.8192V35.5808ZM36.4228 34.7584V32.0224H33.2228V38.4128H34.8228C35.2472 38.4128 35.6541 38.2442 35.9542 37.9442C36.2542 37.6441 36.4228 37.2371 36.4228 36.8128V35.6416C36.4128 35.3473 36.4128 35.0527 36.4228 34.7584ZM26.8164 57.6C26.8164 54.0384 29.706 51.2 33.2452 51.2H65.2164C66.9138 51.2 68.5416 51.8743 69.7419 53.0745C70.9421 54.2747 71.6164 55.9026 71.6164 57.6C71.6164 63.0112 68.9508 67.0912 64.7844 69.7504C60.682 72.3648 55.1524 73.6 49.2164 73.6C43.2804 73.6 37.7508 72.3648 33.6484 69.7504C29.482 67.0944 26.8164 63.008 26.8164 57.6ZM33.2452 54.4C31.45 54.4 30.0164 55.8304 30.0164 57.6C30.0164 61.7888 32.0068 64.9088 35.37 67.0496C38.794 69.2352 43.6644 70.4 49.2164 70.4C54.7684 70.4 59.6388 69.2352 63.0628 67.0496C66.4228 64.9056 68.4164 61.792 68.4164 57.6C68.4164 56.7513 68.0793 55.9374 67.4791 55.3373C66.879 54.7371 66.0651 54.4 65.2164 54.4H33.2452Z" stroke="black"/>
</svg>
