<svg width="97" height="96" viewBox="0 0 97 96" fill="none" xmlns="http://www.w3.org/2000/svg">
<circle cx="48.1055" cy="48" r="48" fill="#FCA152" fill-opacity="0.2"/>
<path d="M70.1055 64C69.2146 64.0041 68.3361 64.2092 67.5355 64.6L58.9355 56H52.1055V60H57.2775L64.7075 67.43C64.3163 68.2306 64.1106 69.109 64.1055 70C64.1055 71.1867 64.4574 72.3467 65.1167 73.3334C65.7759 74.3201 66.713 75.0892 67.8094 75.5433C68.9057 75.9974 70.1121 76.1162 71.276 75.8847C72.4399 75.6532 73.509 75.0818 74.3481 74.2426C75.1872 73.4035 75.7587 72.3344 75.9902 71.1705C76.2217 70.0067 76.1029 68.8003 75.6487 67.7039C75.1946 66.6075 74.4256 65.6705 73.4389 65.0112C72.4522 64.3519 71.2922 64 70.1055 64ZM70.1055 72C69.7099 72 69.3232 71.8827 68.9943 71.6629C68.6654 71.4432 68.4091 71.1308 68.2577 70.7654C68.1063 70.3999 68.0667 69.9978 68.1439 69.6098C68.2211 69.2219 68.4116 68.8655 68.6913 68.5858C68.971 68.3061 69.3273 68.1156 69.7153 68.0384C70.1033 67.9613 70.5054 68.0009 70.8708 68.1522C71.2363 68.3036 71.5486 68.56 71.7684 68.8889C71.9882 69.2178 72.1055 69.6044 72.1055 70C72.1055 70.5304 71.8948 71.0391 71.5197 71.4142C71.1446 71.7893 70.6359 72 70.1055 72ZM70.1055 42C68.8686 42.0037 67.6632 42.3902 66.6548 43.1064C65.6464 43.8226 64.8844 44.8334 64.4735 46H52.1055V50H64.4735C64.8419 51.0343 65.4876 51.9475 66.3399 52.6397C67.1923 53.332 68.2185 53.7766 69.3064 53.925C70.3943 54.0734 71.5021 53.92 72.5087 53.4814C73.5154 53.0428 74.3821 52.336 75.0141 51.4382C75.6462 50.5403 76.0194 49.486 76.0928 48.3905C76.1662 47.2949 75.937 46.2003 75.4304 45.2261C74.9238 44.252 74.1591 43.4358 73.22 42.8669C72.2809 42.2979 71.2035 41.998 70.1055 42ZM70.1055 50C69.7099 50 69.3232 49.8827 68.9943 49.6629C68.6654 49.4432 68.4091 49.1308 68.2577 48.7654C68.1063 48.3999 68.0667 47.9978 68.1439 47.6098C68.2211 47.2219 68.4116 46.8655 68.6913 46.5858C68.971 46.3061 69.3273 46.1156 69.7153 46.0384C70.1033 45.9613 70.5054 46.0009 70.8708 46.1522C71.2363 46.3036 71.5486 46.56 71.7684 46.8889C71.9882 47.2178 72.1055 47.6044 72.1055 48C72.1055 48.5304 71.8948 49.0391 71.5197 49.4142C71.1446 49.7893 70.6359 50 70.1055 50ZM70.1055 20C68.5147 20.0016 66.9895 20.6342 65.8646 21.7591C64.7397 22.884 64.1071 24.4092 64.1055 26C64.1123 26.9581 64.3511 27.9003 64.8015 28.746L57.2975 36H52.1055V40H58.9135L67.7135 31.496C68.5309 31.8525 69.4176 32.0222 70.3089 31.9927C71.2002 31.9633 72.0738 31.7355 72.8659 31.3259C73.6581 30.9163 74.3489 30.3351 74.8882 29.6249C75.4275 28.9146 75.8015 28.093 75.9832 27.2198C76.1649 26.3467 76.1495 25.4441 75.9384 24.5777C75.7272 23.7112 75.3255 22.9028 74.7624 22.2112C74.1994 21.5196 73.4892 20.9623 72.6836 20.5798C71.878 20.1972 70.9973 19.9992 70.1055 20ZM70.1055 28C69.7099 28 69.3232 27.8827 68.9943 27.6629C68.6654 27.4432 68.4091 27.1308 68.2577 26.7654C68.1063 26.3999 68.0667 25.9978 68.1439 25.6098C68.2211 25.2219 68.4116 24.8655 68.6913 24.5858C68.971 24.3061 69.3273 24.1156 69.7153 24.0384C70.1033 23.9613 70.5054 24.0009 70.8708 24.1522C71.2363 24.3036 71.5486 24.56 71.7684 24.8889C71.9882 25.2178 72.1055 25.6044 72.1055 26C72.1055 26.5304 71.8948 27.0391 71.5197 27.4142C71.1446 27.7893 70.6359 28 70.1055 28Z" fill="#DF6F14"/>
<path d="M52.1055 28H56.1055V24H52.1055C50.9657 24.0038 49.8401 24.2526 48.8049 24.7295C47.7697 25.2064 46.8491 25.9002 46.1055 26.764C45.3619 25.9002 44.4413 25.2064 43.4061 24.7295C42.3709 24.2526 41.2452 24.0038 40.1055 24H38.1055C33.3332 24.0053 28.7579 25.9034 25.3834 29.2779C22.0089 32.6524 20.1108 37.2277 20.1055 42V54C20.1108 58.7723 22.0089 63.3476 25.3834 66.7221C28.7579 70.0966 33.3332 71.9947 38.1055 72H40.1055C41.2452 71.9962 42.3709 71.7474 43.4061 71.2705C44.4413 70.7936 45.3619 70.0998 46.1055 69.236C46.8491 70.0998 47.7697 70.7936 48.8049 71.2705C49.8401 71.7474 50.9657 71.9962 52.1055 72H56.1055V68H52.1055C51.0449 67.9989 50.0281 67.5772 49.2782 66.8273C48.5283 66.0773 48.1065 65.0605 48.1055 64V32C48.1065 30.9395 48.5283 29.9227 49.2782 29.1727C50.0281 28.4228 51.0449 28.0011 52.1055 28ZM40.1055 68H38.1055C34.7424 67.994 31.4936 66.7784 28.9526 64.5752C26.4116 62.372 24.748 59.3283 24.2655 56H28.1055V52H24.1055V44H30.1055C31.6963 43.9984 33.2215 43.3658 34.3464 42.2409C35.4712 41.116 36.1039 39.5908 36.1055 38V34H32.1055V38C32.1055 38.5304 31.8948 39.0391 31.5197 39.4142C31.1446 39.7893 30.6359 40 30.1055 40H24.2655C24.748 36.6717 26.4116 33.628 28.9526 31.4248C31.4936 29.2216 34.7424 28.006 38.1055 28H40.1055C41.166 28.0011 42.1828 28.4228 42.9327 29.1727C43.6826 29.9227 44.1044 30.9395 44.1055 32V40H40.1055V44H44.1055V52H40.1055C38.5147 52.0016 36.9895 52.6342 35.8646 53.7591C34.7397 54.884 34.1071 56.4092 34.1055 58V62H38.1055V58C38.1055 57.4696 38.3162 56.9609 38.6913 56.5858C39.0663 56.2107 39.575 56 40.1055 56H44.1055V64C44.1044 65.0605 43.6826 66.0773 42.9327 66.8273C42.1828 67.5772 41.166 67.9989 40.1055 68Z" fill="#DF6F14"/>
</svg>
