<svg width="64" height="64" viewBox="0 0 64 64" fill="none" xmlns="http://www.w3.org/2000/svg">
<circle cx="32" cy="32" r="32" fill="#EC8D3B" fill-opacity="0.2"/>
<path d="M31.9999 33.3142C32.7253 33.3142 33.3133 32.7262 33.3133 32.0009C33.3133 31.2755 32.7253 30.6875 31.9999 30.6875C31.2745 30.6875 30.6865 31.2755 30.6865 32.0009C30.6865 32.7262 31.2745 33.3142 31.9999 33.3142Z" stroke="black" stroke-width="0.666667" stroke-linecap="round" stroke-linejoin="round"/>
<path d="M32.0002 39.3422C36.0557 39.3422 39.3432 36.0547 39.3432 31.9993C39.3432 27.9438 36.0557 24.6562 32.0002 24.6562C27.9448 24.6562 24.6572 27.9438 24.6572 31.9993C24.6572 36.0547 27.9448 39.3422 32.0002 39.3422Z" stroke="black" stroke-width="0.666667" stroke-linecap="round" stroke-linejoin="round"/>
<path d="M32 44.1931C24.2125 44.1931 14.9375 37.0356 14.9375 32.0008C14.9375 26.9661 24.2125 19.8086 32 19.8086M32 44.1931C39.7875 44.1931 49.0625 37.0356 49.0625 32.0008C49.0625 26.9661 39.7875 19.8086 32 19.8086V44.1931Z" stroke="black" stroke-width="0.666667" stroke-linecap="round" stroke-linejoin="round"/>
</svg>
